<?xml version="1.0" standalone="no"?>
<!DOCTYPE svg PUBLIC "-//W3C//DTD SVG 1.1//EN" "http://www.w3.org/Graphics/SVG/1.1/DTD/svg11.dtd" >
<svg xmlns="http://www.w3.org/2000/svg" xmlns:xlink="http://www.w3.org/1999/xlink" version="1.1">
<metadata>
Created by FontForge 20170731 at Sun Jun  6 19:38:42 2004
 By Aleksey,,,
</metadata>
<defs>
<font id="OldScrip" horiz-adv-x="1430" >
  <font-face 
    font-family="Old Script"
    font-weight="400"
    font-stretch="normal"
    units-per-em="2048"
    panose-1="2 11 6 3 5 3 2 2 2 4"
    ascent="1638"
    descent="-410"
    x-height="547"
    cap-height="1473"
    bbox="-645 -643 3125 1923"
    underline-thickness="0"
    underline-position="0"
    unicode-range="U+0020-E02B"
  />
<missing-glyph horiz-adv-x="1024" 
 />
    <glyph glyph-name=".notdef" horiz-adv-x="1024" 
 />
    <glyph glyph-name="space" unicode=" " horiz-adv-x="551" 
 />
    <glyph glyph-name="nonmarkingreturn" horiz-adv-x="682" 
 />
    <glyph glyph-name="exclam" unicode="!" horiz-adv-x="815" 
d="M213 -8q-22 0 -35.5 15t-13.5 40q0 37 22.5 65.5t53.5 28.5q23 0 37 -16.5t14 -44.5q0 -35 -24 -61.5t-54 -26.5zM358 223q0 24 137 202t238 318l87 122q316 442 356 442q21 0 37 -15.5t16 -36.5q0 -46 -217 -291q-97 -109 -154 -176q-130 -151 -306 -364
q-169 -205 -185 -205q-5 0 -7 1.5t-2 2.5z" />
    <glyph glyph-name="quotedbl" unicode="&#x22;" horiz-adv-x="1634" 
d="M1114 920l377 452q18 21 25 31q2 4 12 14q31 45 26.5 69.5t-38.5 24.5q-39 0 -74 -22q-33 -23 -70 -72q-6 -8 -14 -20q-4 -11 -12 -25l-263 -452h31zM793 920l374 452q15 21 25 31l3 3t7 11q33 45 31 72q-4 22 -41 22t-76 -22q-33 -23 -67 -72q2 2 -2.5 -3t-12.5 -17
q-6 -11 -12 -25l-258 -452h29z" />
    <glyph glyph-name="numbersign" unicode="#" horiz-adv-x="1575" 
d="M700 877l-108 -304h301l106 304h-299zM809 1454h94l-174 -498h299l176 498h96l-176 -498h322l-27 -79h-323l-107 -304h348l-28 -79h-348l-175 -494h-96l174 494h-301l-174 -494h-94l174 494h-340l31 79h338l106 304h-368l28 79h369z" />
    <glyph glyph-name="dollar" unicode="$" horiz-adv-x="1419" 
d="M856 709l346 452q55 -49 92 -131q37 -80 37 -158q0 -69 -33 -69q-41 20 -53 20q-20 0 -41 -20q-18 -23 -18 -41q0 -25 16 -41q19 -19 41 -19q43 0 78 50q31 51 31 118q0 101 -64 207q-31 47 -74 97l134 176l-11 8l-137 -174q-16 12 -38.5 27.5t-51.5 35.5l139 185l-12 10
l-141 -189q-99 47 -178 47q-179 0 -271 -133q-55 -84 -55 -174q0 -51 18 -100q15 -43 84 -160l-413 -530q-125 137 -125 286q0 52 16 105q18 49 41 49q2 0 12 -6q27 -21 47 -21q25 0 41.5 16.5t16.5 39.5q0 18 -17 39q-16 14 -39 14q-51 0 -90 -57q-43 -66 -43 -166
q0 -82 29 -156q14 -35 40 -74t60 -86l-186 -239l10 -8l189 237q22 -20 43.5 -39.5t44.5 -36.5l-183 -229l13 -10l184 231q102 -63 227 -63q144 0 246 96q53 47 88 123q33 67 33 139q0 133 -123 322zM780 608h-2q86 -133 86 -233q0 -146 -125 -240q-90 -67 -188 -67
q-74 0 -154 43zM385 119q-43 26 -92 71l409 533q15 -23 31.5 -48.5t36.5 -53.5zM772 838q-67 110 -67 182q0 59 26 113q27 55 74 90q63 47 149 47q62 0 129 -31zM1100 1237q51 -31 92 -68l-342 -446q-19 25 -36 50.5t-34 49.5z" />
    <glyph glyph-name="percent" unicode="%" horiz-adv-x="1194" 
d="M963 438q-33 0 -73.5 -27.5t-82.5 -78.5q-59 -71 -91 -134.5t-32 -109.5q0 -32 19 -52t51 -20q83 0 179.5 119.5t96.5 224.5q0 36 -18.5 57t-48.5 21zM1065 373q0 -138 -104.5 -263.5t-206.5 -125.5q-57 0 -94 41.5t-37 105.5q0 120 108 231t221 111q50 0 81.5 -28.5
t31.5 -71.5zM498 938q-33 0 -73 -27.5t-83 -79.5q-59 -71 -91 -134t-32 -109q0 -32 19 -51t51 -19q83 0 179.5 118.5t96.5 223.5q0 36 -18.5 57t-48.5 21zM965 866q-62 -32 -112.5 -47.5t-94.5 -15.5q-50 0 -91.5 14t-68.5 39q-12 -140 -113 -255.5t-198 -115.5
q-57 0 -93 41.5t-36 106.5q0 121 107.5 231.5t221.5 110.5q58 0 103 -56q9 -12 14 -18q29 -34 65 -48.5t89 -14.5q103 0 220.5 78.5t121.5 78.5q8 0 12 -2t4 -6q0 -8 -13.5 -25.5t-43.5 -48.5l-944 -962q-10 -10 -25 -26q-41 -44 -74 -44q-10 0 -18 4t-8 9q0 14 54 68l11 11
z" />
    <glyph glyph-name="ampersand" unicode="&#x26;" horiz-adv-x="973" 
d="M520 205q105 121 185 180q75 59 133 59q10 0 26 -6q15 -2 15 -10q0 -4 -9 -6q-26 -19 -26 -41q0 -12 10 -27q12 -12 29 -12q14 0 28.5 14.5t14.5 30.5q0 27 -27 45q-27 21 -61 21q-60 0 -129 -50q-35 -24 -84.5 -66t-108.5 -101q-22 79 -24 155q112 31 153 49
q129 58 129 150q0 61 -72 61q-53 0 -104 -33q-53 -34 -86 -88q-31 -51 -35 -129q-14 -4 -31.5 -8t-37.5 -8q-123 -35 -154 -43q-14 -4 -30.5 -12t-33.5 -21q-47 -33 -75.5 -80t-28.5 -86q0 -63 53 -98q33 -16 76 -16q64 -2 129 34q62 33 166 127q2 -20 2 -34v-21
q0 -198 -213 -393q-168 -156 -338 -156q-88 0 -141 33q-58 33 -58 84q0 59 70 111q62 43 143 43q41 0 107 -19l2 6q-61 23 -107 23q-77 0 -141 -39q-84 -49 -84 -125q0 -61 64 -94q63 -39 161 -39q211 0 385 137q170 139 170 354q0 60 -12 144zM502 223q-70 -88 -146 -135
q-80 -49 -147 -49q-33 0 -55 16q-23 19 -23 45q0 35 33 82q33 54 82 99q45 38 90 59q51 25 141 49q0 -8 3 -24.5t7 -40.5q7 -35 10 -59.5t5 -41.5zM489 403q3 68 31 117q33 58 80 88q45 33 102 33q60 0 60 -51q0 -76 -109 -131q-57 -33 -164 -56z" />
    <glyph glyph-name="quotesingle" unicode="'" horiz-adv-x="1184" 
d="M750 920l321 452q8 10 13.5 18.5t9.5 12.5q2 8 8 14q26 41 20 70q-6 24 -43 24t-71 -22q-17 -12 -31 -30.5t-29 -41.5q-4 -6 -8 -13t-8 -15q-2 -3 -8 -17l-203 -452h29z" />
    <glyph glyph-name="parenleft" unicode="(" horiz-adv-x="711" 
d="M1466 1468q0 -14 -53 -58q-40 -32 -65 -54q-210 -184 -393.5 -386.5t-311.5 -389.5q-136 -197 -234 -395t-137 -351q-9 -34 -16 -83q-8 -48 -20 -48q-5 0 -11 9.5t-6 19.5q0 177 115.5 455t306.5 528q109 142 256 290t350 318q94 78 145 117t60 39q6 0 10 -3t4 -8z" />
    <glyph glyph-name="parenright" unicode=")" horiz-adv-x="711" 
d="M-106 -289q0 15 63 70q54 46 90 80q222 208 398.5 416t302.5 409q114 184 195 361.5t116 318.5q8 33 14 81q7 50 21 50q6 0 12 -11.5t6 -27.5q0 -176 -111 -454t-294 -527q-108 -145 -253.5 -296t-340.5 -320q-110 -93 -153 -126.5t-52 -33.5q-7 0 -10.5 2.5t-3.5 7.5z
" />
    <glyph glyph-name="asterisk" unicode="*" horiz-adv-x="1497" 
d="M1047 1229l-150 -172q-4 -2 -5 -3l-1 -1q-35 -39 -43 -58q-12 -20 -6 -32q6 -15 26 -15q25 0 45 21q25 24 54 71l106 181l45 -140q0 -4 2 -8q15 -45 41 -45q15 0 37 16q25 19 33 33q6 10 2 27q-4 8 -11.5 17t-17.5 20l-94 102l195 33q30 4 50.5 10t30.5 10q21 11 29 31.5
t6 34.5q-4 12 -20 12q-12 0 -33 -4q-4 -2 -16.5 -5t-32.5 -9l-205 -82l152 170l12 12q29 35 39 51q10 23 4 31q-6 12 -29 12q-24 0 -45 -18q-26 -27 -53 -72l-109 -180l-41 139q0 2 -2 4q-16 47 -43 47q-16 0 -36 -14q-19 -14 -31 -33q-12 -24 22 -61q0 -2 1 -3l1 -1
l97 -103l-195 -28q-53 -13 -80 -23q-22 -12 -33 -30q-10 -21 -8 -35.5t23 -14.5q6 0 13 1t18 3q6 2 19 6.5t34 14.5z" />
    <glyph glyph-name="plus" unicode="+" horiz-adv-x="1063" 
d="M635 881l-113 -291h-203q-88 0 -143 -17q-47 -18 -47 -45q0 -16 23 -20q10 -2 31.5 -3t54.5 -1h251l-79 -209q-17 -47 -27 -84t-12 -59q-4 -50 26 -50q13 0 29 25q4 10 14.5 30.5t24.5 55.5l110 291h246q101 0 144 14q49 14 49 45q0 15 -23 21q-24 6 -86 6h-297l82 207
q35 98 37 143q2 49 -25 49q-16 0 -28 -22q-6 -11 -15.5 -32.5t-23.5 -53.5z" />
    <glyph glyph-name="comma" unicode="," horiz-adv-x="332" 
d="M139 -53l-219 -246l-3 -3q-32 -36 -48 -36q-2 0 -4 2.5t-2 5.5q0 8 9 23t32 43l166 197q13 16 21.5 32.5t8.5 24.5q0 3 -9 22.5t-9 38.5q0 37 21.5 62.5t50.5 25.5q24 0 39.5 -18t15.5 -47q0 -28 -15 -56t-55 -71z" />
    <glyph glyph-name="hyphen" unicode="-" horiz-adv-x="1063" 
d="M905 590h-586q-88 0 -143 -17q-47 -18 -47 -45q0 -16 23 -20q10 -2 31.5 -3t54.5 -1h583q101 0 144 14q49 14 49 45q0 15 -23 21q-24 6 -86 6z" />
    <glyph glyph-name="period" unicode="." horiz-adv-x="332" 
d="M131 -8q-22 0 -35.5 15t-13.5 40q0 37 22.5 65.5t53.5 28.5q23 0 37 -16.5t14 -44.5q0 -35 -24 -61.5t-54 -26.5z" />
    <glyph glyph-name="slash" unicode="/" horiz-adv-x="569" 
d="M1024 1174l-915 -1280q-4 -6 -11 -15q-47 -67 -82 -67q-11 0 -15.5 2t-4.5 8q0 18 38 69q7 9 11 15l947 1293l3 4q36 48 54 48q5 0 9.5 -4t4.5 -10q0 -9 -23 -41q-10 -14 -16 -22z" />
    <glyph glyph-name="zero" unicode="0" horiz-adv-x="1098" 
d="M1096 1122q-101 0 -254 -86q-240 -127 -461 -329q-277 -248 -248 -512q21 -199 182 -199q103 0 240 82q133 82 328 270q88 88 157.5 172t120.5 168q103 168 103 281q0 49 -37 98q-47 55 -131 55zM1110 1106q55 -2 94 -41q33 -37 37 -92q0 -113 -88 -258
q-88 -154 -242 -307q-209 -207 -350 -302q-143 -96 -248 -96q-49 0 -86 31q-34 29 -41 74q-16 108 136 305q151 198 391 436q125 129 229 195q92 57 168 55z" />
    <glyph glyph-name="one" unicode="1" horiz-adv-x="1036" 
d="M1221 1126l-17 13l-971 -514l9 -17l872 459l-1018 -1047h197q6 27 41 68z" />
    <glyph glyph-name="two" unicode="2" horiz-adv-x="1171" 
d="M403 182l-4 6q37 23 84 50.5t103 60.5q297 162 442 270q291 207 268 404q-8 69 -51 114q-47 43 -108 43q-121 0 -250 -51q-129 -47 -244 -135q-61 -49 -98 -117q-35 -65 -29 -125q6 -53 39 -79q31 -31 78 -31q96 0 268 123q168 119 260 254l-8 8q-45 -59 -108.5 -121.5
t-149.5 -126.5q-170 -121 -246 -121q-39 0 -59 19q-29 18 -31 43q-4 59 137 196q254 248 441 248q94 0 100 -74q10 -65 -92 -198q-49 -66 -120 -138.5t-163 -154.5q-192 -172 -751 -535l10 -14q311 213 471 213q41 0 45 -18q0 -15 -23 -41q-36 -52 -32 -76q4 -35 39 -55
q34 -23 79 -23q117 0 404 227q8 6 16 12.5t17 14.5l-11 10q-284 -241 -424 -241q-34 0 -36 20q0 12 16 35q27 37 25 76q-9 75 -113 75q-62 0 -191 -47z" />
    <glyph glyph-name="three" unicode="3" horiz-adv-x="1257" 
d="M977 655l-2 9q452 127 430 327q-8 76 -66 123q-59 49 -137 49q-108 0 -221 -43t-180 -104q-58 -55 -49 -137q8 -95 104 -95q84 0 182 68q92 63 176 180l-10 8q-51 -82 -114 -127q-152 -108 -220 -108q-32 0 -53 12q-22 14 -24 37q-2 14 22 51q14 21 27.5 38.5t27.5 31.5
q177 170 349 170q43 0 75 -27q33 -24 37 -59q8 -68 -59 -164q-78 -102 -205 -168q-133 -72 -371 -129l6 -14l111 30q88 25 143 25q48 0 82 -25q37 -24 41 -59q11 -84 -164 -246q-317 -291 -555 -291q-202 0 -217 138q-4 41 17 41q4 0 16 -15q27 -30 64 -30q30 0 51 20
q16 25 14 51q-10 72 -86 72q-47 0 -78 -39q-30 -41 -24 -96q10 -84 88 -127q53 -33 168 -33q274 0 518 141q260 152 237 359q-16 123 -151 155z" />
    <glyph glyph-name="four" unicode="4" horiz-adv-x="1036" 
d="M731 315q64 -12 86 -12q135 0 275 78l-7 10q-88 -51 -206 -51q-56 0 -111 14l279 330h-99l-291 -305q-98 33 -221 33q-110 0 -225 -27l-4 6q59 51 115.5 97.5t113.5 86.5q131 95 224.5 163.5t150.5 115.5t139 123t193 180l-189 4q-80 -100 -344 -358q-135 -135 -264 -256
t-258 -234l4 -6q164 84 268 84q113 0 261 -53l-213 -219q-74 -74 -95 -101l170 -6q11 13 23 29t29 37z" />
    <glyph glyph-name="five" unicode="5" horiz-adv-x="1221" 
d="M942 1063q90 -53 207 -53q164 0 303 110l-4 10q-96 -65 -221 -65q-133 0 -242 84l-547 -580l8 -12q105 100 228 166q119 61 219 61q47 0 88 -28q39 -31 43 -74q14 -125 -199 -344q-301 -309 -526 -309q-70 0 -127 34q-53 31 -59 78q-7 49 16 49q6 0 10 -4q39 -36 70 -36
t53 22q21 21 19 55q-2 25 -27 49q-25 19 -57 19q-52 0 -82 -41q-31 -45 -25 -100q6 -68 70 -107q59 -41 155 -41q150 0 314 64q162 57 276 159q94 86 148 189q49 102 41 190q-9 84 -64 140q-49 55 -125 55q-139 0 -301 -98v6z" />
    <glyph glyph-name="six" unicode="6" horiz-adv-x="1122" 
d="M424 477l8 -8q57 68 176 129q115 64 189 64q71 0 82 -66q8 -70 -125 -225q-316 -359 -486 -359q-37 0 -63 25q-29 22 -33 57q-16 150 387 608q180 197 342 314q160 110 273 110q32 0 67 -18q27 -18 31 -41q2 -18 -21 -25q-28 17 -49 17q-33 0 -47 -19q-18 -18 -14 -45
q4 -28 22 -43q23 -16 47 -16q43 0 70 33q27 28 23 75q-13 101 -125 101q-117 0 -338.5 -123t-411.5 -289q-158 -139 -240 -289q-84 -151 -71 -268q18 -176 168 -176q194 0 438 172q221 162 199 381q-17 129 -125 129q-78 0 -189 -61q-53 -29 -99 -66t-85 -78z" />
    <glyph glyph-name="seven" unicode="7" horiz-adv-x="1135" 
d="M1333 1114l-10 8q-80 -73 -117 -98q-41 -25 -76 -25q-47 0 -92 29q-106 78 -125 86q-22 12 -63 12q-129 0 -340 -129l125 127l-10 17l-293 -297l14 -10q82 98 186 157q109 66 187 66q55 0 174 -53q104 -50 156 -50q34 0 106 23l2 -10q-53 -47 -152.5 -129t-246.5 -199
q-363 -285 -668 -621h186q97 154 308 379q209 226 446 434q94 84 170 154t133 129z" />
    <glyph glyph-name="eight" unicode="8" horiz-adv-x="1073" 
d="M807 655q190 33 319 136q123 98 111 213q-6 63 -71.5 104t-161.5 41q-144 0 -259 -82q-161 -113 -145 -270q6 -64 70 -176q-322 -64 -457 -162q-133 -97 -117 -246q8 -98 82 -158q70 -55 180 -55q201 0 375 145q162 138 144 314q-9 82 -70 196zM680 604l5 -9t15 -26
q52 -82 60 -163q16 -173 -115 -285q-119 -107 -285 -107q-100 0 -165 52q-68 51 -76 129q-8 75 47 159q51 80 145 129q160 82 369 121zM801 672h-2q-4 -4 -25 37q-26 39 -33 53q-34 67 -41 115q-10 100 80 178t217 78q88 0 148 -37q55 -33 65 -92q11 -113 -108 -209
q-121 -99 -301 -123z" />
    <glyph glyph-name="nine" unicode="9" horiz-adv-x="1110" 
d="M96 31l-2 -13q56 -20 109 -20q121 0 303 92q174 88 338 223q84 70 152.5 141.5t125.5 145.5q156 211 142 377q-19 156 -154 156q-219 0 -498 -224q-184 -147 -166 -303q9 -71 50 -110q39 -43 94 -43q100 0 268 137q82 67 141.5 125.5t94.5 107.5l-11 6
q-59 -71 -125.5 -133.5t-140.5 -115.5q-151 -111 -223 -111q-37 0 -64 20q-26 19 -28 52q-15 110 260 383q192 190 354 190q39 0 72 -27q29 -26 33 -61q8 -61 -80 -190q-168 -256 -340 -437q-99 -100 -180.5 -172.5t-153.5 -120.5q-141 -92 -266 -92q-35 0 -105 17z" />
    <glyph glyph-name="colon" unicode=":" horiz-adv-x="356" 
d="M131 -8q-22 0 -35.5 15t-13.5 40q0 37 22.5 65.5t53.5 28.5q23 0 37 -16.5t14 -44.5q0 -35 -24 -61.5t-54 -26.5zM348 340q-22 0 -36.5 16t-14.5 41q0 37 23.5 64.5t54.5 27.5q23 0 37 -16t14 -43q0 -35 -24.5 -62.5t-53.5 -27.5z" />
    <glyph glyph-name="semicolon" unicode=";" horiz-adv-x="356" 
d="M139 -53l-219 -246l-3 -3q-32 -36 -48 -36q-2 0 -4 2.5t-2 5.5q0 8 9 23t32 43l166 197q13 16 21.5 32.5t8.5 24.5q0 3 -9 22.5t-9 38.5q0 37 21.5 62.5t50.5 25.5q24 0 39.5 -18t15.5 -47q0 -28 -15 -56t-55 -71zM348 340q-22 0 -36.5 16t-14.5 41q0 37 23.5 64.5
t54.5 27.5q23 0 37 -16t14 -43q0 -35 -24.5 -62.5t-53.5 -27.5z" />
    <glyph glyph-name="less" unicode="&#x3c;" horiz-adv-x="1372" 
d="M1309 985l-1184 -393l-29 -51l738 -394l40 72l-657 346l1049 346z" />
    <glyph glyph-name="equal" unicode="=" horiz-adv-x="1180" 
d="M905 500h-586q-88 0 -143 -17q-47 -16 -47 -45q0 -16 23 -20q10 -2 31.5 -3t54.5 -1h583q101 0 144 14q49 14 49 45q0 14 -23 21q-24 6 -86 6zM1016 696h-588q-92 0 -141 -16q-47 -16 -47 -45q0 -19 20 -21q12 -2 33.5 -3t52.5 -1h586q98 0 143 15q49 14 49 45
q0 10 -22 20q-25 6 -86 6z" />
    <glyph glyph-name="greater" unicode="&#x3e;" horiz-adv-x="1257" 
d="M381 985l-27 -74l725 -346l-975 -346l-26 -72l1102 394l18 51z" />
    <glyph glyph-name="question" unicode="?" horiz-adv-x="1167" 
d="M145 43q27 0 56 25q22 28 22 61q0 31 -14 45q-16 16 -39 16q-29 0 -51 -28q-25 -31 -25 -66q0 -22 17 -39q12 -14 34 -14zM866 1221q-47 -134 -127 -220q-84 -86 -151 -86q-39 0 -64 27q-22 29 -22 66q0 116 127 237t256 121q65 0 106 -41q45 -37 45 -90q0 -86 -47 -174
q-26 -45 -60 -88t-79 -84q-16 -15 -49 -42.5t-84 -68.5q-47 -35 -85 -65.5t-65 -57.5q-106 -102 -161 -176q-62 -84 -62 -117l2 -2l4 -4q2 0 80 97q76 94 184 178q29 20 74 50t109 69q57 34 99 65t71 53q67 62 108 144q37 82 37 164q0 104 -55 163q-60 60 -160 60
q-86 0 -168 -43q-41 -21 -79 -48.5t-72 -66.5q-52 -57 -82 -119q-29 -67 -29 -114q0 -64 37 -101q39 -39 96 -39q107 0 193 93q86 94 86 204q0 6 -5 23q0 -2 -8 33z" />
    <glyph glyph-name="at" unicode="@" horiz-adv-x="2230" 
d="M1124 393q-43 -104 -14 -164q27 -55 123 -55q61 0 141 29q74 26 160 82q149 98 266 235q123 148 189 295q137 309 12 498q-125 186 -469 186q-180 0 -365 -55q-182 -60 -362 -166q-225 -139 -387 -313t-252 -377q-84 -197 -80 -357q6 -163 107 -272q77 -92 210 -139
q129 -45 322 -45q174 0 365 55q186 53 380 164l-12 26q-92 -49 -180 -86.5t-180 -64.5q-189 -53 -355 -53q-168 0 -297 53q-127 53 -198 151q-76 107 -76 234q0 123 78 301q88 203 237 381q148 174 338 301q172 111 344 166q172 57 355 57q317 0 438 -176q117 -176 -12 -467
q-64 -143 -174 -274q-113 -131 -248 -221q-35 -23 -73 -43.5t-77 -36.5q-75 -29 -121 -29q-49 0 -63 31q-14 24 8 80q8 18 24.5 43.5t39.5 58.5l6 6l434 604h-123l-137 -182q18 96 -14 147q-35 54 -117 54q-72 0 -166 -37q-90 -35 -186 -103q-64 -43 -120.5 -91t-103.5 -101
q-94 -107 -141 -213q-66 -154 -33 -242q31 -92 148 -92q98 0 202 55q103 54 209 162zM1296 1022q74 0 103 -68q24 -63 -17 -161q-20 -45 -49.5 -95.5t-70.5 -103.5q-80 -107 -181 -199q-102 -90 -184 -135t-149 -45q-78 0 -95 59q-18 58 25 156q43 96 141 223
q49 64 104.5 122.5t114.5 113.5q76 67 140 100q59 33 118 33z" />
    <glyph glyph-name="A" unicode="A" horiz-adv-x="1763" 
d="M1917 1198q17 -21 31.5 -45.5t27.5 -54.5q76 93 164 184t88 100q0 3 -2.5 4.5t-9.5 2.5q-28 0 -108 -51t-191 -140zM1567 336q171 45 293 215t122 350q0 20 -2.5 41t-7.5 43q-121 -183 -251.5 -400.5t-153.5 -248.5zM1421 690q21 -53 31 -105.5t10 -103.5q0 -32 -6.5 -73
t-21.5 -103l29 47q306 484 487 715q-8 26 -22.5 50t-39.5 54q-176 -168 -422 -433zM1075 373q37 32 107.5 107t193.5 214q-33 61 -81.5 92t-110.5 31q-95 0 -161.5 -68.5t-66.5 -166.5q0 -65 30 -117.5t89 -91.5zM1106 354q50 -30 105 -45.5t114 -15.5q15 0 38.5 2.5
t31.5 3.5q16 44 24 89t8 93t-8.5 92t-25.5 86q-78 -87 -240 -256zM1079 328q-184 -181 -331.5 -263.5t-284.5 -82.5q-172 0 -279.5 116t-107.5 303q0 224 145 387.5t336 163.5q122 0 200.5 -74.5t78.5 -189.5q0 -70 -32.5 -149t-88.5 -144q-50 -59 -115.5 -93t-128.5 -34
q-87 0 -139.5 54t-52.5 143q0 116 85 203t207 92q-110 -56 -168.5 -134.5t-58.5 -168.5q0 -69 38 -110.5t101 -41.5q110 0 214 123t104 254q0 106 -68.5 172t-177.5 66q-176 0 -310 -153.5t-134 -360.5q0 -175 95.5 -285.5t246.5 -110.5q135 0 285.5 85.5t310.5 252.5
q-70 52 -108 122t-38 148q0 109 72.5 179.5t181.5 70.5q73 0 135.5 -37.5t108.5 -109.5q15 15 173.5 182t291.5 295q-66 69 -171.5 107t-230.5 38q-123 0 -238.5 -41t-228.5 -126q-37 -28 -78 -67.5t-55 -39.5q-1 0 -3.5 2.5t-2.5 3.5q0 18 29 48.5t94 80.5
q111 85 232 127.5t251 42.5t237.5 -38t190.5 -113q136 108 256 175.5t164 67.5q10 0 17.5 -4.5t7.5 -9.5q0 -10 -117 -146t-215 -280q5 -34 7.5 -59t2.5 -47q0 -223 -137 -402t-342 -223q-95 -127 -188.5 -218t-116.5 -91q-3 0 -4.5 2.5t-1.5 7.5q0 4 18 25q96 113 139 243
q-10 -1 -20.5 -1.5t-30.5 -0.5q-73 0 -137 16.5t-115 49.5z" />
    <glyph glyph-name="B" unicode="B" horiz-adv-x="1681" 
d="M1014 27q-43 -11 -84 -16t-82 -5q-39 0 -84.5 6t-106.5 19q-112 -20 -194.5 -28.5t-149.5 -8.5q-121 0 -187.5 26t-66.5 74q0 40 49.5 62t141.5 22q77 0 188.5 -22.5t270.5 -69.5q48 15 101.5 38.5t115.5 57.5v23q0 92 56.5 157.5t129.5 65.5q14 0 21 -0.5t14 -1.5
q34 53 100 157q328 522 565 707q-76 86 -201.5 133t-279.5 47q-205 0 -414 -87t-382 -246q-134 -122 -205.5 -253.5t-71.5 -254.5q0 -126 73.5 -203.5t190.5 -77.5q104 0 231 76.5t257 218.5q105 114 168 227.5t63 184.5q0 56 -30 84t-89 28q-99 0 -223 -88.5t-227 -236.5
q-31 -45 -59 -99.5t-38 -54.5q-5 0 -8.5 4.5t-3.5 12.5q0 19 46 95.5t112 153.5q95 114 205.5 179t203.5 65q77 0 118.5 -44.5t41.5 -127.5q0 -103 -52 -211.5t-151 -208.5q-126 -130 -279.5 -209.5t-272.5 -79.5q-138 0 -224 85t-86 221q0 148 95.5 306.5t267.5 293.5
q169 133 361 203.5t384 70.5q160 0 288.5 -47t219.5 -137q116 79 217.5 116t200.5 37q124 0 201 -57.5t77 -148.5q0 -101 -106 -181t-219 -80q-8 0 -14.5 3.5t-6.5 7.5q0 12 49.5 23.5t86.5 25.5q84 33 129 87t45 122q0 73 -69.5 120.5t-180.5 47.5q-95 0 -190.5 -37
t-194.5 -111q39 -56 58.5 -112t19.5 -113q0 -142 -76.5 -250t-216.5 -166q14 -27 20 -55.5t6 -71.5q0 -91 -47.5 -189.5t-130.5 -178.5q-78 -74 -169 -116t-171 -42q-40 0 -76 8t-69 25zM1223 385q16 -21 24 -44.5t8 -49.5q0 -67 -49 -129t-145 -115q33 -13 53 -17.5
t39 -4.5q72 0 152.5 57t167.5 170q72 96 111.5 179t39.5 140q0 15 -3 29.5t-9 30.5q-24 -8 -46.5 -12.5t-41.5 -4.5q-37 0 -59.5 17t-22.5 43q0 24 20 40.5t49 16.5q34 0 64.5 -13.5t56.5 -39.5q107 65 178.5 190t71.5 244q0 49 -11.5 84t-37.5 66q-117 -93 -309.5 -410
t-300.5 -467zM578 53q-41 11 -116 31q-191 53 -265 53q-46 0 -71.5 -12.5t-25.5 -34.5q0 -31 55.5 -48t153.5 -17q60 0 127 7t142 21zM775 70q38 -10 71.5 -14.5t60.5 -4.5q15 0 32 1.5t37 4.5q-13 16 -23 35t-17 43q-29 -14 -65 -29t-96 -36zM958 203q55 45 97 93.5
t69 96.5h-4q-65 0 -113.5 -50t-48.5 -116v-24zM1014 70q94 33 150.5 94.5t56.5 130.5q-1 19 -5.5 33.5t-15.5 29.5q-47 -55 -105.5 -105.5t-127.5 -96.5q4 -26 15.5 -47t31.5 -39zM1591 657q-20 21 -40.5 31t-41.5 10q-13 0 -21.5 -6.5t-8.5 -15.5q0 -13 14 -22t35 -9
q15 0 30.5 3t32.5 9z" />
    <glyph glyph-name="C" unicode="C" horiz-adv-x="1284" 
d="M1186 872q48 41 76 80.5t28 65.5q0 20 -13 33.5t-34 13.5q-37 0 -68.5 -37t-31.5 -80q0 -23 10.5 -41.5t32.5 -34.5zM596 653q161 15 302.5 65t254.5 132q-25 19 -36 40t-11 50q0 62 46.5 111t100.5 49q35 0 56.5 -21.5t21.5 -56.5t-27.5 -76.5t-82.5 -91.5
q14 -5 29 -7.5t34 -2.5q77 0 162.5 34t159.5 95q94 75 150 167.5t56 168.5q0 72 -45 112.5t-127 40.5q-186 0 -480 -222.5t-564 -586.5zM455 629q-103 23 -157 95.5t-54 186.5q0 195 168 356t407 189q-230 -114 -375 -282t-145 -310q0 -83 46 -137.5t126 -64.5
q86 132 187 246.5t221 215.5q207 175 407.5 271t353.5 96q95 0 151 -47.5t56 -126.5q0 -85 -49 -176t-139 -170q-85 -75 -187.5 -117.5t-195.5 -42.5q-23 0 -46 4.5t-44 13.5q-145 -96 -301 -149.5t-314 -61.5q-73 -115 -110 -211.5t-37 -168.5q0 -103 64 -162.5t174 -59.5
q112 0 233 58t233 166q81 77 124.5 153t43.5 137q0 49 -24 75t-70 26q-113 0 -253 -141.5t-232 -360.5v25q0 203 145 357.5t328 154.5q65 0 103 -35t38 -94q0 -71 -46 -154t-132 -166q-119 -114 -245 -174.5t-244 -60.5q-148 0 -229 83t-81 236q0 80 25 161.5t76 166.5z" />
    <glyph glyph-name="D" unicode="D" horiz-adv-x="1839" 
d="M739 49q-205 60 -283 76t-128 16q-49 0 -72 -10.5t-23 -34.5q0 -35 74 -58.5t193 -23.5q63 0 123 9t116 26zM911 61q47 -16 98 -24t113 -8q170 0 303 55.5t258 179.5q140 140 221 317.5t81 344.5q0 78 -19.5 146.5t-58.5 131.5q-129 -141 -256 -380.5t-162 -291.5
q-115 -166 -258 -282.5t-320 -188.5zM815 31q-94 -24 -177 -35.5t-155 -11.5q-132 0 -213.5 33t-81.5 85q0 42 53 68.5t140 26.5q82 0 179 -22.5t288 -92.5q150 52 284.5 177.5t278.5 350.5q26 40 75 121q218 356 400 500q-74 113 -203.5 172t-302.5 59q-170 0 -330.5 -68.5
t-308.5 -203.5q-150 -139 -232.5 -288.5t-82.5 -283.5q0 -127 66.5 -196.5t189.5 -69.5q106 0 230.5 61t246.5 173q107 98 165 203.5t58 199.5q0 57 -30.5 91t-81.5 34q-94 0 -216 -84t-237 -231q-67 -86 -104.5 -159.5t-46.5 -137.5q-2 15 -3 29.5t-1 27.5q0 87 48 186.5
t138 196.5q88 94 194 148.5t201 54.5q84 0 129 -44.5t45 -127.5q0 -84 -51 -182.5t-143 -192.5q-128 -131 -272 -206t-263 -75q-146 0 -236 93.5t-90 246.5q0 165 78.5 311t231.5 267q151 120 339 189t361 69q178 0 316 -61.5t225 -180.5q108 81 214 121.5t210 40.5
q123 0 191.5 -54t68.5 -151q0 -110 -95.5 -193t-191.5 -83q-12 0 -17 2t-5 6q0 12 38.5 22.5t65.5 22.5q83 39 128.5 98.5t45.5 126.5q0 84 -63 129t-179 45q-92 0 -196.5 -42.5t-192.5 -116.5q40 -64 60 -139.5t20 -163.5q0 -164 -72 -335t-202 -313q-128 -139 -283 -208.5
t-340 -69.5q-77 0 -153 8.5t-150 26.5z" />
    <glyph glyph-name="E" unicode="E" horiz-adv-x="1305" 
d="M909 815q26 -27 51.5 -40t53.5 -13q14 0 27.5 10.5t13.5 22.5q0 16 -18.5 26t-49.5 10q-16 0 -35 -4t-43 -12zM1653 1300q-170 -12 -305.5 -119t-135.5 -210q0 -42 25.5 -68t67.5 -26q123 0 237.5 122t114.5 263q0 7 -3 28q-1 7 -1 10zM741 37q218 60 372.5 204
t154.5 261q0 47 -27 73.5t-74 26.5q-63 0 -145 -53.5t-158 -145.5q-63 -76 -97 -154.5t-34 -148.5q0 -17 2 -32.5t6 -30.5zM715 -4q-37 -8 -63 -11t-48 -3q-143 0 -226 81.5t-83 221.5q0 79 31.5 157t93.5 152q-71 46 -110.5 124.5t-39.5 174.5q0 132 80 257t217 208
q58 35 111.5 57.5t75.5 22.5q8 -1 9 -1.5t1 -2.5q0 -12 -51 -40t-80 -48q-131 -91 -211 -230t-80 -274q0 -77 27 -134.5t77 -86.5q92 78 185.5 132t193.5 87q-14 27 -21 57t-7 64q0 74 40.5 156t114.5 157q101 102 232.5 163.5t245.5 61.5q98 0 165.5 -42t92.5 -120
q114 -9 178.5 -65.5t64.5 -147.5q0 -73 -40.5 -144.5t-114.5 -129.5q-48 -38 -91.5 -61t-62.5 -23h-10q-2 0 -3 1t-1 5q0 12 37.5 31t62.5 37q92 65 139 137.5t47 148.5q0 77 -53.5 122.5t-148.5 49.5v-38q0 -155 -124 -284.5t-270 -129.5q-58 0 -95.5 42t-37.5 109
q0 133 135.5 236.5t315.5 103.5h31q-13 56 -61 88.5t-120 32.5q-85 0 -192 -58t-217 -165q-92 -90 -143.5 -177t-51.5 -149q0 -12 2.5 -25.5t7.5 -28.5q29 5 56 8t51 3q55 0 84 -18.5t29 -54.5q0 -24 -24.5 -43t-57.5 -19q-39 0 -76.5 16.5t-73.5 49.5q-62 -24 -137.5 -77.5
t-156.5 -131.5q23 -3 50.5 -4.5t57.5 -1.5q15 0 32 1t19 1q11 0 18 -5t7 -12t-26.5 -12.5t-68.5 -5.5q-31 0 -60 2.5t-58 7.5q-86 -89 -130.5 -175t-44.5 -165q0 -96 62 -150.5t172 -54.5q24 0 50.5 3t55.5 10q-8 25 -12 52.5t-4 59.5q0 199 140 352.5t317 153.5
q72 0 114.5 -38t42.5 -103q0 -133 -158.5 -283t-387.5 -217q23 -59 71.5 -89t120.5 -30q62 0 128 26q19 7 24 7t9.5 -2.5t4.5 -5.5q0 -17 -49.5 -37t-108.5 -20q-84 0 -146.5 37t-92.5 106z" />
    <glyph glyph-name="F" unicode="F" horiz-adv-x="1421" 
d="M1446 627q-167 -311 -389.5 -478t-466.5 -167q-199 0 -329 112t-130 279q0 97 42 184t124 160q82 71 180 108t203 37q130 0 209.5 -66.5t79.5 -174.5q0 -86 -43.5 -169.5t-124.5 -154.5q-61 -53 -124.5 -81t-125.5 -28q-73 0 -117.5 43.5t-44.5 116.5q0 115 115.5 219.5
t210.5 104.5q9 0 13.5 -2t4.5 -6q0 -10 -31 -20t-53 -19q-101 -44 -164 -123t-63 -158q0 -50 29 -81.5t75 -31.5q56 0 116.5 35.5t121.5 104.5q69 77 106 151.5t37 132.5q0 83 -62 131t-169 48q-202 0 -357 -140t-155 -317q0 -155 119 -259t297 -104q214 0 382 132.5
t324 426.5q-210 -87 -313 -255q-16 -25 -21 -25q-6 0 -8 3.5t-2 12.5q0 63 105.5 157.5t263.5 158.5q171 284 344.5 481t230.5 197q3 0 4.5 -2t1.5 -5q0 -7 -40 -53q-216 -247 -382 -575q41 10 60.5 15t34.5 9q43 73 89.5 109.5t96.5 36.5q26 0 41.5 -15.5t15.5 -40.5
q0 -34 -39.5 -59.5t-130.5 -48.5q-44 -82 -75 -114t-64 -32q-9 0 -13.5 3.5t-4.5 11.5q0 10 14.5 38t40.5 68q-35 -7 -54 -12t-36 -10zM1419 1368q-186 -82 -293.5 -196t-107.5 -226q0 -53 29 -87t75 -34q115 0 225.5 127t110.5 273q0 42 -9.5 77.5t-29.5 65.5zM1454 1380
q19 -37 28 -75t9 -78q0 -87 -38 -170.5t-110 -153.5q-55 -54 -113.5 -84.5t-107.5 -30.5q-62 0 -100.5 43t-38.5 113q0 122 112 242.5t306 204.5q-47 37 -102.5 56t-118.5 19q-128 0 -247.5 -55.5t-215.5 -159.5q-23 -24 -52 -63t-40 -39q-3 0 -4.5 3t-2.5 11q0 17 26.5 52
t76.5 85q91 93 209.5 145t236.5 52q79 0 147 -23t120 -67q110 41 214.5 60.5t215.5 19.5q143 0 324.5 -31t213.5 -31q8 0 21.5 1t19.5 1q12 0 18.5 -2.5t6.5 -5.5q0 -21 -51.5 -33t-143.5 -12q-70 0 -240 25.5t-268 25.5q-108 0 -183.5 -11t-127.5 -34zM1653 713
q65 18 90.5 33.5t25.5 35.5q0 9 -5 12.5t-17 4.5q-19 0 -44.5 -23.5t-49.5 -62.5z" />
    <glyph glyph-name="G" unicode="G" horiz-adv-x="1282" 
d="M1870 1270q-19 6 -37 9t-37 3q-75 0 -153.5 -32t-161.5 -97q-76 -58 -116 -119.5t-40 -120.5q0 -36 24 -61t60 -25q120 0 269.5 137.5t191.5 305.5zM836 717q83 37 179.5 101t201.5 153q32 27 94 81q299 259 481 259q14 0 31 -2.5t53 -9.5v26q0 65 -41 100t-117 35
q-108 0 -254.5 -86.5t-318.5 -253.5q-97 -92 -172.5 -190t-136.5 -213zM1260 559q-107 -73 -199.5 -111t-161.5 -38q-85 0 -136.5 51.5t-51.5 136.5v20v4q2 10 2 17q-30 -6 -56.5 -9t-52.5 -3q-120 0 -196 75t-76 193q0 79 39 158t110 145q76 70 168 110t176 40q23 0 75 -8
q3 0 5 -1q-222 -58 -370 -195t-148 -276q0 -93 59 -151t154 -58q26 0 54.5 4t64.5 13q22 100 89.5 205.5t178.5 214.5q187 181 384.5 287t342.5 106q98 0 148.5 -42.5t50.5 -125.5q0 -3 -1 -14t-1 -19q51 -18 76.5 -55.5t25.5 -93.5q0 -70 -39 -136.5t-112 -123.5
q-37 -29 -72.5 -48.5t-44.5 -19.5q-4 0 -8 3.5t-4 6.5q0 11 35 33q24 16 38 27q84 61 127 126t43 130q0 42 -16 68t-55 48q-52 -179 -209.5 -319.5t-280.5 -140.5q-59 0 -93 30.5t-34 83.5q0 22 6 46.5t21 58.5q-126 -116 -250.5 -201.5t-253.5 -144.5q-15 -30 -22 -55.5
t-7 -49.5q0 -56 32.5 -87.5t90.5 -31.5q63 0 158.5 45.5t263.5 157.5l6 4q114 80 144 80q1 0 2.5 -1t1.5 -3q0 -5 -58 -64.5t-102 -132.5q-12 -20 -36 -61q-117 -202 -195 -283q-96 -97 -230 -152t-276 -55q-181 0 -291.5 85t-110.5 221q0 112 80.5 188t198.5 76
q87 0 146 -47.5t59 -118.5q0 -84 -70.5 -147.5t-163.5 -63.5q-19 0 -39 3.5t-40 10.5q110 23 181.5 85.5t71.5 131.5q0 53 -39.5 84t-105.5 31q-99 0 -171.5 -69.5t-72.5 -165.5q0 -115 96 -191t244 -76q177 0 342.5 128t360.5 417z" />
    <glyph glyph-name="H" unicode="H" horiz-adv-x="1796" 
d="M1815 745q-174 -212 -283 -396.5t-109 -254.5q0 -35 17 -52t51 -17q52 0 131 52t186 159q47 45 95 99t55 54q6 0 9 -3t3 -9q0 -14 -36 -55t-126 -129q-113 -110 -192 -157.5t-146 -47.5q-52 0 -85 36.5t-33 94.5q0 90 73.5 238t212.5 335q-17 -5 -37 -10t-47 -11
q-33 -54 -64 -85t-52 -31q-9 0 -15 5.5t-6 12.5q0 12 24 47q12 18 19 29q-23 -5 -55 -11.5t-41 -8.5q-194 -325 -407 -486t-449 -161q-186 0 -301 96t-115 250q0 187 144.5 316.5t353.5 129.5q131 0 217 -51.5t104 -140.5l62 12q198 39 274 51q103 160 211.5 279.5
t229.5 208.5q-36 -12 -64 -17.5t-53 -5.5q-66 0 -136.5 26t-152.5 81q-18 11 -52 35q-182 126 -298 126q-102 0 -172 -68t-70 -167q0 -86 52.5 -148t142.5 -82q21 -4 63.5 -7t42.5 -15q0 -5 -10.5 -8.5t-28.5 -3.5q-127 0 -211 74.5t-84 187.5q0 124 92 203t238 79
q70 0 139 -22.5t160 -77.5q27 -16 77 -48q170 -110 261 -110q71 0 160 41q26 13 33 13q10 -1 14 -3t4 -6t-32 -34q-216 -199 -412 -506q12 2 33 5q41 7 59 11q45 69 68.5 90t47.5 21q8 0 12.5 -4t4.5 -9q0 -16 -25 -52q-10 -14 -16 -23q33 7 90 25l4 1q303 353 546 548.5
t378 195.5q42 0 62 -18.5t20 -57.5q0 -72 -98.5 -183t-270.5 -231q-122 -85 -243.5 -145t-247.5 -99zM1224 608l-17 -3q-202 -37 -292 -56q-11 -133 -114.5 -228.5t-227.5 -95.5q-48 0 -78 25.5t-30 66.5q0 82 100.5 147t292.5 105v9q0 67 -55 105t-154 38q-84 0 -178 -31
t-170 -84q-83 -59 -126.5 -134t-43.5 -157q0 -131 101 -216t260 -85q202 0 374 138.5t358 455.5zM852 536q-162 -31 -256 -90t-94 -127q0 -23 17 -39t42 -16q44 0 99.5 32.5t109.5 90.5q37 40 56.5 76t25.5 73zM1855 795q326 127 555.5 314t229.5 288q0 28 -12.5 40.5
t-40.5 12.5q-69 0 -269 -178t-463 -477z" />
    <glyph glyph-name="I" unicode="I" horiz-adv-x="1343" 
d="M1624 1161q64 75 145.5 143.5t182.5 133.5q-130 -19 -239 -68t-197 -129q29 -14 55.5 -34t52.5 -46zM1257 637q90 148 174.5 271t167.5 225q-24 25 -52 45.5t-62 38.5q-142 -109 -222.5 -232.5t-80.5 -226.5q0 -44 19 -74t56 -47zM1360 610q140 6 229.5 101.5t89.5 234.5
q0 33 -6.5 61.5t-19.5 55.5q-47 -62 -124.5 -181.5t-168.5 -271.5zM1335 569q-170 -303 -361 -446t-427 -143q-181 0 -287 92t-106 247q0 187 153.5 329.5t356.5 142.5q129 0 207.5 -65.5t78.5 -172.5q0 -134 -107 -242t-235 -108q-70 0 -112.5 39t-42.5 104q0 52 29 102
t83 91q42 31 86 51t66 20q10 0 15 -2t5 -6q0 -11 -35 -24q-31 -12 -51 -23q-79 -43 -122.5 -98.5t-43.5 -114.5q0 -46 27.5 -73t75.5 -27q42 0 87.5 24.5t92.5 73.5q63 64 95 126.5t32 121.5q0 71 -62 119.5t-155 48.5q-199 0 -344.5 -129t-145.5 -301q0 -137 92.5 -223.5
t237.5 -86.5q216 0 369 119.5t350 466.5q-61 35 -90 85.5t-29 121.5q0 112 69.5 230t188.5 204q-10 1 -21.5 1.5t-31.5 0.5q-112 0 -211 -64t-156 -173q-26 -51 -39 -114t-26 -63q-8 1 -11 6.5t-3 18.5q0 161 136.5 292.5t323.5 131.5q13 0 40.5 -2.5t39.5 -3.5
q139 93 298 146t300 53q17 0 26 -5.5t9 -15.5q0 -4 -31 -24q-197 -125 -342 -328q19 -39 28 -79.5t9 -82.5q0 -153 -107 -258t-272 -111z" />
    <glyph glyph-name="J" unicode="J" horiz-adv-x="1464" 
d="M838 -352q-146 -132 -277.5 -196t-255.5 -64q-127 0 -206 69t-79 181q0 70 39 140t119 144q-29 53 -43 104t-14 101q0 239 221.5 402t552.5 163q15 0 26 -5.5t11 -12.5q0 -10 -70.5 -12.5t-128.5 -12.5q-258 -45 -416.5 -187.5t-158.5 -324.5q0 -47 12 -93.5t37 -96.5
q176 136 387.5 210t423.5 74q44 0 63.5 -0.5t34.5 -1.5q24 45 91 179t114 215q-54 20 -85.5 75.5t-31.5 132.5q0 152 113.5 287.5t327.5 239.5q-45 19 -93.5 29t-101.5 10q-146 0 -287.5 -74.5t-249.5 -208.5q-54 -67 -97.5 -142t-55.5 -75q-4 0 -6 2.5t-2 7.5q0 23 30.5 78
t79.5 119q128 163 274.5 243t315.5 80q69 0 128.5 -12.5t109.5 -38.5q127 47 244 74t180 27q16 0 26 -6t10 -15q0 -4 -105 -84.5t-202 -187.5q9 -32 13 -60t4 -55q0 -87 -33.5 -168t-100.5 -153q-63 -72 -135.5 -110t-142.5 -38q-4 0 -12.5 1t-12.5 1q-49 -85 -99 -184
t-99 -209q88 -29 133 -77t45 -114q0 -127 -157.5 -232.5t-407.5 -137.5zM1747 1329q22 -22 39 -44t31 -46q53 48 112.5 93t152.5 107q-80 -7 -161 -33.5t-174 -76.5zM1448 639q135 3 256 138.5t121 279.5q0 18 -3.5 40t-11.5 56q-88 -98 -172 -216t-190 -298zM1346 659
q91 155 202 293.5t240 259.5q-14 24 -32 47.5t-42 49.5q-213 -124 -331.5 -263.5t-118.5 -265.5q0 -45 19.5 -73.5t62.5 -47.5zM766 -350h-61q-150 0 -290 66.5t-218 174.5q-70 -63 -105 -126t-35 -125q0 -96 71 -157t183 -61q113 0 232 59.5t223 168.5zM225 -82
q78 -110 211 -173.5t287 -63.5h45t29 2q69 80 143.5 204.5t161.5 305.5q-8 0 -27 2q-51 4 -78 4q-195 0 -399.5 -74.5t-372.5 -206.5zM883 -307q194 21 326 119.5t132 210.5q0 55 -37 95.5t-102 53.5q-78 -145 -157.5 -264.5t-161.5 -214.5z" />
    <glyph glyph-name="K" unicode="K" horiz-adv-x="1860" 
d="M1499 696q-17 23 -33 33t-32 10q-17 0 -28 -9.5t-11 -24.5q0 -14 11 -23.5t28 -9.5q13 0 28.5 6t36.5 18zM1514 669q-27 -14 -47 -21t-35 -7q-31 0 -50.5 18t-19.5 46t24 47.5t60 19.5q24 0 47 -11.5t47 -35.5q58 27 127.5 92t196.5 215q223 264 353 351t265 87
q140 0 229 -84t89 -215q0 -130 -93 -222.5t-223 -92.5q-99 0 -166 58.5t-67 142.5q0 72 50.5 121t127.5 49q13 0 27 -2.5t32 -7.5q-91 -14 -138.5 -58.5t-47.5 -116.5q0 -66 48.5 -110.5t123.5 -44.5q110 0 197.5 95.5t87.5 211.5q0 107 -78 177.5t-197 70.5
q-106 0 -209.5 -66t-271.5 -254q-19 -20 -55 -61q-257 -288 -389 -363q16 -27 24 -56t8 -62q0 -90 -66.5 -248t-66.5 -209q0 -46 25 -71t71 -25q54 0 135.5 56t202.5 177q36 36 77.5 82.5t49.5 46.5q6 0 9 -2.5t4 -7.5q0 -15 -38.5 -59t-123.5 -127q-104 -103 -184.5 -152
t-143.5 -49q-69 0 -110 47t-41 127q0 41 17 103.5t65 185.5q3 9 11 27q40 96 40 136q0 12 -2.5 24.5t-7.5 26.5zM1589 1167q-25 -9 -47 -13.5t-43 -4.5q-62 0 -126 28.5t-134 88.5q-14 12 -43 37q-179 157 -315 157q-112 0 -191.5 -76.5t-79.5 -183.5q0 -124 103 -196
t282 -72q24 0 75 4h5q-42 -23 -84 -34t-86 -11q-143 0 -234 84.5t-91 214.5q0 141 98.5 228t259.5 87q89 0 167.5 -31.5t178.5 -111.5q19 -15 54 -43q137 -113 212 -113q69 0 149 64.5t87 64.5q4 0 6 -1.5t2 -4.5q0 -7 -87 -102t-167 -213q-75 -112 -198 -330.5t-189 -306.5
q-147 -200 -299 -297.5t-315 -97.5q-166 0 -270.5 105.5t-104.5 272.5q0 181 130.5 307t319.5 126q120 0 188 -60.5t68 -165.5q0 -129 -115.5 -236.5t-252.5 -107.5q-66 0 -106 36t-40 95q0 95 103.5 183t193.5 88q8 -1 13.5 -4.5t5.5 -6.5q0 -10 -42 -23t-65 -24
q-77 -35 -126.5 -95t-49.5 -114q0 -43 27 -66.5t76 -23.5q47 0 97.5 29t102.5 86q57 61 87 121t30 112q0 68 -52.5 108t-144.5 40q-172 0 -292.5 -117t-120.5 -285q0 -154 91.5 -249t239.5 -95q150 0 283 101t264 315q25 41 75 126q242 407 437 607z" />
    <glyph glyph-name="L" unicode="L" horiz-adv-x="1872" 
d="M1376 512q165 39 319.5 121t286.5 201q-24 25 -35.5 53.5t-11.5 62.5q0 78 52 139.5t116 61.5q37 0 60.5 -23t23.5 -57q0 -47 -35.5 -103t-115.5 -132q23 -10 40.5 -14.5t32.5 -4.5q118 0 231.5 119t113.5 250q0 79 -51.5 127.5t-133.5 48.5q-110 0 -222 -55t-222 -164
q17 -31 25 -58t8 -55q0 -90 -73 -173t-126 -83q-2 0 -3 1.5t-1 2.5t83 78t83 170q0 21 -5.5 41.5t-17.5 44.5q-110 -114 -246.5 -330.5t-175.5 -269.5zM2007 856q67 57 105 112t38 93q0 29 -15 45t-42 16q-43 0 -83 -51.5t-40 -114.5q0 -29 9 -53.5t28 -46.5zM1464 1257
q-239 -13 -422.5 -138.5t-183.5 -250.5q0 -55 34 -85.5t95 -30.5q87 0 200 75t195 191q40 57 60.5 116t21.5 123zM1237 487q15 24 46 70q276 423 466 614q-43 43 -105.5 65t-146.5 23q0 -73 -26 -144.5t-76 -137.5q-91 -116 -205.5 -187t-204.5 -71q-76 0 -119 38.5
t-43 106.5q0 142 188 273t451 153q-11 74 -77.5 120t-163.5 46q-96 0 -211 -54t-232 -155q-126 -110 -191 -222t-65 -222q0 -166 121 -252t354 -86q70 0 128.5 5.5t111.5 16.5zM747 55q-9 3 -27 8q-323 93 -421 93q-58 0 -89.5 -14t-31.5 -40q0 -42 72.5 -65t208.5 -23
q69 0 140.5 10.5t147.5 30.5zM813 37q-88 -26 -176.5 -38.5t-181.5 -12.5q-158 0 -237 29.5t-79 88.5q0 43 44.5 67t123.5 24q67 0 180 -20t363 -79q96 47 184 134t176 222q-62 -9 -117.5 -13.5t-105.5 -4.5q-254 0 -390 106.5t-136 305.5q0 115 53 222.5t156 201.5
q113 103 252.5 162t267.5 59q126 0 206.5 -53.5t94.5 -144.5q92 -2 165.5 -26.5t117.5 -68.5q139 101 257.5 149t229.5 48q109 0 172.5 -63.5t63.5 -174.5q0 -137 -122.5 -255t-269.5 -118q-24 0 -48 6.5t-52 20.5q-144 -126 -305.5 -210t-347.5 -130q-94 -129 -203.5 -226
t-239.5 -165q105 -25 206.5 -37t199.5 -12q176 0 321 56.5t271 174.5q40 37 79 82t46 45q6 0 9 -3t3 -9q0 -16 -48.5 -71t-117.5 -113q-129 -109 -284.5 -161t-346.5 -52q-125 0 -393 49q-27 5 -41 8z" />
    <glyph glyph-name="M" unicode="M" horiz-adv-x="1778" 
d="M1133 225q105 104 260 324q16 23 24 35q-5 0 -15 -1t-16 -1q-5 0 -14 1t-14 1q-34 -58 -111 -177t-114 -182zM2089 930q11 16 15.5 30.5t4.5 28.5q0 19 -11 33t-25 14q-11 0 -19 -12t-8 -29q0 -18 11.5 -36t31.5 -29zM1712 657q121 34 215.5 98.5t143.5 145.5
q-29 17 -44.5 40.5t-15.5 51.5q0 33 19.5 55.5t46.5 22.5q28 0 45.5 -22.5t17.5 -59.5q0 -16 -5 -33t-15 -36q2 0 7 -1t7 -1q32 0 71.5 17t80.5 48q95 75 160 180t65 178q0 46 -21.5 71.5t-58.5 25.5q-95 0 -263.5 -182.5t-455.5 -598.5zM1481 617q30 1 55.5 4.5t48.5 9.5
q161 241 325.5 427t340.5 328q-197 -109 -372.5 -281t-397.5 -488zM1156 667q27 -12 57.5 -20.5t66.5 -13.5q74 155 336 579l37 60q-222 -220 -469 -564q-20 -28 -28 -41zM1133 639q-251 -350 -436 -503.5t-351 -153.5q-111 0 -182.5 77.5t-71.5 200.5q0 84 34 164t99 149
q77 81 179.5 131t189.5 50q100 0 157.5 -52.5t57.5 -144.5q0 -131 -107.5 -249t-228.5 -118q-61 0 -98 33.5t-37 85.5q0 79 75 152.5t128 73.5q6 -1 11 -3.5t5 -5.5q0 -8 -31 -23t-49 -28q-50 -35 -78 -77t-28 -83q0 -45 28 -70.5t78 -25.5q102 0 200.5 108.5t98.5 227.5
q0 72 -41.5 114t-111.5 42q-58 0 -122.5 -27.5t-135.5 -81.5q-109 -84 -168.5 -181t-59.5 -192q0 -94 59.5 -154.5t151.5 -60.5q153 0 333.5 152t422.5 487q-133 66 -201.5 169t-68.5 237q0 174 134.5 299t329.5 125h9q-195 -58 -303.5 -184t-108.5 -291q0 -106 57.5 -189
t169.5 -139q245 330 436.5 540t241.5 210q3 -1 4.5 -2t1.5 -3q0 -7 -48 -90t-89 -161q-39 -77 -107 -216q-123 -250 -182 -342h33h12h15q269 389 540.5 623t436.5 234q60 0 93.5 -36t33.5 -102q0 -64 -49 -153t-130 -168q-63 -62 -126 -95.5t-115 -33.5h-10h-11
q-74 -100 -173.5 -164t-246.5 -107q-118 -187 -183.5 -321t-65.5 -184q0 -35 17.5 -52.5t51.5 -17.5q43 0 113.5 49t171.5 148q46 45 94 99t55 54t10 -3t3 -9q0 -14 -35.5 -54.5t-124.5 -127.5q-98 -97 -173 -145t-128 -48q-56 0 -87.5 36.5t-31.5 100.5q0 66 48 178
t146 276q-28 -4 -54 -6.5t-50 -2.5q-148 -209 -275 -344.5t-167 -135.5q-2 1 -3 3t-1 4q0 15 89.5 177t162.5 312q-40 7 -73 16.5t-60 22.5z" />
    <glyph glyph-name="N" unicode="N" horiz-adv-x="1698" 
d="M1145 494q-196 -252 -381 -382t-346 -130q-149 0 -245.5 98.5t-96.5 249.5q0 189 155.5 328t366.5 139q124 0 197 -61.5t73 -164.5q0 -67 -32 -136t-91 -128q-57 -58 -127 -92.5t-131 -34.5q-71 0 -112 41.5t-41 114.5q0 107 85.5 187.5t205.5 80.5q8 0 16.5 -0.5
t17.5 -1.5q-116 -49 -194 -137t-78 -160q0 -42 27.5 -66t77.5 -24q115 0 228.5 115.5t113.5 238.5q0 92 -60.5 144.5t-165.5 52.5q-203 0 -350 -130t-147 -306q0 -135 85.5 -225.5t215.5 -90.5q159 0 336 125.5t366 372.5q-135 77 -202.5 190t-67.5 261q0 206 143 346.5
t377 163.5q-218 -94 -343.5 -245t-125.5 -317q0 -118 63 -216t177 -154q108 138 284 367q349 454 396 454q1 0 1.5 -1t0.5 -3q0 -6 -22 -58q-151 -361 -263 -821q8 2 33 5.5t41 7.5q367 529 580.5 737.5t375.5 208.5q81 0 124.5 -45t43.5 -127q0 -80 -42.5 -169.5
t-115.5 -160.5q-59 -58 -127 -88.5t-137 -30.5q-29 0 -55 6t-49 19q-156 -154 -293.5 -245t-280.5 -136q-66 -91 -168 -235q-168 -238 -198 -238q-3 0 -4.5 3t-2.5 11q0 3 60 142.5t102 291.5q-70 0 -138 14.5t-136 43.5zM2204 895q40 45 58.5 75.5t18.5 49.5t-9.5 31
t-24.5 12q-30 0 -49 -28t-19 -74q0 -22 6 -37.5t19 -28.5zM1661 510q128 44 259.5 134.5t256.5 221.5q-17 19 -26 43t-9 52q0 56 34 96.5t77 40.5q29 0 46 -19.5t17 -52.5q0 -29 -18 -62.5t-67 -91.5q14 -9 30.5 -13.5t36.5 -4.5q53 0 112.5 30.5t116.5 88.5
q74 73 118 157.5t44 147.5q0 60 -34 94.5t-93 34.5q-148 0 -365 -215.5t-536 -681.5zM1167 524q57 -25 116 -39t110 -14h37l18 60q143 473 225 643q-87 -95 -252.5 -318t-253.5 -332zM1421 213q46 69 97.5 149t57.5 90l-6 -1q-37 -9 -48 -9q-14 -39 -40 -99.5t-61 -129.5z
" />
    <glyph glyph-name="O" unicode="O" horiz-adv-x="1237" 
d="M918 482q116 126 186 237.5t70 167.5q0 19 -10.5 32t-24.5 13q-67 0 -147.5 -133t-80.5 -256q0 -15 1.5 -30.5t5.5 -30.5zM1044 352q212 229 340.5 450.5t128.5 342.5q0 65 -44 106t-115 41q-106 0 -244.5 -102.5t-300.5 -300.5q-119 -147 -191.5 -285.5t-72.5 -210.5
q0 -43 22 -67.5t62 -24.5q47 0 111.5 38t147.5 115q-4 19 -6.5 39.5t-2.5 43.5q0 149 91 288.5t179 139.5q31 0 47 -20t16 -58q0 -60 -72.5 -174.5t-205.5 -261.5q15 -39 42 -63.5t68 -35.5zM1061 315q-159 -160 -314.5 -246.5t-283.5 -86.5q-142 0 -224.5 83t-82.5 226
q0 190 116.5 417t315.5 418q173 167 373 268t344 101q4 0 22.5 -1t32.5 -1q-131 -27 -252.5 -86t-241.5 -154q-142 -113 -275 -267.5t-231 -319.5q-76 -130 -111.5 -232t-35.5 -190q0 -105 65 -167.5t177 -62.5q123 0 272.5 82t292.5 230q-33 7 -63 32t-54 64
q-90 -79 -157 -116.5t-119 -37.5q-64 0 -101 43.5t-37 118.5q0 108 76 252.5t211 292.5q147 160 302.5 253t275.5 93q86 0 139 -48.5t53 -125.5q0 -124 -117.5 -331t-334.5 -464q105 10 214.5 94t215.5 238q48 71 87 151t50 80q4 0 6 -3.5t2 -12.5q0 -29 -52.5 -125.5
t-131.5 -195.5q-107 -134 -210 -198.5t-210 -64.5h-4z" />
    <glyph glyph-name="P" unicode="P" horiz-adv-x="1561" 
d="M633 51q-173 63 -251.5 82t-141.5 19q-56 0 -84.5 -14.5t-28.5 -43.5q0 -36 65 -55t189 -19q74 0 136 8t116 23zM1444 696q21 -10 44 -16t44 -6q62 0 125.5 38t118.5 109q56 73 86 155.5t30 162.5q0 40 -8.5 71.5t-28.5 61.5q-121 -97 -349 -473q-41 -67 -62 -103z
M680 33q-66 -23 -143 -34t-164 -11q-142 0 -212.5 27.5t-70.5 82.5q0 46 46 69t138 23q79 0 189.5 -23.5t281.5 -78.5q151 54 284.5 197.5t313.5 455.5q-5 17 -7.5 35t-2.5 41q0 39 7 63.5t18 24.5q4 0 8 -8.5t4 -19.5q0 -6 -2 -22t-2 -28q0 -8 1.5 -19t4.5 -25
q119 187 232.5 316.5t226.5 207.5q-69 78 -188 120.5t-269 42.5q-194 0 -394 -73.5t-368 -206.5q-154 -123 -243.5 -272t-89.5 -277q0 -119 66.5 -191.5t174.5 -72.5q110 0 252.5 91.5t278.5 252.5q111 132 167 232.5t56 170.5q0 44 -29 69.5t-80 25.5q-97 0 -229.5 -88
t-222.5 -220q-37 -53 -66.5 -118.5t-42.5 -65.5q-4 0 -6 4.5t-2 13.5q0 22 30 85.5t72 121.5q99 133 230 216t233 83q76 0 122 -44.5t46 -116.5q0 -98 -65.5 -225t-178.5 -242q-128 -134 -272.5 -207.5t-275.5 -73.5q-135 0 -213 80t-78 217q0 140 91.5 291.5t256.5 283.5
q169 136 372.5 210.5t403.5 74.5q156 0 280.5 -44.5t207.5 -129.5q68 47 144 70.5t159 23.5q135 0 219 -72t84 -188q0 -73 -41.5 -152t-65.5 -79q-4 0 -6 3.5t-2 10.5t18 36q62 100 62 179q0 101 -74.5 167.5t-189.5 66.5q-73 0 -143 -25t-134 -74q39 -58 57.5 -117
t18.5 -122q0 -166 -123 -294t-278 -128q-38 0 -72 8t-68 25q-153 -233 -310.5 -382t-317.5 -212q66 -21 124.5 -31t110.5 -10q148 0 300 66.5t284 189.5q27 25 63 63.5t45 38.5q6 0 8.5 -3.5t2.5 -10.5q0 -11 -34.5 -48.5t-88.5 -84.5q-148 -129 -308 -194.5t-329 -65.5
q-73 0 -146.5 13t-146.5 40z" />
    <glyph glyph-name="Q" unicode="Q" horiz-adv-x="1354" 
d="M274 78q37 -33 83 -49.5t104 -16.5q39 0 76.5 8t76.5 25q-66 37 -116 53.5t-92 16.5q-33 0 -65 -9t-67 -28zM918 482q116 126 186 237.5t70 167.5q0 19 -10.5 32t-24.5 13q-67 0 -147.5 -133t-80.5 -256q0 -15 1.5 -30.5t5.5 -30.5zM1044 352q212 229 340.5 450.5
t128.5 342.5q0 65 -44 106t-115 41q-106 0 -244.5 -102.5t-300.5 -300.5q-119 -147 -191.5 -285.5t-72.5 -210.5q0 -43 22 -67.5t62 -24.5q47 0 111.5 38t147.5 115q-4 19 -6.5 39.5t-2.5 43.5q0 149 91 288.5t179 139.5q31 0 47 -20t16 -58q0 -60 -72.5 -174.5
t-205.5 -261.5q15 -39 42 -63.5t68 -35.5zM1061 315q-71 -72 -147 -131.5t-173 -115.5q56 -38 110 -57t105 -19q74 0 164.5 50.5t200.5 152.5q65 61 125.5 128.5t66.5 67.5q7 0 11 -4t4 -10q0 -17 -58.5 -80t-158.5 -154q-115 -103 -213 -150.5t-195 -47.5q-66 0 -129 19
t-125 59q-45 -21 -91 -31t-93 -10q-143 0 -226 83t-83 226q0 190 116.5 417.5t315.5 417.5q173 167 373 268t344 101q4 0 22.5 -1t32.5 -1q-131 -27 -252.5 -86t-241.5 -154q-142 -112 -274 -265t-232 -320q-77 -131 -111 -229.5t-34 -188.5q0 -46 10 -83t29 -61
q62 30 114 45t97 15q50 0 112 -20.5t132 -59.5q80 42 158.5 102t152.5 138q-33 7 -63 32t-54 64q-90 -79 -157 -116.5t-119 -37.5q-64 0 -101 43.5t-37 118.5q0 108 76 252.5t211 292.5q147 160 302.5 253t275.5 93q86 0 139 -48.5t53 -125.5q0 -124 -117.5 -331
t-334.5 -464q105 10 214.5 94t215.5 238q48 71 87 151t50 80q4 0 6 -3.5t2 -12.5q0 -29 -52.5 -125.5t-131.5 -195.5q-107 -134 -210 -198.5t-210 -64.5h-4z" />
    <glyph glyph-name="R" unicode="R" horiz-adv-x="1794" 
d="M666 43q-150 52 -247 74t-167 22q-38 0 -65 -15.5t-27 -35.5q0 -33 75.5 -51.5t213.5 -18.5q74 0 123 6t94 19zM1562 622q-9 27 -21 40.5t-28 13.5q-11 0 -18.5 -6.5t-7.5 -16.5q0 -14 13 -25.5t32 -11.5q7 0 14.5 1.5t15.5 4.5zM729 23q-73 -19 -141.5 -28t-134.5 -9
q-161 0 -247.5 26.5t-86.5 75.5q0 38 48 62t128 24q71 0 171.5 -19.5t313.5 -78.5q125 37 225.5 131t264.5 364q165 274 307 437.5t293 257.5q-81 88 -201 134t-272 46q-190 0 -375 -66.5t-348 -193.5q-174 -134 -270.5 -283t-96.5 -282q0 -112 71 -180t185 -68
q107 0 242 84.5t266 236.5q103 120 166 235.5t63 178.5q0 50 -30 78t-84 28q-103 0 -224 -86t-225 -235q-31 -46 -63 -106t-43 -60q-5 0 -7.5 4t-2.5 12q0 20 40 93t97 143q99 123 214 194.5t212 71.5q79 0 124.5 -48t45.5 -130q0 -102 -68 -236.5t-180 -248.5
q-119 -122 -249.5 -187t-254.5 -65q-147 0 -237.5 80.5t-90.5 212.5q0 123 75.5 258t215.5 260q188 167 399.5 252.5t440.5 85.5q156 0 285.5 -51t210.5 -144q87 54 167.5 80.5t159.5 26.5q122 0 193 -53.5t71 -143.5q0 -66 -44 -135.5t-76 -69.5q-3 0 -5 1.5t-2 4.5
q0 10 46.5 71.5t46.5 123.5q0 75 -58.5 122.5t-152.5 47.5q-88 0 -167 -26t-155 -81q31 -46 46.5 -100t15.5 -117q0 -159 -100 -275t-277 -163q3 -16 4.5 -30t1.5 -27q0 -49 -15.5 -103t-46.5 -110q-22 -43 -79.5 -127.5t-57.5 -128.5q0 -17 13.5 -29t33.5 -12
q49 0 141.5 53t186.5 139q55 51 106 109.5t58 58.5q6 0 10 -4t4 -10q0 -14 -43.5 -63.5t-114.5 -114.5q-105 -99 -202.5 -153t-165.5 -54q-45 0 -70.5 28t-25.5 78q0 51 27.5 115.5t92.5 162.5l9 14q90 137 90 194l-1 8q-15 -3 -22 -3.5t-14 -0.5q-31 0 -53.5 20t-22.5 47
q0 21 17 36.5t40 15.5q28 0 49.5 -18.5t36.5 -55.5q139 51 234.5 192.5t95.5 288.5q0 37 -7.5 66t-23.5 55q-170 -134 -376 -464l-17 -28q-218 -345 -354 -481.5t-292 -199.5q37 -8 64 -11.5t48 -3.5q48 0 96.5 18.5t54.5 18.5t9.5 -2.5t3.5 -5.5q0 -25 -77.5 -56.5
t-156.5 -31.5q-33 0 -75.5 8.5t-94.5 26.5z" />
    <glyph glyph-name="S" unicode="S" horiz-adv-x="1565" 
d="M805 682q-125 -16 -204 -87t-79 -163q0 -42 29 -72t70 -30q76 0 140 77t64 173q0 25 -5 50t-15 52zM1630 1137q-56 39 -118 58t-130 19q-120 0 -194 -46.5t-74 -118.5q0 -60 51 -97t135 -37q120 0 207 58.5t123 163.5zM1798 821q276 121 461.5 292.5t185.5 283.5
q0 29 -12.5 43t-38.5 14q-98 0 -261.5 -171t-334.5 -462zM1767 770q-220 -405 -476.5 -596.5t-577.5 -191.5q-238 0 -400.5 137t-162.5 332q0 163 123 277t300 114q84 0 150 -32.5t104 -92.5h35q113 0 186.5 -63t73.5 -162q0 -80 -43 -150.5t-127 -128.5q-43 -30 -89.5 -50
t-63.5 -20q-7 1 -11.5 4t-5.5 7q0 10 36 25q34 14 56 26q104 57 158.5 132t54.5 159q0 88 -65.5 138t-181.5 50q9 -27 13.5 -51t4.5 -49q0 -114 -74.5 -200.5t-162.5 -86.5q-60 0 -98 39.5t-38 101.5q0 98 85.5 176t217.5 97q-30 45 -74.5 68.5t-99.5 23.5
q-153 0 -272 -124.5t-119 -281.5q0 -168 141 -276.5t365 -108.5q247 0 456 167t429 544q-58 -16 -118 -24.5t-122 -8.5q-250 0 -401.5 118.5t-151.5 309.5q0 164 134 269.5t341 105.5q175 0 282.5 -76t107.5 -200q-1 -19 -3.5 -34.5t-8.5 -34.5q30 -29 48.5 -52.5
t18.5 -32.5q0 -4 -1.5 -7t-4.5 -3q-6 0 -38 26q-20 18 -34 29q-47 -108 -142 -167.5t-218 -59.5q-104 0 -166 46t-62 122q0 87 80.5 142.5t210.5 55.5q76 0 145 -18t129 -53q4 14 5.5 27t1.5 26q0 95 -88.5 160t-221.5 65q-186 0 -320 -117t-134 -272q0 -146 133.5 -244
t341.5 -98q69 0 140 13t144 40q213 335 414 524t340 189q48 0 70 -21t22 -67q0 -128 -206 -315.5t-515 -315.5z" />
    <glyph glyph-name="T" unicode="T" horiz-adv-x="1470" 
d="M1501 1401q36 -36 55 -90.5t19 -120.5q0 -156 -113.5 -271.5t-261.5 -115.5q-82 0 -131 47.5t-49 128.5q0 120 111 237t303 195q-46 30 -97 43.5t-114 13.5q-151 0 -279 -73.5t-194 -198.5q-27 -49 -43.5 -110.5t-26.5 -61.5q-3 0 -6.5 7.5t-3.5 19.5q0 36 21.5 96
t56.5 110q79 115 204.5 179.5t270.5 64.5q70 0 132.5 -18t119.5 -56q109 38 214.5 56t215.5 18q139 0 319.5 -29.5t218.5 -29.5q12 0 27 2t20 2q9 0 16 -3t7 -7q0 -14 -63.5 -30.5t-149.5 -16.5q-78 0 -256.5 24.5t-278.5 24.5q-66 0 -132 -9.5t-132 -27.5zM1460 1389
q-188 -80 -294.5 -188t-106.5 -218q0 -65 32.5 -102t90.5 -37q52 0 107 34t112 101q56 67 85.5 134.5t29.5 131.5q0 43 -14 78.5t-42 65.5zM983 672q-6 0 -19 2q-31 4 -46 4q-187 0 -323 -87t-136 -202q0 -57 35 -90t98 -33q131 0 262 119t131 248q0 9 -0.5 18.5t-1.5 20.5z
M1035 655q2 -16 3.5 -33t1.5 -34q0 -154 -120 -268.5t-281 -114.5q-95 0 -155 51.5t-60 130.5q0 129 142.5 225.5t338.5 96.5h64q-32 55 -105 87.5t-168 32.5q-226 0 -382 -128t-156 -310q0 -167 136 -273t353 -106q163 0 292 59t243 185q58 65 181.5 272t199.5 320
q138 204 268.5 342.5t167.5 138.5q6 0 9 -1.5t3 -4.5q0 -2 -93 -115.5t-177 -251.5q-41 -67 -118 -200q-195 -335 -310 -473q-126 -149 -296 -225t-376 -76q-230 0 -374 114.5t-144 296.5q0 194 164.5 330.5t400.5 136.5q121 0 208 -41.5t126 -118.5q87 -25 133.5 -76.5
t46.5 -121.5q0 -82 -58.5 -166t-96.5 -84q-3 0 -4.5 1t-2.5 3q0 5 63.5 84.5t63.5 157.5q0 58 -35.5 100t-96.5 57z" />
    <glyph glyph-name="U" unicode="U" horiz-adv-x="1839" 
d="M510 451h20q65 0 132.5 27t144.5 85q152 116 257 263.5t105 222.5q0 46 -28.5 71t-81.5 25q-100 0 -218.5 -77.5t-203.5 -203.5q-65 -96 -96 -193t-31 -202v-18zM1448 258q-124 -149 -204 -213.5t-138 -64.5q-48 0 -76.5 34t-28.5 92q0 118 182 365l15 21l41 56
q334 460 334 623q0 132 -93 214.5t-241 82.5q-166 0 -349.5 -78.5t-334.5 -215.5q-135 -122 -210 -250t-75 -234q0 -98 57 -163.5t146 -71.5q2 127 36.5 236.5t102.5 203.5q92 127 217 205t232 78q78 0 118 -40.5t40 -119.5q0 -119 -99 -262.5t-254 -239.5q-81 -52 -162 -77
t-165 -25h-29q14 -287 191 -456t460 -169q136 0 251 40q15 5 18 5q5 0 9.5 -4t4.5 -8q0 -21 -87.5 -42.5t-201.5 -21.5q-295 0 -478 176t-204 482q-109 12 -175.5 87.5t-66.5 186.5q0 121 82.5 256.5t235.5 267.5q156 136 337 211.5t347 75.5q181 0 290 -104.5t109 -278.5
q0 -108 -53.5 -226.5t-245.5 -381.5l-55 -76q-225 -308 -225 -362q0 -27 14 -44.5t35 -17.5q77 0 219 154t362 477l459 680q4 5 10 15q33 50 84 50q20 0 32.5 -7t12.5 -17q0 -8 -11 -31.5t-29 -50.5l-648 -958q-71 -106 -106 -172t-35 -95q0 -16 10.5 -28.5t24.5 -12.5
q55 0 153 58t195 151q53 51 104.5 109.5t59.5 58.5q5 0 8.5 -3t3.5 -7q0 -17 -41 -66t-110 -114q-114 -107 -222 -168.5t-178 -61.5q-42 0 -64 22.5t-22 65.5q0 31 19 82.5t55 116.5z" />
    <glyph glyph-name="V" unicode="V" horiz-adv-x="1413" 
d="M504 381q66 7 145 56t174 143q125 123 200 250.5t75 207.5q0 53 -27.5 80t-79.5 27q-72 0 -159.5 -56t-161.5 -151q-80 -100 -125 -229.5t-45 -253.5q0 -15 3 -56q0 -11 1 -18zM466 338q-121 3 -191 86t-70 225q0 134 65 273.5t187 265.5q143 149 322 234t347 85
q192 0 291 -94.5t99 -277.5q0 -230 -174.5 -520.5t-489.5 -577.5q227 77 754 716q92 112 141 171q223 269 389.5 421t233.5 152q4 0 9 -3t5 -5q0 -11 -34 -29q-32 -17 -52 -30q-187 -125 -516 -516l-21 -25q-55 -66 -157 -189q-345 -417 -476 -528q-98 -84 -200 -138
t-144 -54q-9 0 -15.5 3.5t-6.5 8.5q0 15 74 89t125 134q207 245 341 531t134 450q0 133 -81.5 205t-232.5 72q-149 0 -314 -75t-302 -206q-128 -122 -197 -263t-69 -278q0 -129 59.5 -201.5t165.5 -72.5v45q0 123 29 235t88 213q77 135 195 220.5t216 85.5q75 0 114.5 -43.5
t39.5 -126.5q0 -114 -74.5 -256t-191.5 -246q-81 -72 -175 -115t-196 -55q34 -242 202.5 -388.5t413.5 -146.5q175 0 344 92q35 19 43 19q11 0 14 -1.5t3 -4.5q0 -31 -132 -84t-274 -53q-257 0 -435 154t-223 417z" />
    <glyph glyph-name="W" unicode="W" horiz-adv-x="1753" 
d="M485 381q61 0 127 32.5t148 102.5q143 124 242.5 274t99.5 228q0 49 -28 76.5t-77 27.5q-60 0 -141 -47t-154 -127q-103 -112 -161 -248t-58 -266q0 -11 1 -29t1 -24zM451 342q-120 15 -191.5 96.5t-71.5 202.5q0 119 64 257t176 259q153 165 333.5 254.5t356.5 89.5
q175 0 284 -105.5t109 -275.5q0 -187 -139.5 -438.5t-398.5 -529.5q224 156 718 835l19 27q147 199 210.5 269.5t90.5 70.5q2 0 4 -2.5t2 -5.5t-59 -114.5t-113 -242.5l-10 -26q-248 -603 -420 -838q174 163 555 689q96 134 148 204q143 196 313.5 319t275.5 123
q12 0 18.5 -3.5t6.5 -8.5q0 -9 -66 -28.5t-122 -49.5q-113 -60 -218 -163.5t-264 -321.5q-315 -430 -515 -667.5t-247 -237.5q-4 0 -7 2t-3 4q0 16 63 119t107 208q16 38 53 135q132 350 263 592q-304 -442 -598.5 -747t-366.5 -305q-9 0 -13.5 2.5t-4.5 7.5q0 13 74 100
q63 74 104 125q209 259 328.5 506t119.5 410q0 159 -83.5 242t-243.5 83q-146 0 -307 -77t-296 -213q-124 -125 -195 -264t-71 -257q0 -117 61 -190.5t165 -81.5v29q0 125 39 241t118 228q90 126 195 199t194 73q74 0 114 -44t40 -126q0 -126 -91.5 -268t-248.5 -258
q-71 -53 -151 -81.5t-170 -33.5q30 -247 203 -404t413 -157q143 0 289 73q30 15 37 15q4 0 6.5 -1.5t3.5 -4.5q0 -31 -109.5 -72t-226.5 -41q-254 0 -434 163.5t-219 430.5z" />
    <glyph glyph-name="X" unicode="X" horiz-adv-x="1597" 
d="M479 383q73 5 150 44.5t159 115.5q140 125 232 269.5t92 221.5q0 46 -24.5 69t-73.5 23q-100 0 -217.5 -91.5t-202.5 -239.5q-51 -90 -80 -193.5t-35 -218.5zM565 41q97 35 198.5 103t207.5 169q201 195 322.5 434.5t121.5 432.5q0 130 -78.5 202t-220.5 72
q-143 0 -299 -67t-289 -187q-140 -126 -220.5 -275.5t-80.5 -281.5q0 -118 53.5 -183t161.5 -79q7 105 30 199t65 180q85 177 223.5 289t263.5 112q59 0 96 -39.5t37 -103.5q0 -106 -79.5 -243.5t-207.5 -244.5q-94 -78 -194 -125.5t-196 -58.5q4 -83 25.5 -160t59.5 -145z
M549 2q-28 -11 -60 -16.5t-69 -5.5q-82 0 -133 39.5t-51 103.5q0 38 21.5 65t51.5 27q25 0 40.5 -15.5t15.5 -41.5q0 -35 -37 -55t-37 -31q0 -23 37 -41.5t90 -18.5q24 0 53.5 5t58.5 14q-43 84 -64.5 162.5t-23.5 154.5q-120 14 -183.5 88.5t-63.5 202.5q0 130 66.5 266.5
t193.5 265.5q146 150 323.5 232t354.5 82q170 0 268 -88.5t98 -243.5q0 -78 -17.5 -159t-51.5 -158q203 272 401.5 425.5t341.5 153.5q45 0 69.5 -17.5t24.5 -49.5q0 -26 -16 -43t-39 -17q-36 0 -47.5 42t-36.5 42q-87 0 -226.5 -100t-295.5 -277q-176 -198 -276.5 -417.5
t-100.5 -397.5q0 -74 29 -117t79 -43q53 0 127.5 58.5t182.5 185.5q20 24 50 61q46 58 56 58q6 0 9 -2.5t3 -7.5q0 -13 -28 -51.5t-84 -104.5q-111 -127 -187 -181t-143 -54q-78 0 -125 67t-47 182q0 62 15.5 137.5t50.5 176.5q-148 -198 -307 -332t-324 -199
q80 -123 209.5 -188.5t294.5 -65.5q140 0 281 47q28 9 34 9t11 -3t5 -6q0 -25 -102 -52t-225 -27q-178 0 -315 69t-230 205z" />
    <glyph glyph-name="Y" unicode="Y" horiz-adv-x="1610" 
d="M437 375q76 4 153 44t160 120q141 136 228 273t87 218q0 38 -23.5 60t-64.5 22q-70 0 -177.5 -68.5t-193.5 -175.5q-83 -104 -126.5 -226t-43.5 -251zM1161 -53q-341 -163 -532 -297t-191 -209q0 -22 21 -36.5t53 -14.5q138 0 310.5 147t338.5 410zM1307 4
q-201 -307 -413.5 -477t-389.5 -170q-44 0 -74.5 24t-30.5 58q0 89 199.5 230t597.5 335q34 56 68 116.5t69 127.5q-118 -138 -206.5 -203t-155.5 -65q-50 0 -78.5 29.5t-28.5 82.5q0 106 210 389l9 12q165 224 241.5 381.5t76.5 272.5q0 128 -95.5 214.5t-238.5 86.5
q-131 0 -289 -76t-295 -207q-135 -129 -209.5 -271.5t-74.5 -268.5q0 -101 54 -168t144 -78q2 115 31.5 220t85.5 196q91 148 226 247t239 99q65 0 100 -37.5t35 -106.5q0 -123 -96.5 -275.5t-249.5 -264.5q-80 -58 -163.5 -88.5t-160.5 -30.5h-8q9 -183 121 -386
q25 -45 25 -54q0 -6 -1.5 -9t-5.5 -4q-12 0 -36 36t-56 102q-35 73 -56.5 151.5t-29.5 165.5q-108 23 -169.5 97t-61.5 181q0 135 73 280.5t207 277.5q144 141 311.5 222t311.5 81q174 0 279.5 -108.5t105.5 -287.5q0 -250 -305 -658l-29 -38q-96 -129 -138 -200.5
t-42 -106.5q0 -25 16 -41t41 -16q88 0 237 166t361 503q125 197 232.5 316.5t150.5 119.5q9 0 10.5 -0.5t2.5 -3.5q0 -3 -22 -25q-95 -91 -169 -206q-63 -97 -165 -280t-298 -554q226 105 396 294q32 36 39 36q6 0 9 -3t3 -9q0 -42 -144 -164t-333 -209z" />
    <glyph glyph-name="Z" unicode="Z" horiz-adv-x="1319" 
d="M459 377h6q95 0 196.5 54t194.5 155q110 117 181 247t71 201q0 43 -24 67.5t-64 24.5q-79 0 -195 -86t-209 -219q-72 -104 -111.5 -215.5t-45.5 -228.5zM707 66q-26 12 -49.5 18t-47.5 6q-45 0 -75.5 -15.5t-30.5 -37.5q0 -13 14.5 -22t36.5 -9q31 0 71 15.5t81 44.5z
M737 -94q-329 -132 -502.5 -244t-173.5 -192q0 -32 21.5 -51t54.5 -19q112 0 296.5 148.5t303.5 357.5zM782 -78q-17 -77 -61 -155.5t-113 -153.5q-100 -111 -226.5 -177.5t-229.5 -66.5q-56 0 -89.5 27.5t-33.5 71.5q0 97 178.5 215.5t540.5 261.5q0 6 1 13t1 13
q0 22 -5 38t-16 28q-56 -31 -100 -45.5t-86 -14.5q-33 0 -53.5 16t-20.5 40q0 36 41 62t102 26q40 0 72.5 -9t58.5 -28q79 42 172 125t179 188q151 186 245.5 405t94.5 365q0 144 -81 217.5t-239 73.5q-154 0 -330 -82.5t-342 -232.5q-131 -121 -197.5 -240.5t-66.5 -234.5
q0 -126 65.5 -202.5t179.5 -86.5q10 114 45 218.5t95 201.5q98 155 229.5 255.5t227.5 100.5q64 0 95.5 -37.5t31.5 -116.5q0 -134 -87.5 -283.5t-228.5 -248.5q-89 -63 -182.5 -95t-189.5 -32v-31v-10q0 -26 1 -58t1 -38q0 -12 -4.5 -20.5t-10.5 -8.5q-12 0 -17 31.5
t-5 136.5q-128 12 -203.5 98.5t-75.5 221.5q0 121 65 243.5t193 243.5q180 169 362.5 253.5t367.5 84.5q179 0 284 -104t105 -283q0 -267 -201.5 -548t-552.5 -497q10 -20 14 -43t4 -53q146 46 266 106.5t222 139.5q79 60 150.5 136.5t84.5 76.5q3 0 5 -1.5t2 -4.5
q0 -68 -221.5 -234t-512.5 -258z" />
    <glyph glyph-name="bracketleft" unicode="[" horiz-adv-x="711" 
d="M1147 1419q27 37 47.5 48.5t65.5 11.5h223q20 0 28.5 -6.5t8.5 -20.5q0 -12 -10 -18.5t-29 -6.5h-195q-21 0 -29.5 -5t-21.5 -23l-1034 -1481h219q20 0 29.5 -6.5t9.5 -20.5q0 -12 -10 -18t-29 -6h-273q-26 0 -37.5 5.5t-11.5 18.5q0 6 11 27.5t26 44.5z" />
    <glyph glyph-name="backslash" unicode="\" horiz-adv-x="1030" 
d="M-43 1229l911 -1278q9 -10 12 -13.5t1 -0.5q45 -68 82 -68q10 0 14 2q4 4 4 8q0 17 -37 70q2 -2 -1 1t-9 13l-944 1290l-4 4q-35 48 -54 48q-6 0 -10 -4.5t-4 -10.5t23 -41q4 -6 8 -11t8 -9z" />
    <glyph glyph-name="bracketright" unicode="]" horiz-adv-x="711" 
d="M242 -74q-25 -36 -46 -47.5t-69 -11.5h-221q-21 0 -30 6.5t-9 20.5q0 11 10 17.5t29 6.5h194q21 0 30.5 6t21.5 23l1036 1480h-221q-22 1 -29.5 6.5t-7.5 18.5t9.5 20t27.5 7h272q26 0 37.5 -6t11.5 -19q0 -7 -10 -27.5t-27 -44.5z" />
    <glyph glyph-name="asciicircum" unicode="^" horiz-adv-x="963" 
d="M709 1589l-672 -407h57l619 336l143 -336h62l-101 407h-108z" />
    <glyph glyph-name="underscore" unicode="_" horiz-adv-x="1024" 
d="M0 -403h1024v-80h-1024v80z" />
    <glyph glyph-name="grave" unicode="`" horiz-adv-x="1024" 
d="M846 639q0 -6 -4 -10t-11 -4q-34 0 -119 105t-85 171q0 39 19 60.5t52 21.5q26 0 41 -19t15 -53q0 -1 -1 -24.5t-1 -44.5q0 -78 73 -170q21 -27 21 -33z" />
    <glyph glyph-name="a" unicode="a" horiz-adv-x="743" 
d="M135 23q36 0 97.5 41.5t127.5 113.5q109 118 167.5 196.5t58.5 106.5q0 22 -14 33.5t-42 11.5q-50 0 -116.5 -39.5t-139.5 -113.5q-90 -92 -139 -170.5t-49 -128.5q0 -25 12.5 -38t36.5 -13zM389 162q-84 -87 -151 -129.5t-121 -42.5q-53 0 -83 33.5t-30 91.5
q0 68 48.5 151t131.5 154q79 66 168 102.5t172 36.5q41 0 65 -18t26 -49q33 45 49.5 54t52.5 9q19 0 30 -5t11 -13q0 -6 -6.5 -20t-16.5 -25l-252 -328q-23 -31 -36 -57t-13 -44q0 -15 8 -21.5t27 -6.5q39 0 112 52t179 155q44 43 89.5 95t53.5 52q6 0 9 -3t3 -9
q0 -16 -51.5 -74.5t-134.5 -134.5q-103 -95 -172.5 -136.5t-122.5 -41.5q-37 0 -57.5 17.5t-20.5 49.5q0 29 8.5 55t24.5 50z" />
    <glyph glyph-name="b" unicode="b" horiz-adv-x="537" 
d="M420 604q279 133 470 311.5t191 270.5q0 20 -9.5 29.5t-31.5 9.5q-71 0 -240 -168t-380 -453zM437 308q50 62 74 103.5t24 65.5q0 10 -8.5 17.5t-18.5 7.5q-29 0 -57.5 -44t-28.5 -96q0 -14 3.5 -27t11.5 -27zM442 256q-111 -133 -200.5 -199.5t-155.5 -66.5
q-37 0 -58.5 24t-21.5 66q0 93 107.5 261t332.5 427q195 223 363.5 357.5t247.5 134.5q27 0 42 -16.5t15 -45.5q0 -125 -202.5 -311t-518.5 -332q-149 -189 -231 -320.5t-82 -179.5q0 -17 7 -23.5t24 -6.5q42 0 125.5 68t175.5 181q-14 21 -20.5 43.5t-6.5 47.5
q0 67 42 121.5t93 54.5q22 0 37.5 -15t15.5 -34q0 -35 -21 -78.5t-85 -128.5q8 -3 18.5 -4.5t22.5 -1.5q66 0 139 69.5t78 69.5q3 0 4.5 -1.5t1.5 -4.5q0 -43 -81.5 -105.5t-155.5 -62.5q-14 0 -26.5 3t-25.5 9z" />
    <glyph glyph-name="c" unicode="c" horiz-adv-x="498" 
d="M522 432q-15 0 -27 11t-12 26q0 8 6.5 19.5t6.5 15.5q0 10 -5 14t-18 4q-33 0 -74.5 -29.5t-115.5 -109.5q-76 -80 -116 -149.5t-40 -118.5q0 -43 19.5 -64.5t58.5 -21.5q56 0 139.5 56.5t181.5 162.5q35 38 80 92q40 49 49 49q7 0 10 -3t3 -9q0 -14 -43 -65.5
t-117 -127.5q-94 -95 -177.5 -145.5t-146.5 -50.5q-62 0 -100.5 44t-38.5 115q0 73 35.5 143t105.5 136q73 68 152 105.5t147 37.5q49 0 73 -17t24 -52q0 -26 -19 -47t-41 -21z" />
    <glyph glyph-name="d" unicode="d" horiz-adv-x="743" 
d="M354 147q-80 -79 -146 -118t-118 -39q-50 0 -77 29t-27 83q0 62 45 138t129 155q81 77 170 118.5t172 41.5q48 0 74 -21t26 -59l399 529q21 27 35 36t33 9h49q11 -1 16 -4.5t5 -10.5q0 -17 -21 -41l-2 -2l-633 -823q-30 -39 -42.5 -62.5t-12.5 -39.5q0 -18 7.5 -25.5
t25.5 -7.5q42 0 115.5 51.5t179.5 155.5q45 44 91.5 96.5t53.5 52.5q6 0 9 -3t3 -9q0 -15 -37.5 -58t-121.5 -126q-104 -103 -178 -151t-127 -48q-49 0 -76 26.5t-27 73.5q0 8 1.5 19t6.5 34zM125 35q39 0 104.5 47.5t153.5 140.5q97 102 138.5 161.5t41.5 94.5
q0 19 -16.5 31t-42.5 12q-38 0 -96.5 -39t-139.5 -118q-92 -92 -143 -165t-51 -114q0 -26 12.5 -38.5t38.5 -12.5z" />
    <glyph glyph-name="e" unicode="e" horiz-adv-x="537" 
d="M150 197q-15 -28 -21 -53t-6 -50q0 -32 18.5 -50.5t51.5 -18.5q61 0 156 59t212 170q42 39 87.5 91t60.5 52q4 0 6 -2.5t2 -9.5q0 -10 -37 -53t-98 -103q-120 -115 -224.5 -177t-177.5 -62q-65 0 -103 43.5t-38 118.5q0 79 53.5 163t149.5 154q58 43 116 66.5t103 23.5
q34 0 52.5 -16.5t18.5 -46.5q0 -77 -105 -160.5t-277 -138.5zM164 240q145 46 236.5 117.5t91.5 134.5q0 13 -11 22.5t-26 9.5q-40 0 -123 -79.5t-168 -204.5z" />
    <glyph glyph-name="f" unicode="f" horiz-adv-x="426" 
d="M422 596q70 17 173 77.5t220 153.5q133 105 213 206.5t80 158.5q0 24 -11 35.5t-34 11.5q-87 0 -253 -166.5t-388 -476.5zM-41 -31l-303 -403q-2 -3 -5 -7q-48 -65 -143 -65q-10 0 -13 3.5t-3 15.5q0 13 51 77q28 35 45 58l252 331q-9 2 -14.5 6.5t-5.5 10.5
q0 12 11.5 27.5t21.5 15.5q1 0 10.5 -2.5t17.5 -3.5l361 481q266 356 487 556t344 200q34 0 52 -19t18 -53q0 -69 -80.5 -175t-216.5 -212t-251.5 -172t-205.5 -90l-399 -545h26q95 0 184.5 46.5t211.5 162.5q55 54 111 115t63 61q5 0 7.5 -3t2.5 -9q0 -19 -81 -108
t-185 -173q-80 -66 -162 -96.5t-180 -30.5h-29z" />
    <glyph glyph-name="g" unicode="g" horiz-adv-x="750" 
d="M137 23q36 0 96 41.5t127 113.5q109 118 167.5 196.5t58.5 106.5q0 23 -13.5 34t-40.5 11q-51 0 -118 -40t-140 -113q-90 -92 -139 -170.5t-49 -128.5q0 -25 13.5 -38t37.5 -13zM193 -86q-245 -97 -406.5 -230.5t-161.5 -220.5q0 -29 17 -44t49 -15q100 0 385 362
q74 95 117 148zM334 -41q-318 -386 -436.5 -485t-212.5 -99q-43 0 -68 24.5t-25 65.5q0 98 178.5 246t444.5 244l111 147q-62 -56 -114 -84t-95 -28q-53 0 -83 33.5t-30 91.5q0 68 48.5 151t131.5 154q78 66 168 102.5t174 36.5q41 0 64 -18t25 -49q33 45 49.5 54t52.5 9
q19 0 30 -5t11 -13q0 -7 -6 -20.5t-15 -25.5l-372 -485q293 111 502 344q35 39 42 39q6 0 9.5 -3t3.5 -9q0 -51 -178.5 -193t-409.5 -225z" />
    <glyph glyph-name="h" unicode="h" horiz-adv-x="674" 
d="M418 594q297 135 499.5 320t202.5 286q0 21 -10 31t-31 10q-80 0 -253 -169t-408 -478zM-49 141l203 254q335 423 579.5 652t358.5 229q29 0 45 -17.5t16 -48.5q0 -129 -217.5 -325t-550.5 -342l-98 -119q70 61 132.5 93t112.5 32q35 0 55.5 -18t20.5 -48
q0 -57 -105 -197l-11 -16l-22 -29q-105 -139 -105 -167q0 -20 9 -29.5t27 -9.5q35 0 109.5 53t173.5 150q45 44 93.5 97.5t56.5 53.5q6 0 9 -3t3 -9q0 -16 -51.5 -74.5t-135.5 -134.5q-96 -91 -167 -134.5t-121 -43.5q-42 0 -67 24t-25 64q0 39 30 93.5t113 160.5
q55 71 75.5 103.5t20.5 45.5q0 9 -8.5 16t-20.5 7q-52 0 -152.5 -84t-219.5 -230q-34 -40 -78 -100q-73 -100 -150 -100q-11 0 -19.5 5t-8.5 11q0 13 20 43.5t70 91.5z" />
    <glyph glyph-name="i" unicode="i" horiz-adv-x="365" 
d="M420 627q-18 0 -29.5 11.5t-11.5 29.5q0 25 19 44t44 19q18 0 29.5 -10.5t11.5 -26.5q0 -26 -19.5 -46.5t-43.5 -20.5zM98 160q-23 -30 -36 -56.5t-13 -42.5q0 -15 8 -21.5t27 -6.5q36 0 103 45t161 133q58 54 113.5 116t62.5 62q6 0 9.5 -3t3.5 -9q0 -14 -41 -61
t-121 -126q-100 -96 -177 -146t-126 -50q-44 0 -67 23t-23 67q0 92 212 369l2 3q8 10 21 27q52 70 109 70q20 0 31.5 -4t11.5 -12q0 -7 -6.5 -20t-16.5 -25z" />
    <glyph glyph-name="j" unicode="j" horiz-adv-x="365" 
d="M338 475l-346 -467q284 114 491 343q35 38 41 38t9.5 -3t3.5 -9q0 -50 -175 -190t-405 -230q-256 -377 -350.5 -477.5t-163.5 -100.5q-41 0 -64.5 22.5t-23.5 59.5q0 94 134.5 228t367.5 266q101 167 201 311.5t175 235.5q31 37 50 45t61 8q13 0 21 -5.5t8 -14.5
q0 -13 -22 -42q-8 -11 -13 -18zM-172 -98q-194 -111 -317 -236t-123 -201q0 -25 17.5 -42t43.5 -17q53 0 129 95.5t250 400.5zM418 627q-18 0 -29.5 11.5t-11.5 29.5q0 25 19 44t44 19q18 0 29.5 -10.5t11.5 -26.5q0 -26 -19.5 -46.5t-43.5 -20.5z" />
    <glyph glyph-name="k" unicode="k" horiz-adv-x="692" 
d="M387 338q-12 4 -24.5 6t-26.5 2q-36 0 -59 -13.5t-23 -33.5q0 -11 9 -18t24 -7q20 0 46.5 17t53.5 47zM401 307q-31 -31 -61.5 -47t-58.5 -16q-27 0 -43.5 14.5t-16.5 38.5q0 36 38.5 61t96.5 25q14 0 27.5 -1.5t27.5 -4.5q119 106 184 148t105 42q33 0 52.5 -16.5
t19.5 -44.5q0 -26 -11 -39.5t-32 -13.5q-16 0 -25.5 10t-9.5 26v15q0 9 -4 14.5t-10 5.5q-30 0 -94 -44.5t-142 -121.5q21 -26 30 -47t9 -43q0 -44 -51 -115t-51 -94q0 -13 7.5 -21.5t19.5 -8.5q35 0 106.5 48t161.5 134q58 55 114 116.5t62 61.5t9 -3t3 -9
q0 -17 -59.5 -83.5t-151.5 -148.5q-94 -84 -157.5 -120.5t-112.5 -36.5q-43 0 -66.5 23t-23.5 65q0 53 54 124.5t54 102.5v4zM-49 141l203 254q335 423 579.5 652t358.5 229q29 0 45 -17.5t16 -48.5q0 -129 -217.5 -325t-550.5 -342l-268 -352q-20 -27 -51 -69
q-97 -132 -177 -132q-11 0 -19.5 5t-8.5 11q0 13 20 43.5t70 91.5zM418 594q297 135 499.5 320t202.5 286q0 21 -10 31t-31 10q-80 0 -253 -169t-408 -478z" />
    <glyph glyph-name="l" unicode="l" horiz-adv-x="438" 
d="M393 555q-141 -179 -226 -314t-85 -178q0 -20 11.5 -30t35.5 -10q51 0 138.5 60.5t203.5 176.5q37 37 77 83t48 46q6 0 9 -3t3 -9q0 -16 -50.5 -74t-133.5 -135q-110 -101 -181.5 -142.5t-131.5 -41.5q-51 0 -78 24.5t-27 71.5q0 93 107.5 261t332.5 427
q195 223 363.5 357.5t247.5 134.5q27 0 42 -16.5t15 -45.5q0 -125 -202.5 -311t-518.5 -332zM420 604q279 133 470 311.5t191 270.5q0 20 -9.5 29.5t-31.5 9.5q-71 0 -240 -168t-380 -453z" />
    <glyph glyph-name="m" unicode="m" horiz-adv-x="1106" 
d="M117 141l200 254q25 30 38.5 56t13.5 43q0 8 -6.5 14t-14.5 6q-43 0 -125 -91t-94 -91q-3 0 -5.5 3t-2.5 7q0 9 17 31.5t57 64.5q58 63 103.5 94t80.5 31q32 0 54 -23.5t22 -60.5q0 -18 -6.5 -38t-18.5 -42q92 86 148 122t94 36q31 0 50 -21t19 -55q0 -21 -7.5 -44.5
t-22.5 -49.5q104 95 161 132.5t95 37.5q31 0 50 -20.5t19 -55.5q0 -62 -103 -198l-9 -12q-19 -27 -52 -70q-77 -102 -77 -127q0 -19 9.5 -29t29.5 -10q34 0 108.5 53t173.5 150q47 45 94 98t54 53q6 0 9 -3t3 -9q0 -17 -51 -75.5t-133 -133.5q-98 -91 -169 -134.5
t-122 -43.5q-41 0 -65.5 24t-24.5 64q0 38 29 92t110 158q46 58 72 99.5t26 55.5q0 9 -5.5 15t-12.5 6q-37 0 -139.5 -88.5t-215.5 -225.5q-34 -40 -78 -101q-72 -99 -149 -99q-13 0 -20.5 4t-8.5 12q0 11 21 42t72 93l200 254q22 27 32.5 48.5t10.5 35.5q0 10 -6 17.5
t-14 7.5q-37 0 -138 -88.5t-214 -225.5q-33 -39 -77 -99q-75 -101 -153 -101q-13 0 -20.5 4.5t-7.5 11.5q0 11 20.5 42t71.5 93z" />
    <glyph glyph-name="n" unicode="n" horiz-adv-x="811" 
d="M117 141l200 254q25 30 38.5 56t13.5 43q0 8 -6.5 14t-14.5 6q-43 0 -125 -91t-94 -91q-3 0 -5.5 3t-2.5 7q0 9 17 31.5t57 64.5q58 63 103.5 94t80.5 31q32 0 54 -23.5t22 -60.5q0 -19 -6 -38t-19 -42q92 86 148 122t94 36q31 0 50 -20.5t19 -55.5q0 -60 -99 -191
q-10 -13 -15 -19q-12 -17 -34 -45q-93 -125 -93 -152q0 -20 9 -29.5t28 -9.5q38 0 110.5 51t173.5 150q46 44 93.5 98.5t56.5 54.5q6 0 9 -3t3 -9q0 -16 -51.5 -74.5t-134.5 -134.5q-98 -91 -169 -134.5t-122 -43.5q-41 0 -65.5 24t-24.5 64q0 36 25.5 85t113.5 165
q50 65 74 103.5t24 51.5q0 9 -4.5 16t-11.5 7q-38 0 -140 -88.5t-216 -227.5q-33 -40 -77 -100q-73 -100 -151 -100q-13 0 -20.5 4.5t-7.5 11.5q0 11 20.5 42t71.5 93z" />
    <glyph glyph-name="o" unicode="o" horiz-adv-x="600" 
d="M500 522q-41 0 -98 -38.5t-134 -118.5q-91 -93 -139.5 -165t-48.5 -114q0 -29 16 -44t47 -15q44 0 113 46.5t139 125.5q72 79 114 152t42 114q0 28 -13.5 42.5t-37.5 14.5zM486 251q-105 -130 -195.5 -195.5t-165.5 -65.5q-52 0 -82.5 34.5t-30.5 94.5q0 72 47.5 153.5
t133.5 155.5q72 63 149.5 98t140.5 35q46 0 73.5 -26.5t27.5 -71.5q0 -63 -57 -153q-13 -20 -13 -23q0 -12 14.5 -20.5t34.5 -8.5q60 0 126 63.5t73 63.5q3 0 4.5 -2t1.5 -6q0 -33 -73.5 -92.5t-137.5 -59.5q-22 0 -39 6.5t-32 19.5z" />
    <glyph glyph-name="p" unicode="p" horiz-adv-x="705" 
d="M-286 -339l-15 -20q-52 -69 -125 -69q-12 0 -20.5 5t-8.5 11q0 20 63 99q19 25 30 39l858 1112q5 7 13 17q53 71 126 71q12 0 20.5 -5t8.5 -12q0 -10 -20 -40t-73 -97l-342 -432q151 128 222 172.5t116 44.5q33 0 52.5 -19.5t19.5 -52.5q0 -60 -114 -211l-3 -4l-22 -29
q-105 -139 -105 -167q0 -21 8.5 -30t26.5 -9q37 0 111 52t174 149q46 45 94 99t55 54q6 0 8 -2.5t2 -9.5q0 -17 -48.5 -72.5t-135.5 -136.5q-95 -90 -167.5 -134t-123.5 -44q-41 0 -65.5 24t-24.5 64q0 37 28.5 89t111.5 159q46 59 73 101.5t27 55.5q0 10 -7 16.5t-18 6.5
q-50 0 -206.5 -132t-292.5 -311z" />
    <glyph glyph-name="q" unicode="q" horiz-adv-x="723" 
d="M135 23q36 0 97.5 41.5t127.5 113.5q109 118 167.5 196.5t58.5 106.5q0 22 -14 33.5t-42 11.5q-50 0 -116.5 -39.5t-139.5 -113.5q-90 -92 -139 -170.5t-49 -128.5q0 -25 12.5 -38t36.5 -13zM403 0q2 -9 2.5 -15t0.5 -12q0 -53 -36 -133t-100 -168q-103 -145 -186.5 -223
t-134.5 -78q-32 0 -51 21.5t-19 58.5q0 91 353 540l71 91q-60 -48 -103.5 -69t-82.5 -21q-53 0 -83 32.5t-30 90.5q0 68 48.5 151t131.5 154q79 66 168 102.5t172 36.5q41 0 65 -18t26 -49q33 45 49.5 54t52.5 9q19 0 30 -5t11 -13q0 -6 -6.5 -20t-16.5 -25l-329 -431v-6
q0 -11 7.5 -18.5t18.5 -7.5q45 0 122 52t177 150q49 49 97 103.5t55 54.5q6 0 9 -3t3 -9q0 -16 -50.5 -73.5t-133.5 -135.5q-91 -85 -161.5 -128.5t-117.5 -43.5q-11 0 -17 1t-12 3zM365 12l-302 -364l-13 -17q-134 -163 -134 -198q0 -15 8.5 -23t24.5 -8q34 0 88 46
t131 142q99 123 154 223t55 154q0 13 -10 39q-2 5 -2 6z" />
    <glyph glyph-name="r" unicode="r" horiz-adv-x="479" 
d="M369 516q24 0 69 11.5t62 11.5q15 0 19.5 -3t4.5 -12q0 -12 -69 -85q-46 -48 -76 -81q-97 -107 -151 -185t-54 -112q0 -11 9 -18.5t24 -7.5q32 0 100.5 46.5t155.5 129.5q55 53 111.5 115.5t64.5 62.5q5 0 7.5 -2.5t2.5 -9.5q0 -16 -50 -73.5t-134 -135.5
q-94 -88 -166 -133t-119 -45q-45 0 -67.5 23t-22.5 69q0 55 38 123t105 133q41 39 92.5 78.5t51.5 46.5t-11 10.5t-34 3.5q-65 0 -128 -74.5t-77 -74.5q-5 0 -6.5 3t-1.5 11q0 14 55 71t78 99q9 16 23 55q33 90 69 90q15 0 25 -13t10 -34q0 -30 -21.5 -54t-21.5 -26
q0 -7 8 -10.5t25 -3.5z" />
    <glyph glyph-name="s" unicode="s" horiz-adv-x="561" 
d="M188 20q92 18 192 74.5t200 149.5q41 39 85.5 92t55.5 53q6 0 8 -2t2 -8q0 -20 -64.5 -92t-150.5 -140q-109 -84 -215 -127t-207 -43q-70 0 -106.5 24t-36.5 69q0 40 27.5 72t60.5 32q17 0 29 -10t12 -25q0 -16 -46 -34t-46 -46q0 -17 12.5 -28.5t32.5 -12.5q28 0 63 19
t74 55q82 74 133 167.5t51 166.5q0 35 -7 66.5t-21 56.5q-89 -114 -139.5 -169.5t-63.5 -55.5q-4 0 -6 2.5t-2 9.5q0 13 65.5 84t110.5 135q19 27 30 79t44 52q13 0 21.5 -10.5t8.5 -26.5q0 -26 -15 -51t-15 -27l36.5 -66t36.5 -136q0 -101 -66.5 -194t-183.5 -155z" />
    <glyph glyph-name="t" unicode="t" horiz-adv-x="412" 
d="M399 682h-18q-31 0 -44 4t-13 12q0 12 19.5 16.5t86.5 4.5l203 225q20 24 36 29.5t52 5.5q14 0 23.5 -5t9.5 -11q0 -8 -24 -38l-3 -3l-168 -203h29q33 0 47 -4t14 -13q0 -11 -23.5 -15.5t-99.5 -4.5l-379 -451q-52 -61 -73 -99.5t-21 -70.5q0 -14 11.5 -26t27.5 -12
q56 0 134.5 50.5t193.5 162.5q46 45 94 99t55 54q6 0 9.5 -3t3.5 -9q0 -17 -51.5 -75.5t-133.5 -133.5q-99 -93 -173.5 -135.5t-135.5 -42.5q-47 0 -71.5 27.5t-24.5 78.5q0 57 40.5 130t139.5 190z" />
    <glyph glyph-name="u" unicode="u" horiz-adv-x="672" 
d="M336 182q-95 -98 -164 -144t-121 -46q-39 0 -62.5 22.5t-23.5 59.5q0 42 24 90.5t95 140.5l147 188q3 4 8 11q35 47 91 47q20 0 32.5 -5t12.5 -14q0 -7 -5.5 -17t-21.5 -30l-264 -340q-17 -21 -27 -45t-10 -43q0 -11 8.5 -19.5t20.5 -8.5q45 0 159.5 103t251.5 271
q18 22 45 57q69 87 138 87q14 0 24.5 -6t10.5 -13q0 -5 -10.5 -20.5t-37.5 -48.5l-215 -275q-31 -41 -51 -76t-20 -49q0 -10 8.5 -18t17.5 -8q36 0 108.5 51.5t174.5 151.5q47 46 94.5 99.5t54.5 53.5t10 -3t3 -9q0 -16 -50.5 -72.5t-136.5 -136.5q-97 -91 -165 -132.5
t-119 -41.5q-36 0 -56 21t-20 59q0 23 9 47.5t32 60.5z" />
    <glyph glyph-name="v" unicode="v" horiz-adv-x="684" 
d="M598 270q-109 -133 -210 -206.5t-173 -73.5q-43 0 -67.5 24t-24.5 66q0 37 24.5 82.5t102.5 142.5q15 19 42 52q85 103 85 124q0 9 -6.5 15t-16.5 6q-48 0 -131.5 -85t-93.5 -85q-3 0 -5.5 3t-2.5 7q0 32 101 118.5t171 86.5q35 0 52.5 -18.5t17.5 -55.5q0 -67 -108 -195
l-3 -4q-86 -101 -114.5 -145.5t-28.5 -69.5q0 -16 8.5 -23t28.5 -7q45 0 138.5 73.5t188.5 190.5q-12 20 -18 40.5t-6 41.5q0 62 37 109.5t84 47.5q24 0 38.5 -14t14.5 -39q0 -53 -94 -172l-8 -10q13 -9 25 -13.5t24 -4.5q60 0 115.5 54t62.5 54q3 0 4.5 -2t1.5 -8
q0 -30 -62 -79.5t-120 -49.5q-21 0 -39 5.5t-35 16.5zM598 317q49 60 70.5 97t21.5 59q0 13 -6.5 21t-17.5 8q-26 0 -56 -40.5t-30 -86.5q0 -16 4.5 -30t13.5 -28z" />
    <glyph glyph-name="w" unicode="w" horiz-adv-x="831" 
d="M745 317q51 63 72 98.5t21 57.5q0 13 -7.5 21t-19.5 8q-27 0 -55.5 -40.5t-28.5 -86.5q0 -15 4.5 -29t13.5 -29zM336 182q-95 -98 -164 -144t-121 -46q-39 0 -62.5 22.5t-23.5 59.5q0 42 24 90.5t95 140.5l147 188q3 4 8 11q35 47 91 47q20 0 32.5 -5t12.5 -14
q0 -7 -5.5 -17t-21.5 -30l-264 -340q-17 -22 -28 -48t-11 -42q0 -10 9 -18t22 -8q45 0 158 101.5t253 272.5q18 22 45 57q69 87 138 87q14 0 24.5 -6t10.5 -13q0 -5 -10.5 -20.5t-37.5 -48.5l-215 -275q-32 -41 -51.5 -77.5t-19.5 -51.5q0 -11 5 -17.5t15 -6.5
q42 0 134.5 72t195.5 190q-14 22 -20.5 42t-6.5 40q0 62 37.5 109.5t83.5 47.5q25 0 40 -14.5t15 -38.5q0 -33 -20.5 -71.5t-81.5 -110.5q14 -9 26 -13.5t23 -4.5q60 0 115 54t61 54q4 0 6 -2t2 -8q0 -30 -62 -79.5t-120 -49.5q-19 0 -37.5 5t-36.5 15
q-126 -137 -220 -205.5t-156 -68.5q-36 0 -55 20.5t-19 59.5q0 22 8 44.5t33 63.5z" />
    <glyph glyph-name="x" unicode="x" horiz-adv-x="571" 
d="M193 150q-87 -95 -134.5 -127.5t-89.5 -32.5q-25 0 -41 16.5t-16 42.5q0 19 12 33t27 14q20 0 31 -30.5t26 -30.5q20 0 70 44t102 111l38 48q161 205 161 243q0 17 -6.5 25t-20.5 8q-45 0 -127.5 -91t-95.5 -91q-3 0 -5.5 3t-2.5 7q0 10 17.5 33t56.5 63q59 64 105 94.5
t83 30.5q36 0 55 -22.5t19 -65.5q0 -9 -2 -20t-6 -26q68 61 129 96.5t96 35.5q22 0 37.5 -16t15.5 -39q0 -19 -10.5 -31t-26.5 -12q-18 0 -34 23.5t-23 23.5q-30 0 -89 -44.5t-120 -117.5q-91 -109 -137.5 -179.5t-46.5 -98.5q0 -20 11.5 -28.5t37.5 -8.5q40 0 108 45
t160 133q56 54 111 116t63 62q6 0 9 -3t3 -9q0 -14 -40.5 -61t-120.5 -126q-106 -102 -182 -150t-132 -48q-43 0 -68.5 23.5t-25.5 64.5q0 13 4 28.5t15 41.5z" />
    <glyph glyph-name="y" unicode="y" horiz-adv-x="815" 
d="M291 -86q-244 -97 -405.5 -230.5t-161.5 -220.5q0 -29 15.5 -44t47.5 -15q102 0 393 370q71 90 111 140zM432 -41q-314 -381 -435 -482.5t-216 -101.5q-43 0 -67.5 24.5t-24.5 65.5q0 98 179 246.5t445 243.5l125 172q-87 -76 -139 -105.5t-94 -29.5q-38 0 -59 23.5
t-21 64.5q0 40 27 90.5t98 138.5q23 29 62 76q67 80 67 100q0 9 -6.5 15t-16.5 6q-47 0 -132.5 -87t-94.5 -87q-3 0 -5.5 3t-2.5 7q0 11 18 33.5t54 56.5q64 63 112.5 92t87.5 29q36 0 54 -19t18 -57q0 -67 -107 -195l-2 -2q-78 -93 -111.5 -142t-33.5 -68q0 -17 8 -25
t25 -8q45 0 143.5 90.5t247.5 267.5q30 36 68 87q54 73 110 73q19 0 30 -5t11 -13q0 -7 -6 -20.5t-14 -24.5l-371 -486q258 104 464 339q38 44 46 44q6 0 9 -3t3 -9q0 -48 -170.5 -192t-382.5 -226z" />
    <glyph glyph-name="z" unicode="z" horiz-adv-x="639" 
d="M43 -78q-248 -100 -407.5 -235t-159.5 -230q0 -24 11.5 -37.5t33.5 -13.5q80 0 242 153t280 363zM20 33q-15 15 -28.5 22.5t-26.5 7.5q-17 0 -31 -9.5t-14 -18.5q0 -12 7.5 -18.5t21.5 -6.5q12 0 28.5 5.5t42.5 17.5zM119 -47q0 -89 -50 -177t-155 -184
q-111 -100 -217.5 -159.5t-169.5 -59.5q-41 0 -62.5 21t-21.5 61q0 111 165.5 251t440.5 255q0 16 -3 26t-9 17l-15 -5q-57 -19 -83 -19q-22 0 -37 13.5t-15 33.5q0 28 24 45.5t62 17.5q21 0 40.5 -8t45.5 -27q169 93 280.5 218.5t111.5 205.5q0 21 -13.5 32t-38.5 11
q-71 0 -168 -95t-102 -95q-3 0 -5.5 3t-2.5 7q0 11 19.5 35t58.5 61q63 62 117 91.5t104 29.5q52 0 80 -32t28 -91q0 -108 -114 -217t-319 -194q5 -9 9.5 -19t8.5 -22q172 59 278 108t187 105q80 54 147 123t70 69q5 0 8.5 -3t3.5 -7q0 -63 -201 -197.5t-487 -228.5z" />
    <glyph glyph-name="braceleft" unicode="{" horiz-adv-x="1647" 
d="M1569 1567h-10q-216 0 -347 -74q-137 -78 -282 -274l-162 -220q-115 -153 -213 -213q-100 -55 -281 -71l-41 -56q154 -16 173 -71q16 -60 -99 -213l-162 -221q-145 -197 -122 -271q24 -71 239 -71h10l35 47q-153 2 -167.5 53t100.5 207l108 145q166 230 164 309
q-2 82 -158 113q193 27 324 115q125 82 291 307l108 145q119 160 209 211q96 54 248 56z" />
    <glyph glyph-name="bar" unicode="|" horiz-adv-x="512" 
d="M397 1616v-2046h90v2046h-90z" />
    <glyph glyph-name="braceright" unicode="}" horiz-adv-x="1303" 
d="M958 1567l-32 -47q149 -2 170 -58q18 -53 -86 -209l-101 -145q-151 -227 -141 -307q10 -88 162 -115q-99 -16 -178.5 -45t-139.5 -70q-120 -84 -270 -307l-98 -145q-105 -154 -197 -207q-82 -49 -240 -53l-32 -47h10q211 0 340 73q127 74 264 269l148 221
q106 155 202 213q95 55 275 71l39 56q-160 14 -181 71q-18 58 86 213l150 220q131 196 102 274q-30 74 -243 74h-9z" />
    <glyph glyph-name="asciitilde" unicode="~" horiz-adv-x="1073" 
d="M1024 788q-102 -83 -170 -120q-72 -37 -121 -37q-55 0 -139 59q-16 12 -14 10q-2 0 -11 9q-84 59 -145 59q-55 0 -125 -35q-74 -41 -160 -110l-30 -93q102 88 170 123q63 37 120 37q54 0 138 -59q8 -4 11 -7t5 -6q4 -4 10 -8q88 -59 146 -59q51 0 125 37q67 35 159 108z
" />
    <glyph glyph-name="uni00A0" unicode="&#xa0;" 
d="M70 27v1376h1263v-1376h-1263zM41 0h1321v1427h-1321v-1427z" />
    <glyph glyph-name="exclamdown" unicode="&#xa1;" horiz-adv-x="815" 
d="M1217 1307q21 0 35 -16t14 -42q0 -37 -23 -64.5t-53 -27.5q-22 0 -36.5 16t-14.5 39q0 38 24 66.5t54 28.5zM1071 1069q0 -17 -152.5 -218.5t-277.5 -377.5l-25 -36q-319 -447 -364 -447q-19 0 -35 15.5t-16 35.5q0 45 214 287q120 135 193 221q125 146 292 348
q149 182 165 182q3 0 4.5 -2.5t1.5 -7.5z" />
    <glyph glyph-name="cent" unicode="&#xa2;" horiz-adv-x="664" 
d="M96 76l299 404q-1 3 -1.5 5t-0.5 4q0 5 3 12t3 11q0 7 -2 9.5t-6 2.5q-20 0 -55.5 -24t-83.5 -70q-85 -83 -129.5 -160t-44.5 -139q0 -13 4 -26t14 -29zM92 6l-88 -119q-28 -39 -41.5 -52t-23.5 -13q-6 0 -8.5 3t-2.5 9q0 18 39 70q7 9 11 15l79 106q-25 20 -37 53
t-12 80q0 85 49 168t138 147q70 51 128.5 74.5t114.5 23.5h23l59 76l3 4q33 41 44 41q7 0 11 -4.5t4 -11.5q-1 -6 -6 -15t-15 -22l-65 -86q7 -10 10.5 -20t3.5 -19q0 -26 -18.5 -45.5t-42.5 -19.5q-6 0 -12 1.5t-13 4.5l-295 -400l9 -3q14 -5 22 -5q46 0 118.5 52t184.5 165
q35 35 74 80t47 45q6 0 9 -3t3 -9q0 -14 -35 -54t-123 -126q-105 -104 -177 -150.5t-126 -46.5q-9 0 -19.5 1.5t-23.5 4.5z" />
    <glyph glyph-name="sterling" unicode="&#xa3;" horiz-adv-x="664" 
d="M-33 47q-39 21 -72 31t-59 10q-20 0 -31.5 -7.5t-11.5 -21.5q0 -17 21 -28t57 -11q21 0 43 6t53 21zM2 29q-39 -19 -73 -28t-64 -9q-50 0 -80.5 18.5t-30.5 48.5q0 26 24 44t60 18q25 0 61 -11t105 -40q39 17 90.5 79t122.5 179h-104q-19 0 -27 4t-8 12t10 13t27 5h123
q155 243 264 343t213 100q55 0 87 -30.5t32 -84.5q0 -39 -27 -84t-49 -45q-3 0 -4.5 1.5t-1.5 4.5q0 12 24.5 52.5t24.5 76.5q0 35 -21.5 55.5t-58.5 20.5q-77 0 -152.5 -75.5t-228.5 -334.5h102q19 0 27 -3.5t8 -12.5t-9 -13.5t-28 -4.5h-123q-67 -104 -132.5 -172
t-135.5 -105q41 -16 75 -23.5t66 -7.5q134 0 259 104q29 23 36 23t10 -1.5t3 -6.5q0 -37 -102 -92t-216 -55q-38 0 -82.5 9t-95.5 28z" />
    <glyph glyph-name="currency" unicode="&#xa4;" 
d="M70 27v1376h1263v-1376h-1263zM41 0h1321v1427h-1321v-1427z" />
    <glyph glyph-name="yen" unicode="&#xa5;" 
d="M70 27v1376h1263v-1376h-1263zM41 0h1321v1427h-1321v-1427z" />
    <glyph glyph-name="brokenbar" unicode="&#xa6;" horiz-adv-x="1024" 
d="M467 408h90v-758h-90v758zM467 1432h90v-758h-90v758z" />
    <glyph glyph-name="section" unicode="&#xa7;" horiz-adv-x="1024" 
d="M766 346q131 6 203.5 63t72.5 154q0 23 -6 53t-18 62l-119 321q-131 -6 -203.5 -63t-72.5 -154q0 -20 6.5 -48.5t19.5 -63.5zM676 283l-84 225q-21 56 -32 107.5t-11 95.5q0 143 92 231t248 94q-14 44 -19.5 73t-5.5 52q0 125 109 214t262 89q98 0 178 -37.5t80 -74.5
q0 -17 -13 -31t-28 -14q-8 0 -96 48t-191 48q-96 0 -151.5 -51.5t-55.5 -141.5q0 -30 8.5 -66t24.5 -79l84 -227q20 -54 30.5 -105.5t10.5 -97.5q0 -141 -90.5 -229t-244.5 -97q12 -40 18 -71t6 -54q0 -122 -112 -212.5t-267 -90.5q-100 0 -183 39t-83 80q0 18 14 32.5
t33 14.5q8 0 98 -52t197 -52q94 0 150.5 52.5t56.5 139.5q0 29 -8 64t-25 84z" />
    <glyph glyph-name="dieresis" unicode="&#xa8;" horiz-adv-x="1024" 
d="M874 745q0 42 24 68.5t60 26.5q31 0 47.5 -17.5t16.5 -50.5q0 -37 -24.5 -63.5t-59.5 -26.5q-29 0 -46.5 17t-17.5 46zM541 745q0 42 23.5 68.5t60.5 26.5q31 0 48 -18t17 -50q0 -37 -24.5 -63.5t-59.5 -26.5q-30 0 -47.5 17.5t-17.5 45.5z" />
    <glyph glyph-name="copyright" unicode="&#xa9;" horiz-adv-x="1683" 
d="M1118 1093l31 1v-308h-37q-32 136 -104 205.5t-181 69.5q-127 0 -192.5 -95.5t-65.5 -281.5q0 -190 70 -286.5t207 -96.5q90 0 161 42.5t126 129.5l30 -20q-55 -102 -140.5 -154.5t-195.5 -52.5q-164 0 -279.5 122t-115.5 296q0 184 113.5 310t277.5 126q71 0 145 -34
t85 -34q28 0 44.5 16t20.5 45zM844 1298q-123 0 -235.5 -47t-198.5 -135q-88 -89 -134.5 -201.5t-46.5 -236.5q0 -126 46.5 -238.5t134.5 -199.5q88 -89 198 -135t234 -46q126 0 236.5 46.5t195.5 134.5q88 91 135 203.5t47 234.5q0 123 -48 240.5t-132 201.5
q-85 85 -198 131.5t-234 46.5zM844 1370q134 0 261 -52.5t224 -148.5q96 -95 149.5 -225t53.5 -266q0 -135 -53 -261t-152 -227q-97 -98 -221.5 -150t-263.5 -52q-138 0 -262.5 51.5t-225.5 150.5q-99 100 -150.5 224t-51.5 264q0 138 51 263t149 224q97 98 225 151.5
t267 53.5z" />
    <glyph glyph-name="ordfeminine" unicode="&#xaa;" 
d="M70 27v1376h1263v-1376h-1263zM41 0h1321v1427h-1321v-1427z" />
    <glyph glyph-name="guillemotleft" unicode="&#xab;" horiz-adv-x="807" 
d="M492 301l284 211q9 6 17 9t16 3q10 0 14 -3.5t4 -12.5q0 -12 -20 -29l-2 -2l-221 -190l67 -213q3 -7 4.5 -13.5t1.5 -11.5q0 -10 -4.5 -16t-11.5 -6q-9 0 -16 6t-17 24zM217 301l285 211q10 7 16.5 9.5t13.5 2.5q10 0 14.5 -4t4.5 -12q0 -7 -3.5 -13t-17.5 -18l-223 -190
l70 -213q3 -8 4.5 -14.5t1.5 -10.5q0 -9 -5.5 -15.5t-12.5 -6.5q-14 0 -30 28l-1 2z" />
    <glyph glyph-name="logicalnot" unicode="&#xac;" 
d="M70 27v1376h1263v-1376h-1263zM41 0h1321v1427h-1321v-1427z" />
    <glyph glyph-name="uni00AD" unicode="&#xad;" 
d="M70 27v1376h1263v-1376h-1263zM41 0h1321v1427h-1321v-1427z" />
    <glyph glyph-name="registered" unicode="&#xae;" horiz-adv-x="1683" 
d="M717 717q12 -1 26.5 -1.5t40.5 -0.5q128 0 195.5 45t67.5 131q0 76 -58.5 121t-159.5 45q-54 0 -83 -20t-29 -56v-264zM469 1087h391q147 0 231.5 -52.5t84.5 -143.5q0 -75 -70 -122.5t-221 -76.5q92 -30 139.5 -78.5t71.5 -136.5q5 -20 12 -59q15 -88 55 -88
q41 0 60 30.5t20 97.5l37 1v-8q0 -88 -37.5 -132.5t-112.5 -44.5q-46 0 -79 18.5t-45 51.5q-16 39 -17.5 113.5t-9.5 99.5q-23 66 -76 96.5t-147 30.5q-6 0 -19 -1t-20 -1v-248q0 -56 29 -78t108 -25v-38h-385v38q79 3 108 25t29 78v512q0 57 -30 80t-107 25v36zM844 1298
q-123 0 -235.5 -47t-198.5 -135q-88 -89 -134.5 -201.5t-46.5 -236.5q0 -126 46.5 -238.5t134.5 -199.5q88 -89 198 -135t234 -46q126 0 236.5 46.5t195.5 134.5q88 91 135 203.5t47 234.5q0 123 -48 240.5t-132 201.5q-85 85 -198 131.5t-234 46.5zM844 1370
q134 0 261 -52.5t224 -148.5q96 -95 149.5 -225t53.5 -266q0 -135 -53 -261t-152 -227q-97 -98 -221.5 -150t-263.5 -52q-138 0 -262.5 51.5t-225.5 150.5q-99 100 -150.5 224t-51.5 264q0 138 51 263t149 224q97 98 225 151.5t267 53.5z" />
    <glyph glyph-name="macron" unicode="&#xaf;" 
d="M70 27v1376h1263v-1376h-1263zM41 0h1321v1427h-1321v-1427z" />
    <glyph glyph-name="degree" unicode="&#xb0;" 
d="M70 27v1376h1263v-1376h-1263zM41 0h1321v1427h-1321v-1427z" />
    <glyph glyph-name="plusminus" unicode="&#xb1;" horiz-adv-x="1706" 
d="M254 141h1198v-82h-1198v82zM813 1161h80v-354h559v-80h-559v-352h-80v352h-559v80h559v354z" />
    <glyph glyph-name="uni00B2" unicode="&#xb2;" 
d="M70 27v1376h1263v-1376h-1263zM41 0h1321v1427h-1321v-1427z" />
    <glyph glyph-name="uni00B3" unicode="&#xb3;" 
d="M70 27v1376h1263v-1376h-1263zM41 0h1321v1427h-1321v-1427z" />
    <glyph glyph-name="acute" unicode="&#xb4;" horiz-adv-x="1024" 
d="M698 627q-9 0 -13.5 3.5t-4.5 10.5q0 9 64 52.5t106 103.5q17 25 40 82q36 96 83 96q28 0 44.5 -16.5t16.5 -45.5q0 -50 -48 -105.5t-140 -111.5q-67 -40 -98 -54.5t-50 -14.5z" />
    <glyph glyph-name="mu" unicode="&#xb5;" horiz-adv-x="1051" 
d="M162 190q-21 -131 -41 -330q-28 -276 -101 -276q-29 0 -49 18t-20 44q0 39 59.5 287t98.5 432l108 520h119l-111 -518q-4 -20 -6 -41.5t-2 -46.5q0 -95 46.5 -153t121.5 -58q99 0 170 85t109 250l110 482h119l-117 -527q-13 -59 -19.5 -104.5t-6.5 -73.5q0 -44 20 -69
t55 -25q43 0 77.5 27t53.5 75q13 30 30 79q25 71 44 71q12 0 19.5 -8.5t7.5 -22.5q0 -30 -15.5 -82.5t-37.5 -93.5q-40 -72 -93.5 -108.5t-117.5 -36.5q-70 0 -107 45t-37 129q0 5 1 16t1 17q-43 -108 -110 -160.5t-160 -52.5t-149 53.5t-70 156.5z" />
    <glyph glyph-name="paragraph" unicode="&#xb6;" 
d="M70 27v1376h1263v-1376h-1263zM41 0h1321v1427h-1321v-1427z" />
    <glyph glyph-name="periodcentered" unicode="&#xb7;" horiz-adv-x="332" 
d="M111 395q0 21 16.5 38.5t38.5 17.5q23 0 39 -16.5t16 -39.5t-16 -39t-39 -16q-24 0 -39.5 16.5t-15.5 38.5z" />
    <glyph glyph-name="periodcentered" unicode="&#x2219;" horiz-adv-x="332" 
d="M111 395q0 21 16.5 38.5t38.5 17.5q23 0 39 -16.5t16 -39.5t-16 -39t-39 -16q-24 0 -39.5 16.5t-15.5 38.5z" />
    <glyph glyph-name="cedilla" unicode="&#xb8;" horiz-adv-x="1024" 
d="M223 -119q27 15 56.5 22t66.5 7q75 0 113.5 -32t38.5 -95q0 -74 -56.5 -119t-150.5 -45q-103 0 -188 32.5t-85 55.5q0 7 5 12t12 5q9 0 86 -23t141 -23q62 0 100.5 27.5t38.5 69.5q0 40 -24.5 57.5t-81.5 17.5q-10 0 -24 -2t-29 -6z" />
    <glyph glyph-name="uni00B9" unicode="&#xb9;" 
d="M70 27v1376h1263v-1376h-1263zM41 0h1321v1427h-1321v-1427z" />
    <glyph glyph-name="ordmasculine" unicode="&#xba;" 
d="M70 27v1376h1263v-1376h-1263zM41 0h1321v1427h-1321v-1427z" />
    <glyph glyph-name="guillemotright" unicode="&#xbb;" horiz-adv-x="807" 
d="M719 250l-285 -211q-10 -7 -16.5 -9.5t-14.5 -2.5q-10 0 -14 4t-4 12q0 12 19 28l4 3l221 190l-68 213q-3 8 -4.5 14.5t-1.5 10.5q0 10 4.5 16t11.5 6q9 0 15 -5.5t16 -24.5zM440 250l-284 -211q-11 -7 -17.5 -9.5t-13.5 -2.5q-10 0 -14 3.5t-5 12.5q1 8 4.5 14t15.5 16
l224 191l-70 214q-1 4 -2 9.5t-2 14.5q1 11 5 16.5t12 5.5q9 0 14.5 -5t16.5 -25z" />
    <glyph glyph-name="onequarter" unicode="&#xbc;" horiz-adv-x="1071" 
d="M610 168q-26 0 -43.5 -6t-17.5 -15q0 -5 3.5 -7.5t10.5 -2.5q9 0 21.5 8t25.5 23zM745 203q134 187 193 256t82 69q5 0 7.5 -2.5t2.5 -5.5q0 -2 -84 -102t-164 -217q105 10 163 78q11 14 16 14q2 0 4 -3.5t2 -6.5q0 -38 -59 -75t-146 -42q-89 -123 -135 -173t-68 -50
q-5 0 -6.5 1.5t-1.5 4.5q0 7 62 77.5t112 143.5q-17 0 -41 -1t-31 -1q-20 -24 -45 -38.5t-45 -14.5q-21 0 -32 8.5t-11 23.5q0 25 28 38.5t81 13.5q69 87 104 183.5t47 96.5q16 0 28.5 -11t12.5 -24q0 -25 -38.5 -90.5t-106.5 -154.5q15 0 53 3q10 0 16 1zM936 768
q20 15 34 23t21 8t12 -3t5 -8q0 -18 -40 -49q-10 -7 -14 -10l-950 -721q-27 -21 -37 -27t-16 -6q-8 1 -12 3.5t-5 7.5q0 20 41 51q8 6 11 8zM356 690q-57 -48 -103.5 -79t-57.5 -31q-6 0 -9 4t-4 12q0 10 42 35q36 22 61 39q28 19 72 52q84 60 106 60q6 0 11 -4t5 -10
q0 -1 -77.5 -91.5t-151.5 -199.5q-19 -27 -46 -70q-42 -67 -69 -67q-15 0 -24 4t-9 10q0 35 224 301z" />
    <glyph glyph-name="onehalf" unicode="&#xbd;" horiz-adv-x="1071" 
d="M578 86q14 7 23 9.5t20 2.5q21 0 52.5 -23.5t51.5 -23.5q25 0 61 42t39 42q4 0 6.5 -4.5t2.5 -11.5q0 -25 -51 -78t-87 -53q-21 0 -51 28.5t-53 28.5q-18 0 -51.5 -26.5t-44.5 -26.5q-5 0 -7 2.5t-2 7.5q0 29 30 65t85 72q29 19 86 54q209 128 209 208q0 27 -13 40.5
t-40 13.5q-55 0 -114.5 -48t-59.5 -94q0 -14 4.5 -21t13.5 -7q38 0 78 34.5t47 34.5q3 0 5.5 -3t2.5 -7q0 -18 -46 -53t-85 -35q-24 0 -39.5 16t-15.5 39q0 59 73.5 116.5t155.5 57.5q44 0 73.5 -27t29.5 -69q0 -90 -208 -200q-116 -61 -181 -103zM926 768q21 17 33.5 24
t19.5 7t11.5 -3t4.5 -8q0 -19 -41 -51q-6 -5 -10 -8l-952 -721q-27 -21 -37.5 -27t-15.5 -6q-7 0 -12 3t-5 8q0 19 40 49q8 6 13 10zM356 690q-57 -48 -103.5 -79t-57.5 -31q-6 0 -9 4t-4 12q0 10 42 35q36 22 61 39q28 19 72 52q84 60 106 60q6 0 11 -4t5 -10
q0 -1 -77.5 -91.5t-151.5 -199.5q-19 -27 -46 -70q-42 -67 -69 -67q-15 0 -24 4t-9 10q0 35 224 301z" />
    <glyph glyph-name="threequarters" unicode="&#xbe;" horiz-adv-x="1124" 
d="M1024 768q20 15 34 23t21 8t12 -3t5 -8q0 -18 -40 -49q-9 -6 -14 -10l-950 -721q-27 -21 -37 -27t-16 -6q-10 1 -13 3t-3 8q0 19 46 55l5 4zM404 582q8 -18 13 -35.5t5 -32.5q0 -73 -73.5 -139t-160.5 -66q-51 0 -79.5 24t-28.5 66q0 53 46 100.5t95 47.5q26 0 42 -15.5
t16 -39.5q0 -36 -29 -66.5t-55 -30.5q-4 0 -6.5 2t-2.5 4q0 4 31 32t31 61q0 10 -8 16t-21 6q-34 0 -71 -38.5t-37 -78.5q0 -27 16 -43t43 -16q64 0 137.5 73t73.5 132q0 8 -7 25q0 1 -1 3q-2 0 -6 -1q-39 -11 -56 -11q-22 0 -34.5 9.5t-12.5 25.5q0 17 13.5 27t35.5 10
q17 0 33.5 -6.5t36.5 -20.5q55 33 85 67t30 64q0 17 -12.5 26t-36.5 9q-38 0 -73.5 -26t-35.5 -54q0 -6 5 -9t17 -3q15 0 37 9t29 9q3 0 4.5 -2t1.5 -6q0 -10 -24 -24.5t-52 -14.5q-22 0 -34.5 12t-12.5 33q0 36 44 69.5t96 33.5q43 0 69.5 -21t26.5 -55q0 -39 -36.5 -75
t-106.5 -66zM358 592q-12 9 -24 13.5t-25 4.5q-8 0 -14 -3.5t-6 -8.5q0 -7 6.5 -10.5t21.5 -3.5q11 0 31 5q7 2 10 3zM662 168q-27 0 -43.5 -6t-16.5 -15q0 -5 3.5 -7.5t10.5 -2.5q9 0 20 7.5t26 23.5zM799 203q133 187 192 256t82 69q4 0 6 -2t2 -6q0 -2 -84 -102
t-163 -217q104 10 162 78q11 14 16 14q2 0 5 -4t3 -6q0 -38 -60 -75t-146 -42q-90 -123 -135.5 -173t-68.5 -50q-4 0 -6 1.5t-2 4.5q0 7 63 77t113 144q-19 -1 -36.5 -1.5t-36.5 -0.5q-21 -25 -45 -39t-44 -14t-31.5 8.5t-11.5 23.5q0 25 28 38.5t81 13.5q68 87 102.5 183.5
t46.5 96.5q17 0 29 -11t12 -24q0 -26 -38 -92t-105 -153q15 0 52 2q11 1 18 2z" />
    <glyph glyph-name="questiondown" unicode="&#xbf;" 
d="M70 27v1376h1263v-1376h-1263zM41 0h1321v1427h-1321v-1427z" />
    <glyph glyph-name="Agrave" unicode="&#xc0;" horiz-adv-x="1763" 
d="M1917 1198q17 -21 31.5 -45.5t27.5 -54.5q76 93 164 184t88 100q0 3 -2.5 4.5t-9.5 2.5q-28 0 -108 -51t-191 -140zM1567 336q171 45 293 215t122 350q0 20 -2.5 41t-7.5 43q-121 -183 -251.5 -400.5t-153.5 -248.5zM1421 690q21 -53 31 -105.5t10 -103.5q0 -32 -6.5 -73
t-21.5 -103l29 47q306 484 487 715q-8 26 -22.5 50t-39.5 54q-176 -168 -422 -433zM1075 373q37 32 107.5 107t193.5 214q-33 61 -81.5 92t-110.5 31q-95 0 -161.5 -68.5t-66.5 -166.5q0 -65 30 -117.5t89 -91.5zM1106 354q50 -30 105 -45.5t114 -15.5q15 0 38.5 2.5
t31.5 3.5q16 44 24 89t8 93t-8.5 92t-25.5 86q-78 -87 -240 -256zM1079 328q-184 -181 -331.5 -263.5t-284.5 -82.5q-172 0 -279.5 116t-107.5 303q0 224 145 387.5t336 163.5q122 0 200.5 -74.5t78.5 -189.5q0 -70 -32.5 -149t-88.5 -144q-50 -59 -115.5 -93t-128.5 -34
q-87 0 -139.5 54t-52.5 143q0 116 85 203t207 92q-110 -56 -168.5 -134.5t-58.5 -168.5q0 -69 38 -110.5t101 -41.5q110 0 214 123t104 254q0 106 -68.5 172t-177.5 66q-176 0 -310 -153.5t-134 -360.5q0 -175 95.5 -285.5t246.5 -110.5q135 0 285.5 85.5t310.5 252.5
q-70 52 -108 122t-38 148q0 109 72.5 179.5t181.5 70.5q73 0 135.5 -37.5t108.5 -109.5q15 15 173.5 182t291.5 295q-66 69 -171.5 107t-230.5 38q-123 0 -238.5 -41t-228.5 -126q-37 -28 -78 -67.5t-55 -39.5q-1 0 -3.5 2.5t-2.5 3.5q0 18 29 48.5t94 80.5
q111 85 232 127.5t251 42.5t237.5 -38t190.5 -113q136 108 256 175.5t164 67.5q10 0 17.5 -4.5t7.5 -9.5q0 -10 -117 -146t-215 -280q5 -34 7.5 -59t2.5 -47q0 -223 -137 -402t-342 -223q-95 -127 -188.5 -218t-116.5 -91q-3 0 -4.5 2.5t-1.5 7.5q0 4 18 25q96 113 139 243
q-10 -1 -20.5 -1.5t-30.5 -0.5q-73 0 -137 16.5t-115 49.5zM2366 1579q0 -6 -4 -10t-11 -4q-34 0 -119 105t-85 171q0 39 19 60.5t52 21.5q26 0 41 -19t15 -53q0 -1 -1 -24.5t-1 -44.5q0 -78 73 -170q21 -27 21 -33z" />
    <glyph glyph-name="Aacute" unicode="&#xc1;" horiz-adv-x="1763" 
d="M1917 1198q17 -21 31.5 -45.5t27.5 -54.5q76 93 164 184t88 100q0 3 -2.5 4.5t-9.5 2.5q-28 0 -108 -51t-191 -140zM1567 336q171 45 293 215t122 350q0 20 -2.5 41t-7.5 43q-121 -183 -251.5 -400.5t-153.5 -248.5zM1421 690q21 -53 31 -105.5t10 -103.5q0 -32 -6.5 -73
t-21.5 -103l29 47q306 484 487 715q-8 26 -22.5 50t-39.5 54q-176 -168 -422 -433zM1075 373q37 32 107.5 107t193.5 214q-33 61 -81.5 92t-110.5 31q-95 0 -161.5 -68.5t-66.5 -166.5q0 -65 30 -117.5t89 -91.5zM1106 354q50 -30 105 -45.5t114 -15.5q15 0 38.5 2.5
t31.5 3.5q16 44 24 89t8 93t-8.5 92t-25.5 86q-78 -87 -240 -256zM1079 328q-184 -181 -331.5 -263.5t-284.5 -82.5q-172 0 -279.5 116t-107.5 303q0 224 145 387.5t336 163.5q122 0 200.5 -74.5t78.5 -189.5q0 -70 -32.5 -149t-88.5 -144q-50 -59 -115.5 -93t-128.5 -34
q-87 0 -139.5 54t-52.5 143q0 116 85 203t207 92q-110 -56 -168.5 -134.5t-58.5 -168.5q0 -69 38 -110.5t101 -41.5q110 0 214 123t104 254q0 106 -68.5 172t-177.5 66q-176 0 -310 -153.5t-134 -360.5q0 -175 95.5 -285.5t246.5 -110.5q135 0 285.5 85.5t310.5 252.5
q-70 52 -108 122t-38 148q0 109 72.5 179.5t181.5 70.5q73 0 135.5 -37.5t108.5 -109.5q15 15 173.5 182t291.5 295q-66 69 -171.5 107t-230.5 38q-123 0 -238.5 -41t-228.5 -126q-37 -28 -78 -67.5t-55 -39.5q-1 0 -3.5 2.5t-2.5 3.5q0 18 29 48.5t94 80.5
q111 85 232 127.5t251 42.5t237.5 -38t190.5 -113q136 108 256 175.5t164 67.5q10 0 17.5 -4.5t7.5 -9.5q0 -10 -117 -146t-215 -280q5 -34 7.5 -59t2.5 -47q0 -223 -137 -402t-342 -223q-95 -127 -188.5 -218t-116.5 -91q-3 0 -4.5 2.5t-1.5 7.5q0 4 18 25q96 113 139 243
q-10 -1 -20.5 -1.5t-30.5 -0.5q-73 0 -137 16.5t-115 49.5zM2218 1567q-9 0 -13.5 3.5t-4.5 10.5q0 9 64 52.5t106 103.5q17 25 40 82q36 96 83 96q28 0 44.5 -16.5t16.5 -45.5q0 -50 -48 -105.5t-140 -111.5q-67 -40 -98 -54.5t-50 -14.5z" />
    <glyph glyph-name="Acircumflex" unicode="&#xc2;" horiz-adv-x="1763" 
d="M1917 1198q17 -21 31.5 -45.5t27.5 -54.5q76 93 164 184t88 100q0 3 -2.5 4.5t-9.5 2.5q-28 0 -108 -51t-191 -140zM1567 336q171 45 293 215t122 350q0 20 -2.5 41t-7.5 43q-121 -183 -251.5 -400.5t-153.5 -248.5zM1421 690q21 -53 31 -105.5t10 -103.5q0 -32 -6.5 -73
t-21.5 -103l29 47q306 484 487 715q-8 26 -22.5 50t-39.5 54q-176 -168 -422 -433zM1075 373q37 32 107.5 107t193.5 214q-33 61 -81.5 92t-110.5 31q-95 0 -161.5 -68.5t-66.5 -166.5q0 -65 30 -117.5t89 -91.5zM1106 354q50 -30 105 -45.5t114 -15.5q15 0 38.5 2.5
t31.5 3.5q16 44 24 89t8 93t-8.5 92t-25.5 86q-78 -87 -240 -256zM1079 328q-184 -181 -331.5 -263.5t-284.5 -82.5q-172 0 -279.5 116t-107.5 303q0 224 145 387.5t336 163.5q122 0 200.5 -74.5t78.5 -189.5q0 -70 -32.5 -149t-88.5 -144q-50 -59 -115.5 -93t-128.5 -34
q-87 0 -139.5 54t-52.5 143q0 116 85 203t207 92q-110 -56 -168.5 -134.5t-58.5 -168.5q0 -69 38 -110.5t101 -41.5q110 0 214 123t104 254q0 106 -68.5 172t-177.5 66q-176 0 -310 -153.5t-134 -360.5q0 -175 95.5 -285.5t246.5 -110.5q135 0 285.5 85.5t310.5 252.5
q-70 52 -108 122t-38 148q0 109 72.5 179.5t181.5 70.5q73 0 135.5 -37.5t108.5 -109.5q15 15 173.5 182t291.5 295q-66 69 -171.5 107t-230.5 38q-123 0 -238.5 -41t-228.5 -126q-37 -28 -78 -67.5t-55 -39.5q-1 0 -3.5 2.5t-2.5 3.5q0 18 29 48.5t94 80.5
q111 85 232 127.5t251 42.5t237.5 -38t190.5 -113q136 108 256 175.5t164 67.5q10 0 17.5 -4.5t7.5 -9.5q0 -10 -117 -146t-215 -280q5 -34 7.5 -59t2.5 -47q0 -223 -137 -402t-342 -223q-95 -127 -188.5 -218t-116.5 -91q-3 0 -4.5 2.5t-1.5 7.5q0 4 18 25q96 113 139 243
q-10 -1 -20.5 -1.5t-30.5 -0.5q-73 0 -137 16.5t-115 49.5zM2374 1724l-240 -127q-54 -29 -81 -40t-41 -11q-11 0 -17 5t-6 14q0 16 75 62q39 23 62 38q92 58 182 125.5t97 67.5t15 -7t11 -16l68 -244q1 -4 3.5 -13.5t2.5 -12.5q0 -10 -4.5 -16.5t-11.5 -6.5q-26 0 -87 126z
" />
    <glyph glyph-name="Atilde" unicode="&#xc3;" horiz-adv-x="1763" 
d="M1917 1198q17 -21 31.5 -45.5t27.5 -54.5q76 93 164 184t88 100q0 3 -2.5 4.5t-9.5 2.5q-28 0 -108 -51t-191 -140zM1567 336q171 45 293 215t122 350q0 20 -2.5 41t-7.5 43q-121 -183 -251.5 -400.5t-153.5 -248.5zM1421 690q21 -53 31 -105.5t10 -103.5q0 -32 -6.5 -73
t-21.5 -103l29 47q306 484 487 715q-8 26 -22.5 50t-39.5 54q-176 -168 -422 -433zM1075 373q37 32 107.5 107t193.5 214q-33 61 -81.5 92t-110.5 31q-95 0 -161.5 -68.5t-66.5 -166.5q0 -65 30 -117.5t89 -91.5zM1106 354q50 -30 105 -45.5t114 -15.5q15 0 38.5 2.5
t31.5 3.5q16 44 24 89t8 93t-8.5 92t-25.5 86q-78 -87 -240 -256zM1079 328q-184 -181 -331.5 -263.5t-284.5 -82.5q-172 0 -279.5 116t-107.5 303q0 224 145 387.5t336 163.5q122 0 200.5 -74.5t78.5 -189.5q0 -70 -32.5 -149t-88.5 -144q-50 -59 -115.5 -93t-128.5 -34
q-87 0 -139.5 54t-52.5 143q0 116 85 203t207 92q-110 -56 -168.5 -134.5t-58.5 -168.5q0 -69 38 -110.5t101 -41.5q110 0 214 123t104 254q0 106 -68.5 172t-177.5 66q-176 0 -310 -153.5t-134 -360.5q0 -175 95.5 -285.5t246.5 -110.5q135 0 285.5 85.5t310.5 252.5
q-70 52 -108 122t-38 148q0 109 72.5 179.5t181.5 70.5q73 0 135.5 -37.5t108.5 -109.5q15 15 173.5 182t291.5 295q-66 69 -171.5 107t-230.5 38q-123 0 -238.5 -41t-228.5 -126q-37 -28 -78 -67.5t-55 -39.5q-1 0 -3.5 2.5t-2.5 3.5q0 18 29 48.5t94 80.5
q111 85 232 127.5t251 42.5t237.5 -38t190.5 -113q136 108 256 175.5t164 67.5q10 0 17.5 -4.5t7.5 -9.5q0 -10 -117 -146t-215 -280q5 -34 7.5 -59t2.5 -47q0 -223 -137 -402t-342 -223q-95 -127 -188.5 -218t-116.5 -91q-3 0 -4.5 2.5t-1.5 7.5q0 4 18 25q96 113 139 243
q-10 -1 -20.5 -1.5t-30.5 -0.5q-73 0 -137 16.5t-115 49.5zM2188 1792q40 0 125.5 -38t121.5 -38q46 0 81.5 50.5t45.5 50.5q9 0 15 -5t6 -12q0 -49 -56 -119.5t-120 -70.5q-42 0 -126.5 37.5t-121.5 37.5q-46 0 -81.5 -49t-45.5 -49q-9 0 -14.5 4t-5.5 11q0 49 55.5 119.5
t120.5 70.5z" />
    <glyph glyph-name="Adieresis" unicode="&#xc4;" horiz-adv-x="1763" 
d="M1917 1198q17 -21 31.5 -45.5t27.5 -54.5q76 93 164 184t88 100q0 3 -2.5 4.5t-9.5 2.5q-28 0 -108 -51t-191 -140zM1567 336q171 45 293 215t122 350q0 20 -2.5 41t-7.5 43q-121 -183 -251.5 -400.5t-153.5 -248.5zM1421 690q21 -53 31 -105.5t10 -103.5q0 -32 -6.5 -73
t-21.5 -103l29 47q306 484 487 715q-8 26 -22.5 50t-39.5 54q-176 -168 -422 -433zM1075 373q37 32 107.5 107t193.5 214q-33 61 -81.5 92t-110.5 31q-95 0 -161.5 -68.5t-66.5 -166.5q0 -65 30 -117.5t89 -91.5zM1106 354q50 -30 105 -45.5t114 -15.5q15 0 38.5 2.5
t31.5 3.5q16 44 24 89t8 93t-8.5 92t-25.5 86q-78 -87 -240 -256zM1079 328q-184 -181 -331.5 -263.5t-284.5 -82.5q-172 0 -279.5 116t-107.5 303q0 224 145 387.5t336 163.5q122 0 200.5 -74.5t78.5 -189.5q0 -70 -32.5 -149t-88.5 -144q-50 -59 -115.5 -93t-128.5 -34
q-87 0 -139.5 54t-52.5 143q0 116 85 203t207 92q-110 -56 -168.5 -134.5t-58.5 -168.5q0 -69 38 -110.5t101 -41.5q110 0 214 123t104 254q0 106 -68.5 172t-177.5 66q-176 0 -310 -153.5t-134 -360.5q0 -175 95.5 -285.5t246.5 -110.5q135 0 285.5 85.5t310.5 252.5
q-70 52 -108 122t-38 148q0 109 72.5 179.5t181.5 70.5q73 0 135.5 -37.5t108.5 -109.5q15 15 173.5 182t291.5 295q-66 69 -171.5 107t-230.5 38q-123 0 -238.5 -41t-228.5 -126q-37 -28 -78 -67.5t-55 -39.5q-1 0 -3.5 2.5t-2.5 3.5q0 18 29 48.5t94 80.5
q111 85 232 127.5t251 42.5t237.5 -38t190.5 -113q136 108 256 175.5t164 67.5q10 0 17.5 -4.5t7.5 -9.5q0 -10 -117 -146t-215 -280q5 -34 7.5 -59t2.5 -47q0 -223 -137 -402t-342 -223q-95 -127 -188.5 -218t-116.5 -91q-3 0 -4.5 2.5t-1.5 7.5q0 4 18 25q96 113 139 243
q-10 -1 -20.5 -1.5t-30.5 -0.5q-73 0 -137 16.5t-115 49.5zM2394 1685q0 42 24 68.5t60 26.5q31 0 47.5 -17.5t16.5 -50.5q0 -37 -24.5 -63.5t-59.5 -26.5q-29 0 -46.5 17t-17.5 46zM2061 1685q0 42 23.5 68.5t60.5 26.5q31 0 48 -18t17 -50q0 -37 -24.5 -63.5t-59.5 -26.5
q-30 0 -47.5 17.5t-17.5 45.5z" />
    <glyph glyph-name="Aring" unicode="&#xc5;" horiz-adv-x="1763" 
d="M2300 1692q0 -53 34.5 -88t86.5 -35q51 0 86 35.5t35 87.5q0 50 -35.5 85t-85.5 35q-52 0 -86.5 -34t-34.5 -86zM2247 1690q0 73 50.5 123.5t123.5 50.5t123.5 -50.5t50.5 -123.5t-50.5 -123.5t-123.5 -50.5t-123.5 50.5t-50.5 123.5zM1917 1198q17 -21 31.5 -45.5
t27.5 -54.5q76 93 164 184t88 100q0 3 -2.5 4.5t-9.5 2.5q-28 0 -108 -51t-191 -140zM1567 336q171 45 293 215t122 350q0 20 -2.5 41t-7.5 43q-121 -183 -251.5 -400.5t-153.5 -248.5zM1421 690q21 -53 31 -105.5t10 -103.5q0 -32 -6.5 -73t-21.5 -103l29 47
q306 484 487 715q-8 26 -22.5 50t-39.5 54q-176 -168 -422 -433zM1075 373q37 32 107.5 107t193.5 214q-33 61 -81.5 92t-110.5 31q-95 0 -161.5 -68.5t-66.5 -166.5q0 -65 30 -117.5t89 -91.5zM1106 354q50 -30 105 -45.5t114 -15.5q15 0 38.5 2.5t31.5 3.5q16 44 24 89
t8 93t-8.5 92t-25.5 86q-78 -87 -240 -256zM1079 328q-184 -181 -331.5 -263.5t-284.5 -82.5q-172 0 -279.5 116t-107.5 303q0 224 145 387.5t336 163.5q122 0 200.5 -74.5t78.5 -189.5q0 -70 -32.5 -149t-88.5 -144q-50 -59 -115.5 -93t-128.5 -34q-87 0 -139.5 54
t-52.5 143q0 116 85 203t207 92q-110 -56 -168.5 -134.5t-58.5 -168.5q0 -69 38 -110.5t101 -41.5q110 0 214 123t104 254q0 106 -68.5 172t-177.5 66q-176 0 -310 -153.5t-134 -360.5q0 -175 95.5 -285.5t246.5 -110.5q135 0 285.5 85.5t310.5 252.5q-70 52 -108 122
t-38 148q0 109 72.5 179.5t181.5 70.5q73 0 135.5 -37.5t108.5 -109.5q15 15 173.5 182t291.5 295q-66 69 -171.5 107t-230.5 38q-123 0 -238.5 -41t-228.5 -126q-37 -28 -78 -67.5t-55 -39.5q-1 0 -3.5 2.5t-2.5 3.5q0 18 29 48.5t94 80.5q111 85 232 127.5t251 42.5
t237.5 -38t190.5 -113q136 108 256 175.5t164 67.5q10 0 17.5 -4.5t7.5 -9.5q0 -10 -117 -146t-215 -280q5 -34 7.5 -59t2.5 -47q0 -223 -137 -402t-342 -223q-95 -127 -188.5 -218t-116.5 -91q-3 0 -4.5 2.5t-1.5 7.5q0 4 18 25q96 113 139 243q-10 -1 -20.5 -1.5
t-30.5 -0.5q-73 0 -137 16.5t-115 49.5z" />
    <glyph glyph-name="AE" unicode="&#xc6;" horiz-adv-x="2529" 
d="M2101 815q27 -27 54 -40t55 -13q15 0 28 10.5t13 22.5q0 16 -18.5 26t-49.5 10q-14 0 -35 -4t-47 -12zM1935 37q218 60 372.5 204t154.5 261q0 47 -26 73.5t-73 26.5q-63 0 -146 -53.5t-159 -145.5q-63 -76 -97 -154.5t-34 -148.5q0 -17 2 -32.5t6 -30.5zM2849 1300
q-170 -12 -306.5 -119t-136.5 -210q0 -42 26.5 -68t68.5 -26q123 0 236.5 122t113.5 263q0 14 -0.5 21.5t-1.5 16.5zM1421 690q21 -53 31 -105.5t10 -103.5q0 -32 -6.5 -73t-21.5 -103q109 169 247.5 405.5t176.5 295.5q87 135 196 266.5t109 140.5q-1 4 -3 5t-8 1
q-64 0 -266.5 -200t-464.5 -529zM1075 373q37 32 107.5 107t193.5 214q-33 61 -81.5 92t-110.5 31q-95 0 -161.5 -68.5t-66.5 -166.5q0 -65 30 -117.5t89 -91.5zM1106 354q50 -30 105 -45.5t114 -15.5q15 0 38.5 2.5t31.5 3.5q16 44 24 89t8 93t-8.5 92t-25.5 86
q-78 -87 -240 -256zM1079 328q-184 -181 -331.5 -263.5t-284.5 -82.5q-172 0 -279.5 116t-107.5 303q0 224 145 387.5t336 163.5q122 0 200.5 -74.5t78.5 -189.5q0 -70 -32.5 -149t-88.5 -144q-50 -59 -115.5 -93t-128.5 -34q-87 0 -139.5 54t-52.5 143q0 116 85 203t207 92
q-110 -56 -168.5 -134.5t-58.5 -168.5q0 -69 38 -110.5t101 -41.5q110 0 214 123t104 254q0 106 -68.5 172t-177.5 66q-176 0 -310 -153.5t-134 -360.5q0 -175 95.5 -285.5t246.5 -110.5q135 0 285.5 85.5t310.5 252.5q-70 52 -108 122t-38 148q0 109 72.5 179.5t181.5 70.5
q73 0 135.5 -37.5t108.5 -109.5q281 353 515.5 566.5t328.5 213.5q9 0 15.5 -3.5t6.5 -8.5q0 -15 -65 -99q-252 -326 -414 -685q53 45 109 77.5t124 57.5q-11 27 -16.5 51.5t-5.5 48.5q0 89 50.5 180t145.5 174q116 100 226.5 152.5t206.5 52.5q98 0 164.5 -43t89.5 -121
q118 -11 180.5 -65t62.5 -146q0 -73 -39 -142.5t-114 -129.5q-51 -40 -95.5 -66t-60.5 -26q-7 0 -10.5 2.5t-3.5 7.5q0 15 39 34q37 19 61 36q90 60 138 134t48 152q0 77 -53.5 122.5t-148.5 49.5q0 -16 1 -32q1 -5 1 -6q0 -154 -125 -284t-271 -130q-58 0 -95.5 42
t-37.5 109q0 133 135.5 236.5t315.5 103.5h31q-13 56 -60.5 88.5t-116.5 32.5q-92 0 -204.5 -55.5t-210.5 -151.5q-90 -88 -142.5 -179.5t-52.5 -158.5q0 -15 3.5 -29.5t10.5 -28.5q29 5 56 8t51 3q55 0 84 -18.5t29 -54.5q0 -25 -24 -43.5t-58 -18.5q-39 0 -78.5 17.5
t-75.5 50.5q-203 -77 -348 -250.5t-145 -327.5q0 -99 61 -155t170 -56q33 0 100 15l6 2q-8 25 -12 52.5t-4 59.5q0 199 140.5 352.5t316.5 153.5q72 0 114.5 -38t42.5 -103q0 -133 -158.5 -283t-387.5 -217q23 -59 71.5 -89t120.5 -30q62 0 128 26q19 7 24 7q6 0 11 -2.5
t5 -5.5q0 -17 -50.5 -37t-109.5 -20q-84 0 -146.5 37t-93.5 106q-31 -7 -60.5 -10.5t-59.5 -3.5q-133 0 -209 69.5t-76 192.5q0 15 0.5 23t1.5 15q-78 -122 -163.5 -209t-110.5 -87q-3 0 -4.5 2.5t-1.5 7.5q0 4 18 25q96 113 139 243q-10 -1 -20.5 -1.5t-30.5 -0.5
q-73 0 -137 16.5t-115 49.5z" />
    <glyph glyph-name="Ccedilla" unicode="&#xc7;" horiz-adv-x="1284" 
d="M1186 872q48 41 76 80.5t28 65.5q0 20 -13 33.5t-34 13.5q-37 0 -68.5 -37t-31.5 -80q0 -23 10.5 -41.5t32.5 -34.5zM596 653q161 15 302.5 65t254.5 132q-25 19 -36 40t-11 50q0 62 46.5 111t100.5 49q35 0 56.5 -21.5t21.5 -56.5t-27.5 -76.5t-82.5 -91.5
q14 -5 29 -7.5t34 -2.5q77 0 162.5 34t159.5 95q94 75 150 167.5t56 168.5q0 72 -45 112.5t-127 40.5q-186 0 -480 -222.5t-564 -586.5zM455 629q-103 23 -157 95.5t-54 186.5q0 195 168 356t407 189q-230 -114 -375 -282t-145 -310q0 -83 46 -137.5t126 -64.5
q86 132 187 246.5t221 215.5q207 175 407.5 271t353.5 96q95 0 151 -47.5t56 -126.5q0 -85 -49 -176t-139 -170q-85 -75 -187.5 -117.5t-195.5 -42.5q-23 0 -46 4.5t-44 13.5q-145 -96 -301 -149.5t-314 -61.5q-73 -115 -110 -211.5t-37 -168.5q0 -103 64 -162.5t174 -59.5
q112 0 233 58t233 166q81 77 124.5 153t43.5 137q0 49 -24 75t-70 26q-113 0 -253 -141.5t-232 -360.5v25q0 203 145 357.5t328 154.5q65 0 103 -35t38 -94q0 -71 -46 -154t-132 -166q-119 -114 -245 -174.5t-244 -60.5q-148 0 -229 83t-81 236q0 80 25 161.5t76 166.5z
M456 -119q27 15 56.5 22t66.5 7q75 0 113.5 -32t38.5 -95q0 -74 -56.5 -119t-150.5 -45q-103 0 -188 32.5t-85 55.5q0 7 5 12t12 5q9 0 86 -23t141 -23q62 0 100.5 27.5t38.5 69.5q0 40 -24.5 57.5t-81.5 17.5q-10 0 -24 -2t-29 -6z" />
    <glyph glyph-name="Egrave" unicode="&#xc8;" horiz-adv-x="1305" 
d="M909 815q26 -27 51.5 -40t53.5 -13q14 0 27.5 10.5t13.5 22.5q0 16 -18.5 26t-49.5 10q-16 0 -35 -4t-43 -12zM1653 1300q-170 -12 -305.5 -119t-135.5 -210q0 -42 25.5 -68t67.5 -26q123 0 237.5 122t114.5 263q0 7 -3 28q-1 7 -1 10zM741 37q218 60 372.5 204
t154.5 261q0 47 -27 73.5t-74 26.5q-63 0 -145 -53.5t-158 -145.5q-63 -76 -97 -154.5t-34 -148.5q0 -17 2 -32.5t6 -30.5zM715 -4q-37 -8 -63 -11t-48 -3q-143 0 -226 81.5t-83 221.5q0 79 31.5 157t93.5 152q-71 46 -110.5 124.5t-39.5 174.5q0 132 80 257t217 208
q58 35 111.5 57.5t75.5 22.5q8 -1 9 -1.5t1 -2.5q0 -12 -51 -40t-80 -48q-131 -91 -211 -230t-80 -274q0 -77 27 -134.5t77 -86.5q92 78 185.5 132t193.5 87q-14 27 -21 57t-7 64q0 74 40.5 156t114.5 157q101 102 232.5 163.5t245.5 61.5q98 0 165.5 -42t92.5 -120
q114 -9 178.5 -65.5t64.5 -147.5q0 -73 -40.5 -144.5t-114.5 -129.5q-48 -38 -91.5 -61t-62.5 -23h-10q-2 0 -3 1t-1 5q0 12 37.5 31t62.5 37q92 65 139 137.5t47 148.5q0 77 -53.5 122.5t-148.5 49.5v-38q0 -155 -124 -284.5t-270 -129.5q-58 0 -95.5 42t-37.5 109
q0 133 135.5 236.5t315.5 103.5h31q-13 56 -61 88.5t-120 32.5q-85 0 -192 -58t-217 -165q-92 -90 -143.5 -177t-51.5 -149q0 -12 2.5 -25.5t7.5 -28.5q29 5 56 8t51 3q55 0 84 -18.5t29 -54.5q0 -24 -24.5 -43t-57.5 -19q-39 0 -76.5 16.5t-73.5 49.5q-62 -24 -137.5 -77.5
t-156.5 -131.5q23 -3 50.5 -4.5t57.5 -1.5q15 0 32 1t19 1q11 0 18 -5t7 -12t-26.5 -12.5t-68.5 -5.5q-31 0 -60 2.5t-58 7.5q-86 -89 -130.5 -175t-44.5 -165q0 -96 62 -150.5t172 -54.5q24 0 50.5 3t55.5 10q-8 25 -12 52.5t-4 59.5q0 199 140 352.5t317 153.5
q72 0 114.5 -38t42.5 -103q0 -133 -158.5 -283t-387.5 -217q23 -59 71.5 -89t120.5 -30q62 0 128 26q19 7 24 7t9.5 -2.5t4.5 -5.5q0 -17 -49.5 -37t-108.5 -20q-84 0 -146.5 37t-92.5 106zM1626 1579q0 -6 -4 -10t-11 -4q-34 0 -119 105t-85 171q0 39 19 60.5t52 21.5
q26 0 41 -19t15 -53q0 -1 -1 -24.5t-1 -44.5q0 -78 73 -170q21 -27 21 -33z" />
    <glyph glyph-name="Eacute" unicode="&#xc9;" horiz-adv-x="1305" 
d="M909 815q26 -27 51.5 -40t53.5 -13q14 0 27.5 10.5t13.5 22.5q0 16 -18.5 26t-49.5 10q-16 0 -35 -4t-43 -12zM1653 1300q-170 -12 -305.5 -119t-135.5 -210q0 -42 25.5 -68t67.5 -26q123 0 237.5 122t114.5 263q0 7 -3 28q-1 7 -1 10zM741 37q218 60 372.5 204
t154.5 261q0 47 -27 73.5t-74 26.5q-63 0 -145 -53.5t-158 -145.5q-63 -76 -97 -154.5t-34 -148.5q0 -17 2 -32.5t6 -30.5zM715 -4q-37 -8 -63 -11t-48 -3q-143 0 -226 81.5t-83 221.5q0 79 31.5 157t93.5 152q-71 46 -110.5 124.5t-39.5 174.5q0 132 80 257t217 208
q58 35 111.5 57.5t75.5 22.5q8 -1 9 -1.5t1 -2.5q0 -12 -51 -40t-80 -48q-131 -91 -211 -230t-80 -274q0 -77 27 -134.5t77 -86.5q92 78 185.5 132t193.5 87q-14 27 -21 57t-7 64q0 74 40.5 156t114.5 157q101 102 232.5 163.5t245.5 61.5q98 0 165.5 -42t92.5 -120
q114 -9 178.5 -65.5t64.5 -147.5q0 -73 -40.5 -144.5t-114.5 -129.5q-48 -38 -91.5 -61t-62.5 -23h-10q-2 0 -3 1t-1 5q0 12 37.5 31t62.5 37q92 65 139 137.5t47 148.5q0 77 -53.5 122.5t-148.5 49.5v-38q0 -155 -124 -284.5t-270 -129.5q-58 0 -95.5 42t-37.5 109
q0 133 135.5 236.5t315.5 103.5h31q-13 56 -61 88.5t-120 32.5q-85 0 -192 -58t-217 -165q-92 -90 -143.5 -177t-51.5 -149q0 -12 2.5 -25.5t7.5 -28.5q29 5 56 8t51 3q55 0 84 -18.5t29 -54.5q0 -24 -24.5 -43t-57.5 -19q-39 0 -76.5 16.5t-73.5 49.5q-62 -24 -137.5 -77.5
t-156.5 -131.5q23 -3 50.5 -4.5t57.5 -1.5q15 0 32 1t19 1q11 0 18 -5t7 -12t-26.5 -12.5t-68.5 -5.5q-31 0 -60 2.5t-58 7.5q-86 -89 -130.5 -175t-44.5 -165q0 -96 62 -150.5t172 -54.5q24 0 50.5 3t55.5 10q-8 25 -12 52.5t-4 59.5q0 199 140 352.5t317 153.5
q72 0 114.5 -38t42.5 -103q0 -133 -158.5 -283t-387.5 -217q23 -59 71.5 -89t120.5 -30q62 0 128 26q19 7 24 7t9.5 -2.5t4.5 -5.5q0 -17 -49.5 -37t-108.5 -20q-84 0 -146.5 37t-92.5 106zM1478 1567q-9 0 -13.5 3.5t-4.5 10.5q0 9 64 52.5t106 103.5q17 25 40 82
q36 96 83 96q28 0 44.5 -16.5t16.5 -45.5q0 -50 -48 -105.5t-140 -111.5q-67 -40 -98 -54.5t-50 -14.5z" />
    <glyph glyph-name="Ecircumflex" unicode="&#xca;" horiz-adv-x="1305" 
d="M909 815q26 -27 51.5 -40t53.5 -13q14 0 27.5 10.5t13.5 22.5q0 16 -18.5 26t-49.5 10q-16 0 -35 -4t-43 -12zM1653 1300q-170 -12 -305.5 -119t-135.5 -210q0 -42 25.5 -68t67.5 -26q123 0 237.5 122t114.5 263q0 7 -3 28q-1 7 -1 10zM741 37q218 60 372.5 204
t154.5 261q0 47 -27 73.5t-74 26.5q-63 0 -145 -53.5t-158 -145.5q-63 -76 -97 -154.5t-34 -148.5q0 -17 2 -32.5t6 -30.5zM715 -4q-37 -8 -63 -11t-48 -3q-143 0 -226 81.5t-83 221.5q0 79 31.5 157t93.5 152q-71 46 -110.5 124.5t-39.5 174.5q0 132 80 257t217 208
q58 35 111.5 57.5t75.5 22.5q8 -1 9 -1.5t1 -2.5q0 -12 -51 -40t-80 -48q-131 -91 -211 -230t-80 -274q0 -77 27 -134.5t77 -86.5q92 78 185.5 132t193.5 87q-14 27 -21 57t-7 64q0 74 40.5 156t114.5 157q101 102 232.5 163.5t245.5 61.5q98 0 165.5 -42t92.5 -120
q114 -9 178.5 -65.5t64.5 -147.5q0 -73 -40.5 -144.5t-114.5 -129.5q-48 -38 -91.5 -61t-62.5 -23h-10q-2 0 -3 1t-1 5q0 12 37.5 31t62.5 37q92 65 139 137.5t47 148.5q0 77 -53.5 122.5t-148.5 49.5v-38q0 -155 -124 -284.5t-270 -129.5q-58 0 -95.5 42t-37.5 109
q0 133 135.5 236.5t315.5 103.5h31q-13 56 -61 88.5t-120 32.5q-85 0 -192 -58t-217 -165q-92 -90 -143.5 -177t-51.5 -149q0 -12 2.5 -25.5t7.5 -28.5q29 5 56 8t51 3q55 0 84 -18.5t29 -54.5q0 -24 -24.5 -43t-57.5 -19q-39 0 -76.5 16.5t-73.5 49.5q-62 -24 -137.5 -77.5
t-156.5 -131.5q23 -3 50.5 -4.5t57.5 -1.5q15 0 32 1t19 1q11 0 18 -5t7 -12t-26.5 -12.5t-68.5 -5.5q-31 0 -60 2.5t-58 7.5q-86 -89 -130.5 -175t-44.5 -165q0 -96 62 -150.5t172 -54.5q24 0 50.5 3t55.5 10q-8 25 -12 52.5t-4 59.5q0 199 140 352.5t317 153.5
q72 0 114.5 -38t42.5 -103q0 -133 -158.5 -283t-387.5 -217q23 -59 71.5 -89t120.5 -30q62 0 128 26q19 7 24 7t9.5 -2.5t4.5 -5.5q0 -17 -49.5 -37t-108.5 -20q-84 0 -146.5 37t-92.5 106zM1634 1724l-240 -127q-54 -29 -81 -40t-41 -11q-11 0 -17 5t-6 14q0 16 75 62
q39 23 62 38q92 58 182 125.5t97 67.5t15 -7t11 -16l68 -244q1 -4 3.5 -13.5t2.5 -12.5q0 -10 -4.5 -16.5t-11.5 -6.5q-26 0 -87 126z" />
    <glyph glyph-name="Edieresis" unicode="&#xcb;" horiz-adv-x="1305" 
d="M909 815q26 -27 51.5 -40t53.5 -13q14 0 27.5 10.5t13.5 22.5q0 16 -18.5 26t-49.5 10q-16 0 -35 -4t-43 -12zM1653 1300q-170 -12 -305.5 -119t-135.5 -210q0 -42 25.5 -68t67.5 -26q123 0 237.5 122t114.5 263q0 7 -3 28q-1 7 -1 10zM741 37q218 60 372.5 204
t154.5 261q0 47 -27 73.5t-74 26.5q-63 0 -145 -53.5t-158 -145.5q-63 -76 -97 -154.5t-34 -148.5q0 -17 2 -32.5t6 -30.5zM715 -4q-37 -8 -63 -11t-48 -3q-143 0 -226 81.5t-83 221.5q0 79 31.5 157t93.5 152q-71 46 -110.5 124.5t-39.5 174.5q0 132 80 257t217 208
q58 35 111.5 57.5t75.5 22.5q8 -1 9 -1.5t1 -2.5q0 -12 -51 -40t-80 -48q-131 -91 -211 -230t-80 -274q0 -77 27 -134.5t77 -86.5q92 78 185.5 132t193.5 87q-14 27 -21 57t-7 64q0 74 40.5 156t114.5 157q101 102 232.5 163.5t245.5 61.5q98 0 165.5 -42t92.5 -120
q114 -9 178.5 -65.5t64.5 -147.5q0 -73 -40.5 -144.5t-114.5 -129.5q-48 -38 -91.5 -61t-62.5 -23h-10q-2 0 -3 1t-1 5q0 12 37.5 31t62.5 37q92 65 139 137.5t47 148.5q0 77 -53.5 122.5t-148.5 49.5v-38q0 -155 -124 -284.5t-270 -129.5q-58 0 -95.5 42t-37.5 109
q0 133 135.5 236.5t315.5 103.5h31q-13 56 -61 88.5t-120 32.5q-85 0 -192 -58t-217 -165q-92 -90 -143.5 -177t-51.5 -149q0 -12 2.5 -25.5t7.5 -28.5q29 5 56 8t51 3q55 0 84 -18.5t29 -54.5q0 -24 -24.5 -43t-57.5 -19q-39 0 -76.5 16.5t-73.5 49.5q-62 -24 -137.5 -77.5
t-156.5 -131.5q23 -3 50.5 -4.5t57.5 -1.5q15 0 32 1t19 1q11 0 18 -5t7 -12t-26.5 -12.5t-68.5 -5.5q-31 0 -60 2.5t-58 7.5q-86 -89 -130.5 -175t-44.5 -165q0 -96 62 -150.5t172 -54.5q24 0 50.5 3t55.5 10q-8 25 -12 52.5t-4 59.5q0 199 140 352.5t317 153.5
q72 0 114.5 -38t42.5 -103q0 -133 -158.5 -283t-387.5 -217q23 -59 71.5 -89t120.5 -30q62 0 128 26q19 7 24 7t9.5 -2.5t4.5 -5.5q0 -17 -49.5 -37t-108.5 -20q-84 0 -146.5 37t-92.5 106zM1654 1685q0 42 24 68.5t60 26.5q31 0 47.5 -17.5t16.5 -50.5q0 -37 -24.5 -63.5
t-59.5 -26.5q-29 0 -46.5 17t-17.5 46zM1321 1685q0 42 23.5 68.5t60.5 26.5q31 0 48 -18t17 -50q0 -37 -24.5 -63.5t-59.5 -26.5q-30 0 -47.5 17.5t-17.5 45.5z" />
    <glyph glyph-name="Igrave" unicode="&#xcc;" horiz-adv-x="1343" 
d="M1624 1161q64 75 145.5 143.5t182.5 133.5q-130 -19 -239 -68t-197 -129q29 -14 55.5 -34t52.5 -46zM1257 637q90 148 174.5 271t167.5 225q-24 25 -52 45.5t-62 38.5q-142 -109 -222.5 -232.5t-80.5 -226.5q0 -44 19 -74t56 -47zM1360 610q140 6 229.5 101.5t89.5 234.5
q0 33 -6.5 61.5t-19.5 55.5q-47 -62 -124.5 -181.5t-168.5 -271.5zM1335 569q-170 -303 -361 -446t-427 -143q-181 0 -287 92t-106 247q0 187 153.5 329.5t356.5 142.5q129 0 207.5 -65.5t78.5 -172.5q0 -134 -107 -242t-235 -108q-70 0 -112.5 39t-42.5 104q0 52 29 102
t83 91q42 31 86 51t66 20q10 0 15 -2t5 -6q0 -11 -35 -24q-31 -12 -51 -23q-79 -43 -122.5 -98.5t-43.5 -114.5q0 -46 27.5 -73t75.5 -27q42 0 87.5 24.5t92.5 73.5q63 64 95 126.5t32 121.5q0 71 -62 119.5t-155 48.5q-199 0 -344.5 -129t-145.5 -301q0 -137 92.5 -223.5
t237.5 -86.5q216 0 369 119.5t350 466.5q-61 35 -90 85.5t-29 121.5q0 112 69.5 230t188.5 204q-10 1 -21.5 1.5t-31.5 0.5q-112 0 -211 -64t-156 -173q-26 -51 -39 -114t-26 -63q-8 1 -11 6.5t-3 18.5q0 161 136.5 292.5t323.5 131.5q13 0 40.5 -2.5t39.5 -3.5
q139 93 298 146t300 53q17 0 26 -5.5t9 -15.5q0 -4 -31 -24q-197 -125 -342 -328q19 -39 28 -79.5t9 -82.5q0 -153 -107 -258t-272 -111zM1966 1579q0 -6 -4 -10t-11 -4q-34 0 -119 105t-85 171q0 39 19 60.5t52 21.5q26 0 41 -19t15 -53q0 -1 -1 -24.5t-1 -44.5
q0 -78 73 -170q21 -27 21 -33z" />
    <glyph glyph-name="Iacute" unicode="&#xcd;" horiz-adv-x="1343" 
d="M1624 1161q64 75 145.5 143.5t182.5 133.5q-130 -19 -239 -68t-197 -129q29 -14 55.5 -34t52.5 -46zM1257 637q90 148 174.5 271t167.5 225q-24 25 -52 45.5t-62 38.5q-142 -109 -222.5 -232.5t-80.5 -226.5q0 -44 19 -74t56 -47zM1360 610q140 6 229.5 101.5t89.5 234.5
q0 33 -6.5 61.5t-19.5 55.5q-47 -62 -124.5 -181.5t-168.5 -271.5zM1335 569q-170 -303 -361 -446t-427 -143q-181 0 -287 92t-106 247q0 187 153.5 329.5t356.5 142.5q129 0 207.5 -65.5t78.5 -172.5q0 -134 -107 -242t-235 -108q-70 0 -112.5 39t-42.5 104q0 52 29 102
t83 91q42 31 86 51t66 20q10 0 15 -2t5 -6q0 -11 -35 -24q-31 -12 -51 -23q-79 -43 -122.5 -98.5t-43.5 -114.5q0 -46 27.5 -73t75.5 -27q42 0 87.5 24.5t92.5 73.5q63 64 95 126.5t32 121.5q0 71 -62 119.5t-155 48.5q-199 0 -344.5 -129t-145.5 -301q0 -137 92.5 -223.5
t237.5 -86.5q216 0 369 119.5t350 466.5q-61 35 -90 85.5t-29 121.5q0 112 69.5 230t188.5 204q-10 1 -21.5 1.5t-31.5 0.5q-112 0 -211 -64t-156 -173q-26 -51 -39 -114t-26 -63q-8 1 -11 6.5t-3 18.5q0 161 136.5 292.5t323.5 131.5q13 0 40.5 -2.5t39.5 -3.5
q139 93 298 146t300 53q17 0 26 -5.5t9 -15.5q0 -4 -31 -24q-197 -125 -342 -328q19 -39 28 -79.5t9 -82.5q0 -153 -107 -258t-272 -111zM1818 1567q-9 0 -13.5 3.5t-4.5 10.5q0 9 64 52.5t106 103.5q17 25 40 82q36 96 83 96q28 0 44.5 -16.5t16.5 -45.5q0 -50 -48 -105.5
t-140 -111.5q-67 -40 -98 -54.5t-50 -14.5z" />
    <glyph glyph-name="Icircumflex" unicode="&#xce;" horiz-adv-x="1343" 
d="M1624 1161q64 75 145.5 143.5t182.5 133.5q-130 -19 -239 -68t-197 -129q29 -14 55.5 -34t52.5 -46zM1257 637q90 148 174.5 271t167.5 225q-24 25 -52 45.5t-62 38.5q-142 -109 -222.5 -232.5t-80.5 -226.5q0 -44 19 -74t56 -47zM1360 610q140 6 229.5 101.5t89.5 234.5
q0 33 -6.5 61.5t-19.5 55.5q-47 -62 -124.5 -181.5t-168.5 -271.5zM1335 569q-170 -303 -361 -446t-427 -143q-181 0 -287 92t-106 247q0 187 153.5 329.5t356.5 142.5q129 0 207.5 -65.5t78.5 -172.5q0 -134 -107 -242t-235 -108q-70 0 -112.5 39t-42.5 104q0 52 29 102
t83 91q42 31 86 51t66 20q10 0 15 -2t5 -6q0 -11 -35 -24q-31 -12 -51 -23q-79 -43 -122.5 -98.5t-43.5 -114.5q0 -46 27.5 -73t75.5 -27q42 0 87.5 24.5t92.5 73.5q63 64 95 126.5t32 121.5q0 71 -62 119.5t-155 48.5q-199 0 -344.5 -129t-145.5 -301q0 -137 92.5 -223.5
t237.5 -86.5q216 0 369 119.5t350 466.5q-61 35 -90 85.5t-29 121.5q0 112 69.5 230t188.5 204q-10 1 -21.5 1.5t-31.5 0.5q-112 0 -211 -64t-156 -173q-26 -51 -39 -114t-26 -63q-8 1 -11 6.5t-3 18.5q0 161 136.5 292.5t323.5 131.5q13 0 40.5 -2.5t39.5 -3.5
q139 93 298 146t300 53q17 0 26 -5.5t9 -15.5q0 -4 -31 -24q-197 -125 -342 -328q19 -39 28 -79.5t9 -82.5q0 -153 -107 -258t-272 -111zM1974 1724l-240 -127q-54 -29 -81 -40t-41 -11q-11 0 -17 5t-6 14q0 16 75 62q39 23 62 38q92 58 182 125.5t97 67.5t15 -7t11 -16
l68 -244q1 -4 3.5 -13.5t2.5 -12.5q0 -10 -4.5 -16.5t-11.5 -6.5q-26 0 -87 126z" />
    <glyph glyph-name="Idieresis" unicode="&#xcf;" horiz-adv-x="1343" 
d="M1624 1161q64 75 145.5 143.5t182.5 133.5q-130 -19 -239 -68t-197 -129q29 -14 55.5 -34t52.5 -46zM1257 637q90 148 174.5 271t167.5 225q-24 25 -52 45.5t-62 38.5q-142 -109 -222.5 -232.5t-80.5 -226.5q0 -44 19 -74t56 -47zM1360 610q140 6 229.5 101.5t89.5 234.5
q0 33 -6.5 61.5t-19.5 55.5q-47 -62 -124.5 -181.5t-168.5 -271.5zM1335 569q-170 -303 -361 -446t-427 -143q-181 0 -287 92t-106 247q0 187 153.5 329.5t356.5 142.5q129 0 207.5 -65.5t78.5 -172.5q0 -134 -107 -242t-235 -108q-70 0 -112.5 39t-42.5 104q0 52 29 102
t83 91q42 31 86 51t66 20q10 0 15 -2t5 -6q0 -11 -35 -24q-31 -12 -51 -23q-79 -43 -122.5 -98.5t-43.5 -114.5q0 -46 27.5 -73t75.5 -27q42 0 87.5 24.5t92.5 73.5q63 64 95 126.5t32 121.5q0 71 -62 119.5t-155 48.5q-199 0 -344.5 -129t-145.5 -301q0 -137 92.5 -223.5
t237.5 -86.5q216 0 369 119.5t350 466.5q-61 35 -90 85.5t-29 121.5q0 112 69.5 230t188.5 204q-10 1 -21.5 1.5t-31.5 0.5q-112 0 -211 -64t-156 -173q-26 -51 -39 -114t-26 -63q-8 1 -11 6.5t-3 18.5q0 161 136.5 292.5t323.5 131.5q13 0 40.5 -2.5t39.5 -3.5
q139 93 298 146t300 53q17 0 26 -5.5t9 -15.5q0 -4 -31 -24q-197 -125 -342 -328q19 -39 28 -79.5t9 -82.5q0 -153 -107 -258t-272 -111zM1994 1685q0 42 24 68.5t60 26.5q31 0 47.5 -17.5t16.5 -50.5q0 -37 -24.5 -63.5t-59.5 -26.5q-29 0 -46.5 17t-17.5 46zM1661 1685
q0 42 23.5 68.5t60.5 26.5q31 0 48 -18t17 -50q0 -37 -24.5 -63.5t-59.5 -26.5q-30 0 -47.5 17.5t-17.5 45.5z" />
    <glyph glyph-name="Eth" unicode="&#xd0;" 
d="M70 27v1376h1263v-1376h-1263zM41 0h1321v1427h-1321v-1427z" />
    <glyph glyph-name="Ntilde" unicode="&#xd1;" horiz-adv-x="1698" 
d="M1145 494q-196 -252 -381 -382t-346 -130q-149 0 -245.5 98.5t-96.5 249.5q0 189 155.5 328t366.5 139q124 0 197 -61.5t73 -164.5q0 -67 -32 -136t-91 -128q-57 -58 -127 -92.5t-131 -34.5q-71 0 -112 41.5t-41 114.5q0 107 85.5 187.5t205.5 80.5q8 0 16.5 -0.5
t17.5 -1.5q-116 -49 -194 -137t-78 -160q0 -42 27.5 -66t77.5 -24q115 0 228.5 115.5t113.5 238.5q0 92 -60.5 144.5t-165.5 52.5q-203 0 -350 -130t-147 -306q0 -135 85.5 -225.5t215.5 -90.5q159 0 336 125.5t366 372.5q-135 77 -202.5 190t-67.5 261q0 206 143 346.5
t377 163.5q-218 -94 -343.5 -245t-125.5 -317q0 -118 63 -216t177 -154q108 138 284 367q349 454 396 454q1 0 1.5 -1t0.5 -3q0 -6 -22 -58q-151 -361 -263 -821q8 2 33 5.5t41 7.5q367 529 580.5 737.5t375.5 208.5q81 0 124.5 -45t43.5 -127q0 -80 -42.5 -169.5
t-115.5 -160.5q-59 -58 -127 -88.5t-137 -30.5q-29 0 -55 6t-49 19q-156 -154 -293.5 -245t-280.5 -136q-66 -91 -168 -235q-168 -238 -198 -238q-3 0 -4.5 3t-2.5 11q0 3 60 142.5t102 291.5q-70 0 -138 14.5t-136 43.5zM2204 895q40 45 58.5 75.5t18.5 49.5t-9.5 31
t-24.5 12q-30 0 -49 -28t-19 -74q0 -22 6 -37.5t19 -28.5zM1661 510q128 44 259.5 134.5t256.5 221.5q-17 19 -26 43t-9 52q0 56 34 96.5t77 40.5q29 0 46 -19.5t17 -52.5q0 -29 -18 -62.5t-67 -91.5q14 -9 30.5 -13.5t36.5 -4.5q53 0 112.5 30.5t116.5 88.5
q74 73 118 157.5t44 147.5q0 60 -34 94.5t-93 34.5q-148 0 -365 -215.5t-536 -681.5zM1167 524q57 -25 116 -39t110 -14h37l18 60q143 473 225 643q-87 -95 -252.5 -318t-253.5 -332zM1421 213q46 69 97.5 149t57.5 90l-6 -1q-37 -9 -48 -9q-14 -39 -40 -99.5t-61 -129.5z
M2061 1792q40 0 125.5 -38t121.5 -38q46 0 81.5 50.5t45.5 50.5q9 0 15 -5t6 -12q0 -49 -56 -119.5t-120 -70.5q-42 0 -126.5 37.5t-121.5 37.5q-46 0 -81.5 -49t-45.5 -49q-9 0 -14.5 4t-5.5 11q0 49 55.5 119.5t120.5 70.5z" />
    <glyph glyph-name="Ograve" unicode="&#xd2;" horiz-adv-x="1237" 
d="M918 482q116 126 186 237.5t70 167.5q0 19 -10.5 32t-24.5 13q-67 0 -147.5 -133t-80.5 -256q0 -15 1.5 -30.5t5.5 -30.5zM1044 352q212 229 340.5 450.5t128.5 342.5q0 65 -44 106t-115 41q-106 0 -244.5 -102.5t-300.5 -300.5q-119 -147 -191.5 -285.5t-72.5 -210.5
q0 -43 22 -67.5t62 -24.5q47 0 111.5 38t147.5 115q-4 19 -6.5 39.5t-2.5 43.5q0 149 91 288.5t179 139.5q31 0 47 -20t16 -58q0 -60 -72.5 -174.5t-205.5 -261.5q15 -39 42 -63.5t68 -35.5zM1061 315q-159 -160 -314.5 -246.5t-283.5 -86.5q-142 0 -224.5 83t-82.5 226
q0 190 116.5 417t315.5 418q173 167 373 268t344 101q4 0 22.5 -1t32.5 -1q-131 -27 -252.5 -86t-241.5 -154q-142 -113 -275 -267.5t-231 -319.5q-76 -130 -111.5 -232t-35.5 -190q0 -105 65 -167.5t177 -62.5q123 0 272.5 82t292.5 230q-33 7 -63 32t-54 64
q-90 -79 -157 -116.5t-119 -37.5q-64 0 -101 43.5t-37 118.5q0 108 76 252.5t211 292.5q147 160 302.5 253t275.5 93q86 0 139 -48.5t53 -125.5q0 -124 -117.5 -331t-334.5 -464q105 10 214.5 94t215.5 238q48 71 87 151t50 80q4 0 6 -3.5t2 -12.5q0 -29 -52.5 -125.5
t-131.5 -195.5q-107 -134 -210 -198.5t-210 -64.5h-4zM1575 1579q0 -6 -4 -10t-11 -4q-34 0 -119 105t-85 171q0 39 19 60.5t52 21.5q26 0 41 -19t15 -53q0 -1 -1 -24.5t-1 -44.5q0 -78 73 -170q21 -27 21 -33z" />
    <glyph glyph-name="Oacute" unicode="&#xd3;" horiz-adv-x="1237" 
d="M918 482q116 126 186 237.5t70 167.5q0 19 -10.5 32t-24.5 13q-67 0 -147.5 -133t-80.5 -256q0 -15 1.5 -30.5t5.5 -30.5zM1044 352q212 229 340.5 450.5t128.5 342.5q0 65 -44 106t-115 41q-106 0 -244.5 -102.5t-300.5 -300.5q-119 -147 -191.5 -285.5t-72.5 -210.5
q0 -43 22 -67.5t62 -24.5q47 0 111.5 38t147.5 115q-4 19 -6.5 39.5t-2.5 43.5q0 149 91 288.5t179 139.5q31 0 47 -20t16 -58q0 -60 -72.5 -174.5t-205.5 -261.5q15 -39 42 -63.5t68 -35.5zM1061 315q-159 -160 -314.5 -246.5t-283.5 -86.5q-142 0 -224.5 83t-82.5 226
q0 190 116.5 417t315.5 418q173 167 373 268t344 101q4 0 22.5 -1t32.5 -1q-131 -27 -252.5 -86t-241.5 -154q-142 -113 -275 -267.5t-231 -319.5q-76 -130 -111.5 -232t-35.5 -190q0 -105 65 -167.5t177 -62.5q123 0 272.5 82t292.5 230q-33 7 -63 32t-54 64
q-90 -79 -157 -116.5t-119 -37.5q-64 0 -101 43.5t-37 118.5q0 108 76 252.5t211 292.5q147 160 302.5 253t275.5 93q86 0 139 -48.5t53 -125.5q0 -124 -117.5 -331t-334.5 -464q105 10 214.5 94t215.5 238q48 71 87 151t50 80q4 0 6 -3.5t2 -12.5q0 -29 -52.5 -125.5
t-131.5 -195.5q-107 -134 -210 -198.5t-210 -64.5h-4zM1427 1567q-9 0 -13.5 3.5t-4.5 10.5q0 9 64 52.5t106 103.5q17 25 40 82q36 96 83 96q28 0 44.5 -16.5t16.5 -45.5q0 -50 -48 -105.5t-140 -111.5q-67 -40 -98 -54.5t-50 -14.5z" />
    <glyph glyph-name="Ocircumflex" unicode="&#xd4;" horiz-adv-x="1237" 
d="M918 482q116 126 186 237.5t70 167.5q0 19 -10.5 32t-24.5 13q-67 0 -147.5 -133t-80.5 -256q0 -15 1.5 -30.5t5.5 -30.5zM1044 352q212 229 340.5 450.5t128.5 342.5q0 65 -44 106t-115 41q-106 0 -244.5 -102.5t-300.5 -300.5q-119 -147 -191.5 -285.5t-72.5 -210.5
q0 -43 22 -67.5t62 -24.5q47 0 111.5 38t147.5 115q-4 19 -6.5 39.5t-2.5 43.5q0 149 91 288.5t179 139.5q31 0 47 -20t16 -58q0 -60 -72.5 -174.5t-205.5 -261.5q15 -39 42 -63.5t68 -35.5zM1061 315q-159 -160 -314.5 -246.5t-283.5 -86.5q-142 0 -224.5 83t-82.5 226
q0 190 116.5 417t315.5 418q173 167 373 268t344 101q4 0 22.5 -1t32.5 -1q-131 -27 -252.5 -86t-241.5 -154q-142 -113 -275 -267.5t-231 -319.5q-76 -130 -111.5 -232t-35.5 -190q0 -105 65 -167.5t177 -62.5q123 0 272.5 82t292.5 230q-33 7 -63 32t-54 64
q-90 -79 -157 -116.5t-119 -37.5q-64 0 -101 43.5t-37 118.5q0 108 76 252.5t211 292.5q147 160 302.5 253t275.5 93q86 0 139 -48.5t53 -125.5q0 -124 -117.5 -331t-334.5 -464q105 10 214.5 94t215.5 238q48 71 87 151t50 80q4 0 6 -3.5t2 -12.5q0 -29 -52.5 -125.5
t-131.5 -195.5q-107 -134 -210 -198.5t-210 -64.5h-4zM1583 1724l-240 -127q-54 -29 -81 -40t-41 -11q-11 0 -17 5t-6 14q0 16 75 62q39 23 62 38q92 58 182 125.5t97 67.5t15 -7t11 -16l68 -244q1 -4 3.5 -13.5t2.5 -12.5q0 -10 -4.5 -16.5t-11.5 -6.5q-26 0 -87 126z" />
    <glyph glyph-name="Otilde" unicode="&#xd5;" horiz-adv-x="1237" 
d="M918 482q116 126 186 237.5t70 167.5q0 19 -10.5 32t-24.5 13q-67 0 -147.5 -133t-80.5 -256q0 -15 1.5 -30.5t5.5 -30.5zM1044 352q212 229 340.5 450.5t128.5 342.5q0 65 -44 106t-115 41q-106 0 -244.5 -102.5t-300.5 -300.5q-119 -147 -191.5 -285.5t-72.5 -210.5
q0 -43 22 -67.5t62 -24.5q47 0 111.5 38t147.5 115q-4 19 -6.5 39.5t-2.5 43.5q0 149 91 288.5t179 139.5q31 0 47 -20t16 -58q0 -60 -72.5 -174.5t-205.5 -261.5q15 -39 42 -63.5t68 -35.5zM1061 315q-159 -160 -314.5 -246.5t-283.5 -86.5q-142 0 -224.5 83t-82.5 226
q0 190 116.5 417t315.5 418q173 167 373 268t344 101q4 0 22.5 -1t32.5 -1q-131 -27 -252.5 -86t-241.5 -154q-142 -113 -275 -267.5t-231 -319.5q-76 -130 -111.5 -232t-35.5 -190q0 -105 65 -167.5t177 -62.5q123 0 272.5 82t292.5 230q-33 7 -63 32t-54 64
q-90 -79 -157 -116.5t-119 -37.5q-64 0 -101 43.5t-37 118.5q0 108 76 252.5t211 292.5q147 160 302.5 253t275.5 93q86 0 139 -48.5t53 -125.5q0 -124 -117.5 -331t-334.5 -464q105 10 214.5 94t215.5 238q48 71 87 151t50 80q4 0 6 -3.5t2 -12.5q0 -29 -52.5 -125.5
t-131.5 -195.5q-107 -134 -210 -198.5t-210 -64.5h-4zM1397 1792q40 0 125.5 -38t121.5 -38q46 0 81.5 50.5t45.5 50.5q9 0 15 -5t6 -12q0 -49 -56 -119.5t-120 -70.5q-42 0 -126.5 37.5t-121.5 37.5q-46 0 -81.5 -49t-45.5 -49q-9 0 -14.5 4t-5.5 11q0 49 55.5 119.5
t120.5 70.5z" />
    <glyph glyph-name="Odieresis" unicode="&#xd6;" horiz-adv-x="1237" 
d="M918 482q116 126 186 237.5t70 167.5q0 19 -10.5 32t-24.5 13q-67 0 -147.5 -133t-80.5 -256q0 -15 1.5 -30.5t5.5 -30.5zM1044 352q212 229 340.5 450.5t128.5 342.5q0 65 -44 106t-115 41q-106 0 -244.5 -102.5t-300.5 -300.5q-119 -147 -191.5 -285.5t-72.5 -210.5
q0 -43 22 -67.5t62 -24.5q47 0 111.5 38t147.5 115q-4 19 -6.5 39.5t-2.5 43.5q0 149 91 288.5t179 139.5q31 0 47 -20t16 -58q0 -60 -72.5 -174.5t-205.5 -261.5q15 -39 42 -63.5t68 -35.5zM1061 315q-159 -160 -314.5 -246.5t-283.5 -86.5q-142 0 -224.5 83t-82.5 226
q0 190 116.5 417t315.5 418q173 167 373 268t344 101q4 0 22.5 -1t32.5 -1q-131 -27 -252.5 -86t-241.5 -154q-142 -113 -275 -267.5t-231 -319.5q-76 -130 -111.5 -232t-35.5 -190q0 -105 65 -167.5t177 -62.5q123 0 272.5 82t292.5 230q-33 7 -63 32t-54 64
q-90 -79 -157 -116.5t-119 -37.5q-64 0 -101 43.5t-37 118.5q0 108 76 252.5t211 292.5q147 160 302.5 253t275.5 93q86 0 139 -48.5t53 -125.5q0 -124 -117.5 -331t-334.5 -464q105 10 214.5 94t215.5 238q48 71 87 151t50 80q4 0 6 -3.5t2 -12.5q0 -29 -52.5 -125.5
t-131.5 -195.5q-107 -134 -210 -198.5t-210 -64.5h-4zM1603 1685q0 42 24 68.5t60 26.5q31 0 47.5 -17.5t16.5 -50.5q0 -37 -24.5 -63.5t-59.5 -26.5q-29 0 -46.5 17t-17.5 46zM1270 1685q0 42 23.5 68.5t60.5 26.5q31 0 48 -18t17 -50q0 -37 -24.5 -63.5t-59.5 -26.5
q-30 0 -47.5 17.5t-17.5 45.5z" />
    <glyph glyph-name="multiply" unicode="&#xd7;" 
d="M70 27v1376h1263v-1376h-1263zM41 0h1321v1427h-1321v-1427z" />
    <glyph glyph-name="Oslash" unicode="&#xd8;" 
d="M70 27v1376h1263v-1376h-1263zM41 0h1321v1427h-1321v-1427z" />
    <glyph glyph-name="Ugrave" unicode="&#xd9;" horiz-adv-x="1839" 
d="M510 451h20q65 0 132.5 27t144.5 85q152 116 257 263.5t105 222.5q0 46 -28.5 71t-81.5 25q-100 0 -218.5 -77.5t-203.5 -203.5q-65 -96 -96 -193t-31 -202v-18zM1448 258q-124 -149 -204 -213.5t-138 -64.5q-48 0 -76.5 34t-28.5 92q0 118 182 365l15 21l41 56
q334 460 334 623q0 132 -93 214.5t-241 82.5q-166 0 -349.5 -78.5t-334.5 -215.5q-135 -122 -210 -250t-75 -234q0 -98 57 -163.5t146 -71.5q2 127 36.5 236.5t102.5 203.5q92 127 217 205t232 78q78 0 118 -40.5t40 -119.5q0 -119 -99 -262.5t-254 -239.5q-81 -52 -162 -77
t-165 -25h-29q14 -287 191 -456t460 -169q136 0 251 40q15 5 18 5q5 0 9.5 -4t4.5 -8q0 -21 -87.5 -42.5t-201.5 -21.5q-295 0 -478 176t-204 482q-109 12 -175.5 87.5t-66.5 186.5q0 121 82.5 256.5t235.5 267.5q156 136 337 211.5t347 75.5q181 0 290 -104.5t109 -278.5
q0 -108 -53.5 -226.5t-245.5 -381.5l-55 -76q-225 -308 -225 -362q0 -27 14 -44.5t35 -17.5q77 0 219 154t362 477l459 680q4 5 10 15q33 50 84 50q20 0 32.5 -7t12.5 -17q0 -8 -11 -31.5t-29 -50.5l-648 -958q-71 -106 -106 -172t-35 -95q0 -16 10.5 -28.5t24.5 -12.5
q55 0 153 58t195 151q53 51 104.5 109.5t59.5 58.5q5 0 8.5 -3t3.5 -7q0 -17 -41 -66t-110 -114q-114 -107 -222 -168.5t-178 -61.5q-42 0 -64 22.5t-22 65.5q0 31 19 82.5t55 116.5zM2116 1579q0 -6 -4 -10t-11 -4q-34 0 -119 105t-85 171q0 39 19 60.5t52 21.5
q26 0 41 -19t15 -53q0 -1 -1 -24.5t-1 -44.5q0 -78 73 -170q21 -27 21 -33z" />
    <glyph glyph-name="Uacute" unicode="&#xda;" horiz-adv-x="1839" 
d="M510 451h20q65 0 132.5 27t144.5 85q152 116 257 263.5t105 222.5q0 46 -28.5 71t-81.5 25q-100 0 -218.5 -77.5t-203.5 -203.5q-65 -96 -96 -193t-31 -202v-18zM1448 258q-124 -149 -204 -213.5t-138 -64.5q-48 0 -76.5 34t-28.5 92q0 118 182 365l15 21l41 56
q334 460 334 623q0 132 -93 214.5t-241 82.5q-166 0 -349.5 -78.5t-334.5 -215.5q-135 -122 -210 -250t-75 -234q0 -98 57 -163.5t146 -71.5q2 127 36.5 236.5t102.5 203.5q92 127 217 205t232 78q78 0 118 -40.5t40 -119.5q0 -119 -99 -262.5t-254 -239.5q-81 -52 -162 -77
t-165 -25h-29q14 -287 191 -456t460 -169q136 0 251 40q15 5 18 5q5 0 9.5 -4t4.5 -8q0 -21 -87.5 -42.5t-201.5 -21.5q-295 0 -478 176t-204 482q-109 12 -175.5 87.5t-66.5 186.5q0 121 82.5 256.5t235.5 267.5q156 136 337 211.5t347 75.5q181 0 290 -104.5t109 -278.5
q0 -108 -53.5 -226.5t-245.5 -381.5l-55 -76q-225 -308 -225 -362q0 -27 14 -44.5t35 -17.5q77 0 219 154t362 477l459 680q4 5 10 15q33 50 84 50q20 0 32.5 -7t12.5 -17q0 -8 -11 -31.5t-29 -50.5l-648 -958q-71 -106 -106 -172t-35 -95q0 -16 10.5 -28.5t24.5 -12.5
q55 0 153 58t195 151q53 51 104.5 109.5t59.5 58.5q5 0 8.5 -3t3.5 -7q0 -17 -41 -66t-110 -114q-114 -107 -222 -168.5t-178 -61.5q-42 0 -64 22.5t-22 65.5q0 31 19 82.5t55 116.5zM1968 1567q-9 0 -13.5 3.5t-4.5 10.5q0 9 64 52.5t106 103.5q17 25 40 82q36 96 83 96
q28 0 44.5 -16.5t16.5 -45.5q0 -50 -48 -105.5t-140 -111.5q-67 -40 -98 -54.5t-50 -14.5z" />
    <glyph glyph-name="Ucircumflex" unicode="&#xdb;" horiz-adv-x="1839" 
d="M510 451h20q65 0 132.5 27t144.5 85q152 116 257 263.5t105 222.5q0 46 -28.5 71t-81.5 25q-100 0 -218.5 -77.5t-203.5 -203.5q-65 -96 -96 -193t-31 -202v-18zM1448 258q-124 -149 -204 -213.5t-138 -64.5q-48 0 -76.5 34t-28.5 92q0 118 182 365l15 21l41 56
q334 460 334 623q0 132 -93 214.5t-241 82.5q-166 0 -349.5 -78.5t-334.5 -215.5q-135 -122 -210 -250t-75 -234q0 -98 57 -163.5t146 -71.5q2 127 36.5 236.5t102.5 203.5q92 127 217 205t232 78q78 0 118 -40.5t40 -119.5q0 -119 -99 -262.5t-254 -239.5q-81 -52 -162 -77
t-165 -25h-29q14 -287 191 -456t460 -169q136 0 251 40q15 5 18 5q5 0 9.5 -4t4.5 -8q0 -21 -87.5 -42.5t-201.5 -21.5q-295 0 -478 176t-204 482q-109 12 -175.5 87.5t-66.5 186.5q0 121 82.5 256.5t235.5 267.5q156 136 337 211.5t347 75.5q181 0 290 -104.5t109 -278.5
q0 -108 -53.5 -226.5t-245.5 -381.5l-55 -76q-225 -308 -225 -362q0 -27 14 -44.5t35 -17.5q77 0 219 154t362 477l459 680q4 5 10 15q33 50 84 50q20 0 32.5 -7t12.5 -17q0 -8 -11 -31.5t-29 -50.5l-648 -958q-71 -106 -106 -172t-35 -95q0 -16 10.5 -28.5t24.5 -12.5
q55 0 153 58t195 151q53 51 104.5 109.5t59.5 58.5q5 0 8.5 -3t3.5 -7q0 -17 -41 -66t-110 -114q-114 -107 -222 -168.5t-178 -61.5q-42 0 -64 22.5t-22 65.5q0 31 19 82.5t55 116.5zM2124 1724l-240 -127q-54 -29 -81 -40t-41 -11q-11 0 -17 5t-6 14q0 16 75 62
q39 23 62 38q92 58 182 125.5t97 67.5t15 -7t11 -16l68 -244q1 -4 3.5 -13.5t2.5 -12.5q0 -10 -4.5 -16.5t-11.5 -6.5q-26 0 -87 126z" />
    <glyph glyph-name="Udieresis" unicode="&#xdc;" horiz-adv-x="1839" 
d="M510 451h20q65 0 132.5 27t144.5 85q152 116 257 263.5t105 222.5q0 46 -28.5 71t-81.5 25q-100 0 -218.5 -77.5t-203.5 -203.5q-65 -96 -96 -193t-31 -202v-18zM1448 258q-124 -149 -204 -213.5t-138 -64.5q-48 0 -76.5 34t-28.5 92q0 118 182 365l15 21l41 56
q334 460 334 623q0 132 -93 214.5t-241 82.5q-166 0 -349.5 -78.5t-334.5 -215.5q-135 -122 -210 -250t-75 -234q0 -98 57 -163.5t146 -71.5q2 127 36.5 236.5t102.5 203.5q92 127 217 205t232 78q78 0 118 -40.5t40 -119.5q0 -119 -99 -262.5t-254 -239.5q-81 -52 -162 -77
t-165 -25h-29q14 -287 191 -456t460 -169q136 0 251 40q15 5 18 5q5 0 9.5 -4t4.5 -8q0 -21 -87.5 -42.5t-201.5 -21.5q-295 0 -478 176t-204 482q-109 12 -175.5 87.5t-66.5 186.5q0 121 82.5 256.5t235.5 267.5q156 136 337 211.5t347 75.5q181 0 290 -104.5t109 -278.5
q0 -108 -53.5 -226.5t-245.5 -381.5l-55 -76q-225 -308 -225 -362q0 -27 14 -44.5t35 -17.5q77 0 219 154t362 477l459 680q4 5 10 15q33 50 84 50q20 0 32.5 -7t12.5 -17q0 -8 -11 -31.5t-29 -50.5l-648 -958q-71 -106 -106 -172t-35 -95q0 -16 10.5 -28.5t24.5 -12.5
q55 0 153 58t195 151q53 51 104.5 109.5t59.5 58.5q5 0 8.5 -3t3.5 -7q0 -17 -41 -66t-110 -114q-114 -107 -222 -168.5t-178 -61.5q-42 0 -64 22.5t-22 65.5q0 31 19 82.5t55 116.5zM2144 1685q0 42 24 68.5t60 26.5q31 0 47.5 -17.5t16.5 -50.5q0 -37 -24.5 -63.5
t-59.5 -26.5q-29 0 -46.5 17t-17.5 46zM1811 1685q0 42 23.5 68.5t60.5 26.5q31 0 48 -18t17 -50q0 -37 -24.5 -63.5t-59.5 -26.5q-30 0 -47.5 17.5t-17.5 45.5z" />
    <glyph glyph-name="Yacute" unicode="&#xdd;" 
d="M70 27v1376h1263v-1376h-1263zM41 0h1321v1427h-1321v-1427z" />
    <glyph glyph-name="Thorn" unicode="&#xde;" 
d="M70 27v1376h1263v-1376h-1263zM41 0h1321v1427h-1321v-1427z" />
    <glyph glyph-name="germandbls" unicode="&#xdf;" horiz-adv-x="758" 
d="M389 549l-733 -983q-2 -3 -5 -7q-48 -65 -143 -65q-10 0 -13 3.5t-3 15.5q0 11 43 66q33 41 53 69l654 866q270 359 489 557.5t342 198.5q35 0 53.5 -21t18.5 -61q0 -53 -41 -110.5t-125 -121.5l-63 -45q-187 -132 -228 -280q-10 -37 -26.5 -198t-79.5 -251
q-32 -45 -79 -84t-116 -78q92 18 194 79.5t210 164.5q39 38 79.5 81.5t47.5 43.5q5 0 7.5 -3t2.5 -9q0 -20 -62 -86t-153 -137q-116 -90 -220 -132t-210 -42q-66 0 -101 23t-35 67q0 40 28.5 72t62.5 32q17 0 29 -10t12 -25q0 -16 -46.5 -34t-46.5 -46q0 -17 12 -29t31 -12
q38 0 90.5 35.5t106.5 98.5q111 130 178 385q16 60 25 88q22 72 72.5 138.5t136.5 133.5q25 20 75 58q195 149 195 237q0 24 -11 35.5t-34 11.5q-87 0 -229.5 -143t-444.5 -547z" />
    <glyph glyph-name="agrave" unicode="&#xe0;" horiz-adv-x="743" 
d="M135 23q36 0 97.5 41.5t127.5 113.5q109 118 167.5 196.5t58.5 106.5q0 22 -14 33.5t-42 11.5q-50 0 -116.5 -39.5t-139.5 -113.5q-90 -92 -139 -170.5t-49 -128.5q0 -25 12.5 -38t36.5 -13zM389 162q-84 -87 -151 -129.5t-121 -42.5q-53 0 -83 33.5t-30 91.5
q0 68 48.5 151t131.5 154q79 66 168 102.5t172 36.5q41 0 65 -18t26 -49q33 45 49.5 54t52.5 9q19 0 30 -5t11 -13q0 -6 -6.5 -20t-16.5 -25l-252 -328q-23 -31 -36 -57t-13 -44q0 -15 8 -21.5t27 -6.5q39 0 112 52t179 155q44 43 89.5 95t53.5 52q6 0 9 -3t3 -9
q0 -16 -51.5 -74.5t-134.5 -134.5q-103 -95 -172.5 -136.5t-122.5 -41.5q-37 0 -57.5 17.5t-20.5 49.5q0 29 8.5 55t24.5 50zM708 639q0 -6 -4 -10t-11 -4q-34 0 -119 105t-85 171q0 39 19 60.5t52 21.5q26 0 41 -19t15 -53q0 -1 -1 -24.5t-1 -44.5q0 -78 73 -170
q21 -27 21 -33z" />
    <glyph glyph-name="aacute" unicode="&#xe1;" horiz-adv-x="743" 
d="M135 23q36 0 97.5 41.5t127.5 113.5q109 118 167.5 196.5t58.5 106.5q0 22 -14 33.5t-42 11.5q-50 0 -116.5 -39.5t-139.5 -113.5q-90 -92 -139 -170.5t-49 -128.5q0 -25 12.5 -38t36.5 -13zM389 162q-84 -87 -151 -129.5t-121 -42.5q-53 0 -83 33.5t-30 91.5
q0 68 48.5 151t131.5 154q79 66 168 102.5t172 36.5q41 0 65 -18t26 -49q33 45 49.5 54t52.5 9q19 0 30 -5t11 -13q0 -6 -6.5 -20t-16.5 -25l-252 -328q-23 -31 -36 -57t-13 -44q0 -15 8 -21.5t27 -6.5q39 0 112 52t179 155q44 43 89.5 95t53.5 52q6 0 9 -3t3 -9
q0 -16 -51.5 -74.5t-134.5 -134.5q-103 -95 -172.5 -136.5t-122.5 -41.5q-37 0 -57.5 17.5t-20.5 49.5q0 29 8.5 55t24.5 50zM560 627q-9 0 -13.5 3.5t-4.5 10.5q0 9 64 52.5t106 103.5q17 25 40 82q36 96 83 96q28 0 44.5 -16.5t16.5 -45.5q0 -50 -48 -105.5t-140 -111.5
q-67 -40 -98 -54.5t-50 -14.5z" />
    <glyph glyph-name="acircumflex" unicode="&#xe2;" horiz-adv-x="743" 
d="M135 23q36 0 97.5 41.5t127.5 113.5q109 118 167.5 196.5t58.5 106.5q0 22 -14 33.5t-42 11.5q-50 0 -116.5 -39.5t-139.5 -113.5q-90 -92 -139 -170.5t-49 -128.5q0 -25 12.5 -38t36.5 -13zM389 162q-84 -87 -151 -129.5t-121 -42.5q-53 0 -83 33.5t-30 91.5
q0 68 48.5 151t131.5 154q79 66 168 102.5t172 36.5q41 0 65 -18t26 -49q33 45 49.5 54t52.5 9q19 0 30 -5t11 -13q0 -6 -6.5 -20t-16.5 -25l-252 -328q-23 -31 -36 -57t-13 -44q0 -15 8 -21.5t27 -6.5q39 0 112 52t179 155q44 43 89.5 95t53.5 52q6 0 9 -3t3 -9
q0 -16 -51.5 -74.5t-134.5 -134.5q-103 -95 -172.5 -136.5t-122.5 -41.5q-37 0 -57.5 17.5t-20.5 49.5q0 29 8.5 55t24.5 50zM716 784l-240 -127q-54 -29 -81 -40t-41 -11q-11 0 -17 5t-6 14q0 16 75 62q39 23 62 38q92 58 182 125.5t97 67.5t15 -7t11 -16l68 -244
q1 -4 3.5 -13.5t2.5 -12.5q0 -10 -4.5 -16.5t-11.5 -6.5q-26 0 -87 126z" />
    <glyph glyph-name="atilde" unicode="&#xe3;" horiz-adv-x="743" 
d="M135 23q36 0 97.5 41.5t127.5 113.5q109 118 167.5 196.5t58.5 106.5q0 22 -14 33.5t-42 11.5q-50 0 -116.5 -39.5t-139.5 -113.5q-90 -92 -139 -170.5t-49 -128.5q0 -25 12.5 -38t36.5 -13zM389 162q-84 -87 -151 -129.5t-121 -42.5q-53 0 -83 33.5t-30 91.5
q0 68 48.5 151t131.5 154q79 66 168 102.5t172 36.5q41 0 65 -18t26 -49q33 45 49.5 54t52.5 9q19 0 30 -5t11 -13q0 -6 -6.5 -20t-16.5 -25l-252 -328q-23 -31 -36 -57t-13 -44q0 -15 8 -21.5t27 -6.5q39 0 112 52t179 155q44 43 89.5 95t53.5 52q6 0 9 -3t3 -9
q0 -16 -51.5 -74.5t-134.5 -134.5q-103 -95 -172.5 -136.5t-122.5 -41.5q-37 0 -57.5 17.5t-20.5 49.5q0 29 8.5 55t24.5 50zM530 852q40 0 125.5 -38t121.5 -38q46 0 81.5 50.5t45.5 50.5q9 0 15 -5t6 -12q0 -49 -56 -119.5t-120 -70.5q-42 0 -126.5 37.5t-121.5 37.5
q-46 0 -81.5 -49t-45.5 -49q-9 0 -14.5 4t-5.5 11q0 49 55.5 119.5t120.5 70.5z" />
    <glyph glyph-name="adieresis" unicode="&#xe4;" horiz-adv-x="743" 
d="M135 23q36 0 97.5 41.5t127.5 113.5q109 118 167.5 196.5t58.5 106.5q0 22 -14 33.5t-42 11.5q-50 0 -116.5 -39.5t-139.5 -113.5q-90 -92 -139 -170.5t-49 -128.5q0 -25 12.5 -38t36.5 -13zM389 162q-84 -87 -151 -129.5t-121 -42.5q-53 0 -83 33.5t-30 91.5
q0 68 48.5 151t131.5 154q79 66 168 102.5t172 36.5q41 0 65 -18t26 -49q33 45 49.5 54t52.5 9q19 0 30 -5t11 -13q0 -6 -6.5 -20t-16.5 -25l-252 -328q-23 -31 -36 -57t-13 -44q0 -15 8 -21.5t27 -6.5q39 0 112 52t179 155q44 43 89.5 95t53.5 52q6 0 9 -3t3 -9
q0 -16 -51.5 -74.5t-134.5 -134.5q-103 -95 -172.5 -136.5t-122.5 -41.5q-37 0 -57.5 17.5t-20.5 49.5q0 29 8.5 55t24.5 50zM736 745q0 42 24 68.5t60 26.5q31 0 47.5 -17.5t16.5 -50.5q0 -37 -24.5 -63.5t-59.5 -26.5q-29 0 -46.5 17t-17.5 46zM403 745q0 42 23.5 68.5
t60.5 26.5q31 0 48 -18t17 -50q0 -37 -24.5 -63.5t-59.5 -26.5q-30 0 -47.5 17.5t-17.5 45.5z" />
    <glyph glyph-name="aring" unicode="&#xe5;" horiz-adv-x="743" 
d="M512 778q0 -52 34.5 -86.5t86.5 -34.5q51 0 86 35t35 86t-35 86t-86 35q-52 0 -86.5 -34.5t-34.5 -86.5zM459 778q0 73 50.5 123.5t123.5 50.5t123.5 -50.5t50.5 -123.5t-50.5 -123.5t-123.5 -50.5t-123.5 50.5t-50.5 123.5zM135 23q36 0 97.5 41.5t127.5 113.5
q109 118 167.5 196.5t58.5 106.5q0 22 -14 33.5t-42 11.5q-50 0 -116.5 -39.5t-139.5 -113.5q-90 -92 -139 -170.5t-49 -128.5q0 -25 12.5 -38t36.5 -13zM389 162q-84 -87 -151 -129.5t-121 -42.5q-53 0 -83 33.5t-30 91.5q0 68 48.5 151t131.5 154q79 66 168 102.5
t172 36.5q41 0 65 -18t26 -49q33 45 49.5 54t52.5 9q19 0 30 -5t11 -13q0 -6 -6.5 -20t-16.5 -25l-252 -328q-23 -31 -36 -57t-13 -44q0 -15 8 -21.5t27 -6.5q39 0 112 52t179 155q44 43 89.5 95t53.5 52q6 0 9 -3t3 -9q0 -16 -51.5 -74.5t-134.5 -134.5
q-103 -95 -172.5 -136.5t-122.5 -41.5q-37 0 -57.5 17.5t-20.5 49.5q0 29 8.5 55t24.5 50z" />
    <glyph glyph-name="ae" unicode="&#xe6;" horiz-adv-x="924" 
d="M553 240q144 45 235 117t91 135q0 14 -10 24t-25 10q-39 0 -122 -80t-169 -206zM537 197q-13 -30 -19 -54.5t-6 -46.5q0 -34 17 -52.5t49 -18.5q62 0 157 58t215 171q41 39 87 91t61 52q4 0 6 -2.5t2 -9.5q0 -11 -37.5 -53.5t-99.5 -102.5q-121 -115 -224 -177t-176 -62
q-63 0 -101 42t-38 113q0 12 1.5 29t4.5 36q-108 -116 -184 -168t-135 -52q-53 0 -83 33.5t-30 91.5q0 68 48.5 151t131.5 154q78 66 168 102.5t172 36.5q36 0 57.5 -13.5t26.5 -39.5q30 34 44 42.5t30 8.5t24.5 -5.5t8.5 -14.5q0 -5 -5 -13t-15 -22q52 29 91.5 43t71.5 14
q29 0 46.5 -17.5t17.5 -45.5q0 -77 -106.5 -161t-278.5 -138zM135 25q37 0 98.5 41t126.5 112q109 118 167.5 196.5t58.5 106.5q0 22 -14 33.5t-42 11.5q-50 0 -116.5 -39.5t-139.5 -113.5q-90 -92 -139 -170.5t-49 -128.5q0 -25 12.5 -37t36.5 -12z" />
    <glyph glyph-name="ccedilla" unicode="&#xe7;" horiz-adv-x="498" 
d="M522 432q-15 0 -27 11t-12 26q0 8 6.5 19.5t6.5 15.5q0 10 -5 14t-18 4q-33 0 -74.5 -29.5t-115.5 -109.5q-76 -80 -116 -149.5t-40 -118.5q0 -43 19.5 -64.5t58.5 -21.5q56 0 139.5 56.5t181.5 162.5q35 38 80 92q40 49 49 49q7 0 10 -3t3 -9q0 -14 -43 -65.5
t-117 -127.5q-94 -95 -177.5 -145.5t-146.5 -50.5q-62 0 -100.5 44t-38.5 115q0 73 35.5 143t105.5 136q73 68 152 105.5t147 37.5q49 0 73 -17t24 -52q0 -26 -19 -47t-41 -21zM46 -119q27 15 56.5 22t66.5 7q75 0 113.5 -32t38.5 -95q0 -74 -56.5 -119t-150.5 -45
q-103 0 -188 32.5t-85 55.5q0 7 5 12t12 5q9 0 86 -23t141 -23q62 0 100.5 27.5t38.5 69.5q0 40 -24.5 57.5t-81.5 17.5q-10 0 -24 -2t-29 -6z" />
    <glyph glyph-name="egrave" unicode="&#xe8;" horiz-adv-x="537" 
d="M150 197q-15 -28 -21 -53t-6 -50q0 -32 18.5 -50.5t51.5 -18.5q61 0 156 59t212 170q42 39 87.5 91t60.5 52q4 0 6 -2.5t2 -9.5q0 -10 -37 -53t-98 -103q-120 -115 -224.5 -177t-177.5 -62q-65 0 -103 43.5t-38 118.5q0 79 53.5 163t149.5 154q58 43 116 66.5t103 23.5
q34 0 52.5 -16.5t18.5 -46.5q0 -77 -105 -160.5t-277 -138.5zM164 240q145 46 236.5 117.5t91.5 134.5q0 13 -11 22.5t-26 9.5q-40 0 -123 -79.5t-168 -204.5zM603 639q0 -6 -4 -10t-11 -4q-34 0 -119 105t-85 171q0 39 19 60.5t52 21.5q26 0 41 -19t15 -53q0 -1 -1 -24.5
t-1 -44.5q0 -78 73 -170q21 -27 21 -33z" />
    <glyph glyph-name="eacute" unicode="&#xe9;" horiz-adv-x="537" 
d="M150 197q-15 -28 -21 -53t-6 -50q0 -32 18.5 -50.5t51.5 -18.5q61 0 156 59t212 170q42 39 87.5 91t60.5 52q4 0 6 -2.5t2 -9.5q0 -10 -37 -53t-98 -103q-120 -115 -224.5 -177t-177.5 -62q-65 0 -103 43.5t-38 118.5q0 79 53.5 163t149.5 154q58 43 116 66.5t103 23.5
q34 0 52.5 -16.5t18.5 -46.5q0 -77 -105 -160.5t-277 -138.5zM164 240q145 46 236.5 117.5t91.5 134.5q0 13 -11 22.5t-26 9.5q-40 0 -123 -79.5t-168 -204.5zM455 627q-9 0 -13.5 3.5t-4.5 10.5q0 9 64 52.5t106 103.5q17 25 40 82q36 96 83 96q28 0 44.5 -16.5t16.5 -45.5
q0 -50 -48 -105.5t-140 -111.5q-67 -40 -98 -54.5t-50 -14.5z" />
    <glyph glyph-name="ecircumflex" unicode="&#xea;" horiz-adv-x="537" 
d="M150 197q-15 -28 -21 -53t-6 -50q0 -32 18.5 -50.5t51.5 -18.5q61 0 156 59t212 170q42 39 87.5 91t60.5 52q4 0 6 -2.5t2 -9.5q0 -10 -37 -53t-98 -103q-120 -115 -224.5 -177t-177.5 -62q-65 0 -103 43.5t-38 118.5q0 79 53.5 163t149.5 154q58 43 116 66.5t103 23.5
q34 0 52.5 -16.5t18.5 -46.5q0 -77 -105 -160.5t-277 -138.5zM164 240q145 46 236.5 117.5t91.5 134.5q0 13 -11 22.5t-26 9.5q-40 0 -123 -79.5t-168 -204.5zM611 784l-240 -127q-54 -29 -81 -40t-41 -11q-11 0 -17 5t-6 14q0 16 75 62q39 23 62 38q92 58 182 125.5
t97 67.5t15 -7t11 -16l68 -244q1 -4 3.5 -13.5t2.5 -12.5q0 -10 -4.5 -16.5t-11.5 -6.5q-26 0 -87 126z" />
    <glyph glyph-name="edieresis" unicode="&#xeb;" horiz-adv-x="537" 
d="M150 197q-15 -28 -21 -53t-6 -50q0 -32 18.5 -50.5t51.5 -18.5q61 0 156 59t212 170q42 39 87.5 91t60.5 52q4 0 6 -2.5t2 -9.5q0 -10 -37 -53t-98 -103q-120 -115 -224.5 -177t-177.5 -62q-65 0 -103 43.5t-38 118.5q0 79 53.5 163t149.5 154q58 43 116 66.5t103 23.5
q34 0 52.5 -16.5t18.5 -46.5q0 -77 -105 -160.5t-277 -138.5zM164 240q145 46 236.5 117.5t91.5 134.5q0 13 -11 22.5t-26 9.5q-40 0 -123 -79.5t-168 -204.5zM631 745q0 42 24 68.5t60 26.5q31 0 47.5 -17.5t16.5 -50.5q0 -37 -24.5 -63.5t-59.5 -26.5q-29 0 -46.5 17
t-17.5 46zM298 745q0 42 23.5 68.5t60.5 26.5q31 0 48 -18t17 -50q0 -37 -24.5 -63.5t-59.5 -26.5q-30 0 -47.5 17.5t-17.5 45.5z" />
    <glyph glyph-name="igrave" unicode="&#xec;" horiz-adv-x="365" 
d="M98 160q-23 -30 -36 -56.5t-13 -42.5q0 -15 8 -21.5t27 -6.5q36 0 103 45t161 133q58 54 113.5 116t62.5 62q6 0 9.5 -3t3.5 -9q0 -14 -41 -61t-121 -126q-100 -96 -177 -146t-126 -50q-44 0 -67 23t-23 67q0 92 212 369l2 3q8 10 21 27q52 70 109 70q20 0 31.5 -4
t11.5 -12q0 -7 -6.5 -20t-16.5 -25zM480 639q0 -6 -4 -10t-11 -4q-34 0 -119 105t-85 171q0 39 19 60.5t52 21.5q26 0 41 -19t15 -53q0 -1 -1 -24.5t-1 -44.5q0 -78 73 -170q21 -27 21 -33z" />
    <glyph glyph-name="iacute" unicode="&#xed;" horiz-adv-x="365" 
d="M98 160q-23 -30 -36 -56.5t-13 -42.5q0 -15 8 -21.5t27 -6.5q36 0 103 45t161 133q58 54 113.5 116t62.5 62q6 0 9.5 -3t3.5 -9q0 -14 -41 -61t-121 -126q-100 -96 -177 -146t-126 -50q-44 0 -67 23t-23 67q0 92 212 369l2 3q8 10 21 27q52 70 109 70q20 0 31.5 -4
t11.5 -12q0 -7 -6.5 -20t-16.5 -25zM332 627q-9 0 -13.5 3.5t-4.5 10.5q0 9 64 52.5t106 103.5q17 25 40 82q36 96 83 96q28 0 44.5 -16.5t16.5 -45.5q0 -50 -48 -105.5t-140 -111.5q-67 -40 -98 -54.5t-50 -14.5z" />
    <glyph glyph-name="icircumflex" unicode="&#xee;" horiz-adv-x="365" 
d="M98 160q-23 -30 -36 -56.5t-13 -42.5q0 -15 8 -21.5t27 -6.5q36 0 103 45t161 133q58 54 113.5 116t62.5 62q6 0 9.5 -3t3.5 -9q0 -14 -41 -61t-121 -126q-100 -96 -177 -146t-126 -50q-44 0 -67 23t-23 67q0 92 212 369l2 3q8 10 21 27q52 70 109 70q20 0 31.5 -4
t11.5 -12q0 -7 -6.5 -20t-16.5 -25zM488 784l-240 -127q-54 -29 -81 -40t-41 -11q-11 0 -17 5t-6 14q0 16 75 62q39 23 62 38q92 58 182 125.5t97 67.5t15 -7t11 -16l68 -244q1 -4 3.5 -13.5t2.5 -12.5q0 -10 -4.5 -16.5t-11.5 -6.5q-26 0 -87 126z" />
    <glyph glyph-name="idieresis" unicode="&#xef;" horiz-adv-x="365" 
d="M98 160q-23 -30 -36 -56.5t-13 -42.5q0 -15 8 -21.5t27 -6.5q36 0 103 45t161 133q58 54 113.5 116t62.5 62q6 0 9.5 -3t3.5 -9q0 -14 -41 -61t-121 -126q-100 -96 -177 -146t-126 -50q-44 0 -67 23t-23 67q0 92 212 369l2 3q8 10 21 27q52 70 109 70q20 0 31.5 -4
t11.5 -12q0 -7 -6.5 -20t-16.5 -25zM508 745q0 42 24 68.5t60 26.5q31 0 47.5 -17.5t16.5 -50.5q0 -37 -24.5 -63.5t-59.5 -26.5q-29 0 -46.5 17t-17.5 46zM175 745q0 42 23.5 68.5t60.5 26.5q31 0 48 -18t17 -50q0 -37 -24.5 -63.5t-59.5 -26.5q-30 0 -47.5 17.5
t-17.5 45.5z" />
    <glyph glyph-name="eth" unicode="&#xf0;" 
d="M70 27v1376h1263v-1376h-1263zM41 0h1321v1427h-1321v-1427z" />
    <glyph glyph-name="ntilde" unicode="&#xf1;" horiz-adv-x="811" 
d="M117 141l200 254q25 30 38.5 56t13.5 43q0 8 -6.5 14t-14.5 6q-43 0 -125 -91t-94 -91q-3 0 -5.5 3t-2.5 7q0 9 17 31.5t57 64.5q58 63 103.5 94t80.5 31q32 0 54 -23.5t22 -60.5q0 -19 -6 -38t-19 -42q92 86 148 122t94 36q31 0 50 -20.5t19 -55.5q0 -60 -99 -191
q-10 -13 -15 -19q-12 -17 -34 -45q-93 -125 -93 -152q0 -20 9 -29.5t28 -9.5q38 0 110.5 51t173.5 150q46 44 93.5 98.5t56.5 54.5q6 0 9 -3t3 -9q0 -16 -51.5 -74.5t-134.5 -134.5q-98 -91 -169 -134.5t-122 -43.5q-41 0 -65.5 24t-24.5 64q0 36 25.5 85t113.5 165
q50 65 74 103.5t24 51.5q0 9 -4.5 16t-11.5 7q-38 0 -140 -88.5t-216 -227.5q-33 -40 -77 -100q-73 -100 -151 -100q-13 0 -20.5 4.5t-7.5 11.5q0 11 20.5 42t71.5 93zM563 852q40 0 125.5 -38t121.5 -38q46 0 81.5 50.5t45.5 50.5q9 0 15 -5t6 -12q0 -49 -56 -119.5
t-120 -70.5q-42 0 -126.5 37.5t-121.5 37.5q-46 0 -81.5 -49t-45.5 -49q-9 0 -14.5 4t-5.5 11q0 49 55.5 119.5t120.5 70.5z" />
    <glyph glyph-name="ograve" unicode="&#xf2;" horiz-adv-x="600" 
d="M500 522q-41 0 -98 -38.5t-134 -118.5q-91 -93 -139.5 -165t-48.5 -114q0 -29 16 -44t47 -15q44 0 113 46.5t139 125.5q72 79 114 152t42 114q0 28 -13.5 42.5t-37.5 14.5zM486 251q-105 -130 -195.5 -195.5t-165.5 -65.5q-52 0 -82.5 34.5t-30.5 94.5q0 72 47.5 153.5
t133.5 155.5q72 63 149.5 98t140.5 35q46 0 73.5 -26.5t27.5 -71.5q0 -63 -57 -153q-13 -20 -13 -23q0 -12 14.5 -20.5t34.5 -8.5q60 0 126 63.5t73 63.5q3 0 4.5 -2t1.5 -6q0 -33 -73.5 -92.5t-137.5 -59.5q-22 0 -39 6.5t-32 19.5zM636 639q0 -6 -4 -10t-11 -4
q-34 0 -119 105t-85 171q0 39 19 60.5t52 21.5q26 0 41 -19t15 -53q0 -1 -1 -24.5t-1 -44.5q0 -78 73 -170q21 -27 21 -33z" />
    <glyph glyph-name="oacute" unicode="&#xf3;" horiz-adv-x="600" 
d="M500 522q-41 0 -98 -38.5t-134 -118.5q-91 -93 -139.5 -165t-48.5 -114q0 -29 16 -44t47 -15q44 0 113 46.5t139 125.5q72 79 114 152t42 114q0 28 -13.5 42.5t-37.5 14.5zM486 251q-105 -130 -195.5 -195.5t-165.5 -65.5q-52 0 -82.5 34.5t-30.5 94.5q0 72 47.5 153.5
t133.5 155.5q72 63 149.5 98t140.5 35q46 0 73.5 -26.5t27.5 -71.5q0 -63 -57 -153q-13 -20 -13 -23q0 -12 14.5 -20.5t34.5 -8.5q60 0 126 63.5t73 63.5q3 0 4.5 -2t1.5 -6q0 -33 -73.5 -92.5t-137.5 -59.5q-22 0 -39 6.5t-32 19.5zM488 627q-9 0 -13.5 3.5t-4.5 10.5
q0 9 64 52.5t106 103.5q17 25 40 82q36 96 83 96q28 0 44.5 -16.5t16.5 -45.5q0 -50 -48 -105.5t-140 -111.5q-67 -40 -98 -54.5t-50 -14.5z" />
    <glyph glyph-name="ocircumflex" unicode="&#xf4;" horiz-adv-x="600" 
d="M500 522q-41 0 -98 -38.5t-134 -118.5q-91 -93 -139.5 -165t-48.5 -114q0 -29 16 -44t47 -15q44 0 113 46.5t139 125.5q72 79 114 152t42 114q0 28 -13.5 42.5t-37.5 14.5zM486 251q-105 -130 -195.5 -195.5t-165.5 -65.5q-52 0 -82.5 34.5t-30.5 94.5q0 72 47.5 153.5
t133.5 155.5q72 63 149.5 98t140.5 35q46 0 73.5 -26.5t27.5 -71.5q0 -63 -57 -153q-13 -20 -13 -23q0 -12 14.5 -20.5t34.5 -8.5q60 0 126 63.5t73 63.5q3 0 4.5 -2t1.5 -6q0 -33 -73.5 -92.5t-137.5 -59.5q-22 0 -39 6.5t-32 19.5zM644 784l-240 -127q-54 -29 -81 -40
t-41 -11q-11 0 -17 5t-6 14q0 16 75 62q39 23 62 38q92 58 182 125.5t97 67.5t15 -7t11 -16l68 -244q1 -4 3.5 -13.5t2.5 -12.5q0 -10 -4.5 -16.5t-11.5 -6.5q-26 0 -87 126z" />
    <glyph glyph-name="otilde" unicode="&#xf5;" horiz-adv-x="600" 
d="M500 522q-41 0 -98 -38.5t-134 -118.5q-91 -93 -139.5 -165t-48.5 -114q0 -29 16 -44t47 -15q44 0 113 46.5t139 125.5q72 79 114 152t42 114q0 28 -13.5 42.5t-37.5 14.5zM486 251q-105 -130 -195.5 -195.5t-165.5 -65.5q-52 0 -82.5 34.5t-30.5 94.5q0 72 47.5 153.5
t133.5 155.5q72 63 149.5 98t140.5 35q46 0 73.5 -26.5t27.5 -71.5q0 -63 -57 -153q-13 -20 -13 -23q0 -12 14.5 -20.5t34.5 -8.5q60 0 126 63.5t73 63.5q3 0 4.5 -2t1.5 -6q0 -33 -73.5 -92.5t-137.5 -59.5q-22 0 -39 6.5t-32 19.5zM458 852q40 0 125.5 -38t121.5 -38
q46 0 81.5 50.5t45.5 50.5q9 0 15 -5t6 -12q0 -49 -56 -119.5t-120 -70.5q-42 0 -126.5 37.5t-121.5 37.5q-46 0 -81.5 -49t-45.5 -49q-9 0 -14.5 4t-5.5 11q0 49 55.5 119.5t120.5 70.5z" />
    <glyph glyph-name="odieresis" unicode="&#xf6;" horiz-adv-x="600" 
d="M500 522q-41 0 -98 -38.5t-134 -118.5q-91 -93 -139.5 -165t-48.5 -114q0 -29 16 -44t47 -15q44 0 113 46.5t139 125.5q72 79 114 152t42 114q0 28 -13.5 42.5t-37.5 14.5zM486 251q-105 -130 -195.5 -195.5t-165.5 -65.5q-52 0 -82.5 34.5t-30.5 94.5q0 72 47.5 153.5
t133.5 155.5q72 63 149.5 98t140.5 35q46 0 73.5 -26.5t27.5 -71.5q0 -63 -57 -153q-13 -20 -13 -23q0 -12 14.5 -20.5t34.5 -8.5q60 0 126 63.5t73 63.5q3 0 4.5 -2t1.5 -6q0 -33 -73.5 -92.5t-137.5 -59.5q-22 0 -39 6.5t-32 19.5zM664 745q0 42 24 68.5t60 26.5
q31 0 47.5 -17.5t16.5 -50.5q0 -37 -24.5 -63.5t-59.5 -26.5q-29 0 -46.5 17t-17.5 46zM331 745q0 42 23.5 68.5t60.5 26.5q31 0 48 -18t17 -50q0 -37 -24.5 -63.5t-59.5 -26.5q-30 0 -47.5 17.5t-17.5 45.5z" />
    <glyph glyph-name="divide" unicode="&#xf7;" 
d="M70 27v1376h1263v-1376h-1263zM41 0h1321v1427h-1321v-1427z" />
    <glyph glyph-name="oslash" unicode="&#xf8;" 
d="M70 27v1376h1263v-1376h-1263zM41 0h1321v1427h-1321v-1427z" />
    <glyph glyph-name="ugrave" unicode="&#xf9;" horiz-adv-x="672" 
d="M336 182q-95 -98 -164 -144t-121 -46q-39 0 -62.5 22.5t-23.5 59.5q0 42 24 90.5t95 140.5l147 188q3 4 8 11q35 47 91 47q20 0 32.5 -5t12.5 -14q0 -7 -5.5 -17t-21.5 -30l-264 -340q-17 -21 -27 -45t-10 -43q0 -11 8.5 -19.5t20.5 -8.5q45 0 159.5 103t251.5 271
q18 22 45 57q69 87 138 87q14 0 24.5 -6t10.5 -13q0 -5 -10.5 -20.5t-37.5 -48.5l-215 -275q-31 -41 -51 -76t-20 -49q0 -10 8.5 -18t17.5 -8q36 0 108.5 51.5t174.5 151.5q47 46 94.5 99.5t54.5 53.5t10 -3t3 -9q0 -16 -50.5 -72.5t-136.5 -136.5q-97 -91 -165 -132.5
t-119 -41.5q-36 0 -56 21t-20 59q0 23 9 47.5t32 60.5zM671 639q0 -6 -4 -10t-11 -4q-34 0 -119 105t-85 171q0 39 19 60.5t52 21.5q26 0 41 -19t15 -53q0 -1 -1 -24.5t-1 -44.5q0 -78 73 -170q21 -27 21 -33z" />
    <glyph glyph-name="uacute" unicode="&#xfa;" horiz-adv-x="672" 
d="M336 182q-95 -98 -164 -144t-121 -46q-39 0 -62.5 22.5t-23.5 59.5q0 42 24 90.5t95 140.5l147 188q3 4 8 11q35 47 91 47q20 0 32.5 -5t12.5 -14q0 -7 -5.5 -17t-21.5 -30l-264 -340q-17 -21 -27 -45t-10 -43q0 -11 8.5 -19.5t20.5 -8.5q45 0 159.5 103t251.5 271
q18 22 45 57q69 87 138 87q14 0 24.5 -6t10.5 -13q0 -5 -10.5 -20.5t-37.5 -48.5l-215 -275q-31 -41 -51 -76t-20 -49q0 -10 8.5 -18t17.5 -8q36 0 108.5 51.5t174.5 151.5q47 46 94.5 99.5t54.5 53.5t10 -3t3 -9q0 -16 -50.5 -72.5t-136.5 -136.5q-97 -91 -165 -132.5
t-119 -41.5q-36 0 -56 21t-20 59q0 23 9 47.5t32 60.5zM523 627q-9 0 -13.5 3.5t-4.5 10.5q0 9 64 52.5t106 103.5q17 25 40 82q36 96 83 96q28 0 44.5 -16.5t16.5 -45.5q0 -50 -48 -105.5t-140 -111.5q-67 -40 -98 -54.5t-50 -14.5z" />
    <glyph glyph-name="ucircumflex" unicode="&#xfb;" horiz-adv-x="672" 
d="M336 182q-95 -98 -164 -144t-121 -46q-39 0 -62.5 22.5t-23.5 59.5q0 42 24 90.5t95 140.5l147 188q3 4 8 11q35 47 91 47q20 0 32.5 -5t12.5 -14q0 -7 -5.5 -17t-21.5 -30l-264 -340q-17 -21 -27 -45t-10 -43q0 -11 8.5 -19.5t20.5 -8.5q45 0 159.5 103t251.5 271
q18 22 45 57q69 87 138 87q14 0 24.5 -6t10.5 -13q0 -5 -10.5 -20.5t-37.5 -48.5l-215 -275q-31 -41 -51 -76t-20 -49q0 -10 8.5 -18t17.5 -8q36 0 108.5 51.5t174.5 151.5q47 46 94.5 99.5t54.5 53.5t10 -3t3 -9q0 -16 -50.5 -72.5t-136.5 -136.5q-97 -91 -165 -132.5
t-119 -41.5q-36 0 -56 21t-20 59q0 23 9 47.5t32 60.5zM679 784l-240 -127q-54 -29 -81 -40t-41 -11q-11 0 -17 5t-6 14q0 16 75 62q39 23 62 38q92 58 182 125.5t97 67.5t15 -7t11 -16l68 -244q1 -4 3.5 -13.5t2.5 -12.5q0 -10 -4.5 -16.5t-11.5 -6.5q-26 0 -87 126z" />
    <glyph glyph-name="udieresis" unicode="&#xfc;" horiz-adv-x="672" 
d="M336 182q-95 -98 -164 -144t-121 -46q-39 0 -62.5 22.5t-23.5 59.5q0 42 24 90.5t95 140.5l147 188q3 4 8 11q35 47 91 47q20 0 32.5 -5t12.5 -14q0 -7 -5.5 -17t-21.5 -30l-264 -340q-17 -21 -27 -45t-10 -43q0 -11 8.5 -19.5t20.5 -8.5q45 0 159.5 103t251.5 271
q18 22 45 57q69 87 138 87q14 0 24.5 -6t10.5 -13q0 -5 -10.5 -20.5t-37.5 -48.5l-215 -275q-31 -41 -51 -76t-20 -49q0 -10 8.5 -18t17.5 -8q36 0 108.5 51.5t174.5 151.5q47 46 94.5 99.5t54.5 53.5t10 -3t3 -9q0 -16 -50.5 -72.5t-136.5 -136.5q-97 -91 -165 -132.5
t-119 -41.5q-36 0 -56 21t-20 59q0 23 9 47.5t32 60.5zM699 745q0 42 24 68.5t60 26.5q31 0 47.5 -17.5t16.5 -50.5q0 -37 -24.5 -63.5t-59.5 -26.5q-29 0 -46.5 17t-17.5 46zM366 745q0 42 23.5 68.5t60.5 26.5q31 0 48 -18t17 -50q0 -37 -24.5 -63.5t-59.5 -26.5
q-30 0 -47.5 17.5t-17.5 45.5z" />
    <glyph glyph-name="yacute" unicode="&#xfd;" horiz-adv-x="815" 
d="M291 -86q-244 -97 -405.5 -230.5t-161.5 -220.5q0 -29 15.5 -44t47.5 -15q102 0 393 370q71 90 111 140zM432 -41q-314 -381 -435 -482.5t-216 -101.5q-43 0 -67.5 24.5t-24.5 65.5q0 98 179 246.5t445 243.5l125 172q-87 -76 -139 -105.5t-94 -29.5q-38 0 -59 23.5
t-21 64.5q0 40 27 90.5t98 138.5q23 29 62 76q67 80 67 100q0 9 -6.5 15t-16.5 6q-47 0 -132.5 -87t-94.5 -87q-3 0 -5.5 3t-2.5 7q0 11 18 33.5t54 56.5q64 63 112.5 92t87.5 29q36 0 54 -19t18 -57q0 -67 -107 -195l-2 -2q-78 -93 -111.5 -142t-33.5 -68q0 -17 8 -25
t25 -8q45 0 143.5 90.5t247.5 267.5q30 36 68 87q54 73 110 73q19 0 30 -5t11 -13q0 -7 -6 -20.5t-14 -24.5l-371 -486q258 104 464 339q38 44 46 44q6 0 9 -3t3 -9q0 -48 -170.5 -192t-382.5 -226zM595 627q-9 0 -13.5 3.5t-4.5 10.5q0 9 64 52.5t106 103.5q17 25 40 82
q36 96 83 96q28 0 44.5 -16.5t16.5 -45.5q0 -50 -48 -105.5t-140 -111.5q-67 -40 -98 -54.5t-50 -14.5z" />
    <glyph glyph-name="thorn" unicode="&#xfe;" 
d="M70 27v1376h1263v-1376h-1263zM41 0h1321v1427h-1321v-1427z" />
    <glyph glyph-name="ydieresis" unicode="&#xff;" 
d="M70 27v1376h1263v-1376h-1263zM41 0h1321v1427h-1321v-1427z" />
    <glyph glyph-name="OE" unicode="&#x152;" horiz-adv-x="2183" 
d="M1587 37q217 60 372 204t155 261q0 47 -26 73.5t-73 26.5q-63 0 -146 -53.5t-159 -145.5q-63 -76 -97 -154.5t-34 -148.5q0 -17 2 -32.5t6 -30.5zM1757 815q25 -27 51.5 -40t55.5 -13q14 0 26.5 10.5t12.5 22.5q0 16 -18 26t-48 10q-16 0 -36.5 -4t-43.5 -12zM2501 1300
q-171 -12 -307 -119t-136 -210q0 -42 26.5 -68t67.5 -26q124 0 237.5 122t113.5 263q0 13 -0.5 21t-1.5 17zM1378 1493q-130 -27 -253 -87t-240 -153q-144 -115 -278 -269t-230 -318q-75 -128 -110.5 -230t-35.5 -192q0 -105 65.5 -167.5t176.5 -62.5q159 0 357.5 135
t375.5 367q159 207 242.5 368.5t83.5 260.5q0 65 -44 106t-116 41q-105 0 -244 -102.5t-301 -300.5q-120 -148 -193 -286.5t-73 -209.5q0 -43 23 -67.5t63 -24.5q64 0 162 70.5t199 191.5q41 51 83 114.5t56 63.5q3 0 4.5 -3t1.5 -15q0 -17 -45.5 -83t-112.5 -140
q-98 -109 -192.5 -170.5t-159.5 -61.5q-63 0 -99 43.5t-36 118.5q0 108 75 253t210 292q146 160 303 253t276 93q87 0 140 -48.5t53 -125.5q0 -82 -50 -196.5t-155 -272.5q65 50 143 90t170 72q-14 27 -21 57t-7 64q0 75 40 157t113 156q101 102 232 163.5t245 61.5
q100 0 168 -43.5t90 -120.5q119 -11 181.5 -65t62.5 -146q0 -73 -39 -142.5t-115 -129.5q-50 -40 -94.5 -66t-60.5 -26q-7 0 -10.5 2.5t-3.5 7.5q0 15 39 34q37 19 61 36q91 61 139.5 135t48.5 151t-54 122.5t-150 49.5q0 -16 1 -32q1 -5 1 -6q0 -155 -124 -284.5
t-270 -129.5q-59 0 -97 42.5t-38 108.5q0 133 135.5 236.5t315.5 103.5h30q-12 57 -59.5 89t-118.5 32q-87 0 -194 -58t-215 -165q-92 -88 -144.5 -176t-52.5 -152q0 -11 3 -23t11 -30q30 6 56 9t49 3q56 0 85.5 -19t29.5 -54q0 -24 -24.5 -43t-57.5 -19q-39 0 -78 17
t-74 49q-218 -106 -358 -271t-140 -307q0 -97 61.5 -151t170.5 -54q24 0 50.5 3t55.5 10q-8 25 -12 52.5t-4 59.5q0 199 140 352.5t317 153.5q72 0 114.5 -38t42.5 -103q0 -133 -159 -283t-388 -217q23 -58 73 -88.5t122 -30.5q62 0 128 26q19 7 24 7t9.5 -2.5t4.5 -5.5
q0 -17 -50.5 -37t-109.5 -20q-84 0 -146.5 37t-92.5 106q-37 -8 -63 -11t-48 -3q-143 0 -226 81.5t-83 221.5q0 26 5.5 57t18.5 72q-173 -205 -354 -318.5t-330 -113.5q-141 0 -224 83t-83 226q0 190 116 417t314 418q173 167 374 268t345 101q5 0 23 -1t32 -1z" />
    <glyph glyph-name="oe" unicode="&#x153;" horiz-adv-x="926" 
d="M555 240q145 46 236.5 117.5t91.5 134.5q0 13 -10.5 21.5t-26.5 8.5q-40 0 -123 -79t-168 -203zM541 197q-14 -32 -20.5 -57.5t-6.5 -45.5q0 -32 17.5 -49.5t50.5 -17.5q62 0 158.5 58.5t211.5 168.5q42 39 87.5 91t60.5 52q4 0 6 -2.5t2 -9.5q0 -10 -37 -51.5
t-100 -104.5q-118 -115 -222.5 -177t-179.5 -62q-62 0 -100.5 42.5t-38.5 110.5q0 12 1 24t3 25q-86 -99 -164.5 -150.5t-144.5 -51.5q-52 0 -82.5 34.5t-30.5 94.5q0 72 47.5 153.5t133.5 155.5q72 63 149.5 98t140.5 35q46 0 73.5 -27t27.5 -71q0 -11 -1 -20t-3 -19
q70 63 144 100t128 37q34 0 53 -17.5t19 -47.5q0 -77 -105.5 -161t-277.5 -138zM500 522q-41 0 -98 -38.5t-134 -118.5q-91 -93 -139.5 -165t-48.5 -114q0 -29 16 -44t47 -15q44 0 113 46.5t139 125.5q72 79 114 152t42 114q0 28 -13.5 42.5t-37.5 14.5z" />
    <glyph glyph-name="Scaron" unicode="&#x160;" 
d="M70 27v1376h1263v-1376h-1263zM41 0h1321v1427h-1321v-1427z" />
    <glyph glyph-name="scaron" unicode="&#x161;" 
d="M70 27v1376h1263v-1376h-1263zM41 0h1321v1427h-1321v-1427z" />
    <glyph glyph-name="Ydieresis" unicode="&#x178;" 
d="M70 27v1376h1263v-1376h-1263zM41 0h1321v1427h-1321v-1427z" />
    <glyph glyph-name="florin" unicode="&#x192;" 
d="M70 27v1376h1263v-1376h-1263zM41 0h1321v1427h-1321v-1427z" />
    <glyph glyph-name="circumflex" unicode="&#x2c6;" horiz-adv-x="1024" 
d="M854 784l-240 -127q-54 -29 -81 -40t-41 -11q-11 0 -17 5t-6 14q0 16 75 62q39 23 62 38q92 58 182 125.5t97 67.5t15 -7t11 -16l68 -244q1 -4 3.5 -13.5t2.5 -12.5q0 -10 -4.5 -16.5t-11.5 -6.5q-26 0 -87 126z" />
    <glyph glyph-name="tilde" unicode="&#x2dc;" horiz-adv-x="1024" 
d="M668 852q40 0 125.5 -38t121.5 -38q46 0 81.5 50.5t45.5 50.5q9 0 15 -5t6 -12q0 -49 -56 -119.5t-120 -70.5q-42 0 -126.5 37.5t-121.5 37.5q-46 0 -81.5 -49t-45.5 -49q-9 0 -14.5 4t-5.5 11q0 49 55.5 119.5t120.5 70.5z" />
    <glyph glyph-name="endash" unicode="&#x2013;" 
d="M70 27v1376h1263v-1376h-1263zM41 0h1321v1427h-1321v-1427z" />
    <glyph glyph-name="emdash" unicode="&#x2014;" 
d="M70 27v1376h1263v-1376h-1263zM41 0h1321v1427h-1321v-1427z" />
    <glyph glyph-name="quoteleft" unicode="&#x2018;" horiz-adv-x="664" 
d="M911 1034l222 246q3 4 8 9q27 30 41 30q3 0 5.5 -2.5t2.5 -5.5q0 -7 -7.5 -19.5t-35.5 -46.5l-166 -196q-13 -16 -21 -32.5t-8 -25.5q0 -3 8.5 -22.5t8.5 -38.5q0 -37 -21 -62.5t-51 -25.5q-25 0 -40 17t-15 46t15 57.5t54 71.5z" />
    <glyph glyph-name="quoteright" unicode="&#x2019;" horiz-adv-x="664" 
d="M967 1069l-219 -246q-22 -24 -32 -31.5t-18 -7.5q-5 1 -7 2t-3 5q0 8 7.5 20.5t35.5 46.5l166 197q13 15 21 31.5t8 25.5q0 4 -8.5 23.5t-8.5 38.5q0 36 21.5 61t50.5 25q25 0 40 -17.5t15 -46.5q0 -27 -15 -55.5t-54 -71.5z" />
    <glyph glyph-name="quotesinglbase" unicode="&#x201a;" 
d="M70 27v1376h1263v-1376h-1263zM41 0h1321v1427h-1321v-1427z" />
    <glyph glyph-name="quotedblleft" unicode="&#x201c;" 
d="M70 27v1376h1263v-1376h-1263zM41 0h1321v1427h-1321v-1427z" />
    <glyph glyph-name="quotedblright" unicode="&#x201d;" 
d="M70 27v1376h1263v-1376h-1263zM41 0h1321v1427h-1321v-1427z" />
    <glyph glyph-name="quotedblbase" unicode="&#x201e;" horiz-adv-x="702" 
d="M510 -51l-221 -246q-4 -4 -12 -13q-24 -28 -37 -28q-3 0 -5.5 1.5t-3.5 4.5q0 8 8 20.5t35 47.5l166 196q13 16 21 32.5t8 25.5q0 3 -8 22.5t-8 38.5q0 37 21 62.5t50 25.5q25 0 40.5 -17t15.5 -46q0 -27 -15.5 -55.5t-54.5 -71.5zM139 -51l-218 -245q-4 -4 -10 -11
q-28 -31 -42 -31q-2 0 -4 2.5t-2 5.5q0 8 9 23t32 43l166 197q13 16 21.5 32.5t8.5 24.5q0 3 -9 22.5t-9 38.5q0 37 21.5 62.5t50.5 25.5q25 0 40 -17t15 -46q0 -27 -15 -55.5t-55 -71.5z" />
    <glyph glyph-name="dagger" unicode="&#x2020;" 
d="M70 27v1376h1263v-1376h-1263zM41 0h1321v1427h-1321v-1427z" />
    <glyph glyph-name="daggerdbl" unicode="&#x2021;" 
d="M70 27v1376h1263v-1376h-1263zM41 0h1321v1427h-1321v-1427z" />
    <glyph glyph-name="bullet" unicode="&#x2022;" 
d="M70 27v1376h1263v-1376h-1263zM41 0h1321v1427h-1321v-1427z" />
    <glyph glyph-name="ellipsis" unicode="&#x2026;" 
d="M70 27v1376h1263v-1376h-1263zM41 0h1321v1427h-1321v-1427z" />
    <glyph glyph-name="perthousand" unicode="&#x2030;" horiz-adv-x="1712" 
d="M1481 438q-33 0 -74.5 -27.5t-83.5 -78.5q-58 -70 -89.5 -133.5t-31.5 -110.5q0 -32 18.5 -52t49.5 -20q83 0 180.5 119.5t97.5 224.5q0 36 -18.5 57t-48.5 21zM1581 373q0 -138 -104.5 -263.5t-206.5 -125.5q-57 0 -93 41t-36 106q0 121 107 231.5t220 110.5
q50 0 81.5 -28.5t31.5 -71.5zM963 438q-33 0 -73.5 -27.5t-82.5 -78.5q-59 -71 -91 -134.5t-32 -109.5q0 -32 19 -52t51 -20q83 0 179.5 119.5t96.5 224.5q0 36 -18.5 57t-48.5 21zM1065 373q0 -138 -104.5 -263.5t-206.5 -125.5q-57 0 -94 41.5t-37 105.5q0 120 108 231
t221 111q50 0 81.5 -28.5t31.5 -71.5zM498 938q-33 0 -73 -27.5t-83 -79.5q-59 -71 -91 -134t-32 -109q0 -32 19 -51t51 -19q83 0 179.5 118.5t96.5 223.5q0 36 -18.5 57t-48.5 21zM965 866q-62 -32 -112.5 -47.5t-94.5 -15.5q-50 0 -91.5 14t-68.5 39q-12 -140 -113 -255.5
t-198 -115.5q-57 0 -93 41.5t-36 106.5q0 121 107.5 231.5t221.5 110.5q58 0 103 -56q9 -12 14 -18q29 -34 65 -48.5t89 -14.5q103 0 220.5 78.5t121.5 78.5q8 0 12 -2t4 -6q0 -8 -13.5 -25.5t-43.5 -48.5l-944 -962q-10 -10 -25 -26q-41 -44 -74 -44q-10 0 -18 4t-8 9
q0 14 54 68l11 11z" />
    <glyph glyph-name="guilsinglleft" unicode="&#x2039;" horiz-adv-x="530" 
d="M217 301l285 211q10 7 16.5 9.5t13.5 2.5q10 0 14.5 -4t4.5 -12q0 -7 -3.5 -13t-17.5 -18l-223 -190l70 -213q3 -8 4.5 -14.5t1.5 -10.5q0 -9 -5.5 -15.5t-12.5 -6.5q-14 0 -30 28l-1 2z" />
    <glyph glyph-name="guilsinglright" unicode="&#x203a;" horiz-adv-x="530" 
d="M444 250l-284 -211q-11 -7 -17.5 -9.5t-13.5 -2.5q-10 0 -14 3.5t-4 12.5q0 8 3.5 13.5t16.5 17.5l223 190l-69 213q-3 7 -4.5 13.5t-1.5 11.5q0 10 5 16t13 6q9 0 15 -5.5t16 -24.5z" />
    <glyph glyph-name="trademark" unicode="&#x2122;" horiz-adv-x="1683" 
d="M801 1432h170l145 -414l158 414h162v-25h-31q-22 0 -35.5 -15t-13.5 -40v-369q0 -24 13.5 -39.5t35.5 -15.5h31v-25h-228v25h31q22 0 35.5 15.5t13.5 39.5v406l-186 -490h-8l-174 487v-403q0 -24 13.5 -39.5t35.5 -15.5h30v-25h-198v23h30q22 0 36 15.5t14 41.5v367
q0 24 -14 40.5t-36 16.5h-30v25zM264 1432h436l11 -175h-23q-8 81 -41.5 116.5t-101.5 35.5h-23v-426q0 -24 14 -39.5t35 -15.5h31v-25h-242v25h33q22 0 35.5 15.5t13.5 39.5v426h-22q-69 0 -102.5 -35.5t-41.5 -116.5h-22z" />
    <glyph glyph-name="uniE000" unicode="&#xe000;" horiz-adv-x="1229" 
d="M102 -362v1806h1024v-1806h-1024zM217 -248h795v1577h-795v-1577z" />
    <glyph glyph-name="uniE001" unicode="&#xe001;" horiz-adv-x="332" 
 />
    <glyph glyph-name="uniE002" unicode="&#xe002;" horiz-adv-x="1706" 
d="M1217 1157l63 -49l-217 -277h389v-79h-440l-219 -283h659v-82h-711l-254 -324l-61 48l215 276h-387v82h436l221 283h-657v79h709z" />
    <glyph glyph-name="uniE003" unicode="&#xe003;" horiz-adv-x="1706" 
d="M889 557q54 -103 125 -154t162 -51q107 0 176 78t69 199q0 119 -63.5 196.5t-159.5 77.5q-87 0 -157.5 -77.5t-151.5 -268.5zM819 670q-52 102 -123.5 153t-163.5 51q-108 0 -176.5 -77.5t-68.5 -198.5q0 -118 63.5 -195t159.5 -77q88 0 158 76t151 268zM870 510
q-70 -138 -147.5 -202t-173.5 -64q-130 0 -220.5 106t-90.5 262q0 166 80 267.5t210 101.5q98 0 172.5 -64.5t135.5 -203.5q66 139 146 206.5t177 67.5q130 0 219.5 -106t89.5 -265q0 -166 -80.5 -269t-209.5 -103q-93 0 -164.5 61t-143.5 205z" />
    <glyph glyph-name="uniE004" unicode="&#xe004;" horiz-adv-x="1706" 
d="M264 129h1178v-80h-1178v80zM1442 1171v-88l-1043 -350l1043 -352v-88l-1178 405v70z" />
    <glyph glyph-name="uniE005" unicode="&#xe005;" horiz-adv-x="1706" 
d="M264 129h1178v-80h-1178v80zM264 1171l1178 -403v-70l-1178 -405v88l1043 352l-1043 350v88z" />
    <glyph glyph-name="uniE006" unicode="&#xe006;" horiz-adv-x="1024" 
d="M750 578q11 69 16.5 144.5t5.5 160.5q0 179 -38 266.5t-116 87.5q-45 0 -99.5 -73.5t-108.5 -73.5q-29 0 -48.5 18.5t-19.5 46.5q0 59 61 102t148 43q160 0 254 -147t94 -401q0 -335 -131.5 -557t-323.5 -222q-139 0 -224 105t-85 280q0 173 107 296.5t258 123.5
q97 0 158.5 -49t91.5 -151zM713 459q0 125 -47 190.5t-138 65.5q-117 0 -190.5 -125t-73.5 -330q0 -117 47.5 -179.5t137.5 -62.5q114 0 189 125.5t75 315.5z" />
    <glyph glyph-name="uniE007" unicode="&#xe007;" horiz-adv-x="1384" 
d="M8 1473h1090l80 -304h-68l-55 209q-5 16 -16.5 23.5t-32.5 7.5h-824l951 -879v-36l-914 -789h895q67 0 84.5 13t30.5 53l71 229h68l-119 -393h-1237v10l1018 872l-1022 941v43z" />
    <glyph glyph-name="uniE008" unicode="&#xe008;" horiz-adv-x="1538" 
d="M61 1473h1416v-64h-187v-1739h187v-63h-494v63h207v1739h-842v-1739h207v-63h-494v63h187v1739h-187v64z" />
    <glyph glyph-name="uniE009" unicode="&#xe009;" horiz-adv-x="1298" 
d="M1268 885l-25 -109h-311q-45 -219 -78 -520q-34 -299 -113 -299q-34 0 -54.5 22t-20.5 58q0 29 77.5 273.5t133.5 465.5h-361q-44 -219 -78 -520q-33 -299 -112 -299q-35 0 -55.5 22t-20.5 58q0 29 77.5 273.5t133.5 465.5h-189q-72 0 -111 -50.5t-71 -197.5h-65
q32 191 108.5 274t218.5 83h916z" />
    <glyph glyph-name="uniE00A" unicode="&#xe00a;" horiz-adv-x="948" 
d="M401 578q0 498 86.5 733t268.5 235q65 0 106 -35t41 -90q0 -45 -27.5 -71.5t-74.5 -26.5q-77 0 -101.5 64.5t-33.5 64.5q-67 0 -93 -159t-26 -687q0 -509 -85.5 -743t-268.5 -234q-64 0 -106 34.5t-42 84.5q0 48 28.5 77.5t76.5 29.5q33 0 56 -13.5t40 -42.5
q8 -14 12.5 -44.5t24.5 -30.5q66 0 92 165t26 689z" />
    <glyph glyph-name="uniE00B" unicode="&#xe00b;" horiz-adv-x="1565" 
d="M1079 123v-23h318l78 232h59l-98 -332h-492q160 266 236.5 477.5t76.5 386.5q0 264 -125.5 416t-345.5 152q-219 0 -346 -152.5t-127 -415.5q0 -177 76.5 -388.5t237.5 -475.5h-492l-98 332h59l78 -232h318v23q-152 202 -224.5 388t-72.5 372q0 277 163.5 445.5
t427.5 168.5q265 0 428.5 -168.5t163.5 -445.5q0 -184 -73 -370t-226 -390z" />
    <glyph glyph-name="uniE00C" unicode="&#xe00c;" horiz-adv-x="1264" 
d="M1092 1626h172v-61h-129l-596 -1606h-31l-330 907l-110 -39l-15 50l230 79l278 -759z" />
    <glyph glyph-name="uniE00D" unicode="&#xe00d;" horiz-adv-x="1706" 
d="M1530 578v-93q-106 -74 -202 -110.5t-185 -36.5q-106 0 -295.5 70.5t-282.5 70.5q-83 0 -171 -35.5t-216 -124.5v93q105 73 201 109t186 36q106 0 295.5 -69.5t282.5 -69.5q83 0 171 35.5t216 124.5zM1530 903v-94q-105 -73 -200.5 -109t-186.5 -36q-106 0 -295.5 69.5
t-282.5 69.5q-83 0 -171 -35.5t-216 -124.5v92q106 75 202 111.5t185 36.5q106 0 295.5 -71t282.5 -71q81 0 168.5 36t218.5 126z" />
    <glyph glyph-name="uniE00E" unicode="&#xe00e;" horiz-adv-x="995" 
d="M485 1272l-391 -1172h768zM492 1497h26l486 -1497h-1010z" />
    <glyph glyph-name="uniE00F" unicode="&#xe00f;" horiz-adv-x="1012" 
d="M506 1409l-385 -817l385 -825l385 825zM506 1653l500 -1061l-500 -1069l-500 1069z" />
    <glyph glyph-name="uniE010" unicode="&#xe010;" horiz-adv-x="342" 
d="M610 848q33 33 45 41t21 8q3 0 4.5 -3t1.5 -13q0 -12 -40 -54l-7 -8l-852 -868q-7 -7 -20 -22q-44 -48 -78 -48q-11 0 -19 4t-8 9q0 14 54 68q7 7 12 11z" />
    <glyph glyph-name="uniE011" unicode="&#xe011;" horiz-adv-x="791" 
d="M422 596q70 17 173 77.5t220 153.5q133 105 213 206.5t80 158.5q0 24 -11 35.5t-34 11.5q-87 0 -253 -166.5t-388 -476.5zM844 627q-18 0 -29.5 11.5t-11.5 29.5q0 25 19 44t44 19q18 0 29.5 -10.5t11.5 -26.5q0 -26 -19.5 -46.5t-43.5 -20.5zM-41 -33l-303 -401
q-2 -3 -5 -7q-48 -65 -143 -65q-10 0 -13 3.5t-3 15.5q0 13 51 77q28 35 45 58l252 331q-9 2 -14.5 6.5t-5.5 10.5q0 12 11.5 27.5t21.5 15.5q1 0 10.5 -2.5t17.5 -3.5l361 481q266 356 487 556t344 200q34 0 52 -19t18 -53q0 -69 -80.5 -175t-216.5 -212t-251.5 -172
t-205.5 -90l-399 -545h26q122 0 245 80t271 258q39 46 88 114q70 97 130 97q20 0 31.5 -4t11.5 -12q0 -6 -6.5 -18.5t-16.5 -26.5l-246 -332q-25 -34 -38 -59t-13 -40t8 -21.5t27 -6.5q37 0 105 45.5t161 132.5q58 54 113.5 116t62.5 62q6 0 8 -2.5t3 -9.5
q0 -14 -41.5 -62.5t-118.5 -124.5q-100 -96 -177 -146t-126 -50q-47 0 -69.5 22t-22.5 68q0 19 5.5 41t22.5 65q-94 -109 -207 -165t-241 -56q-4 0 -13.5 -1t-13.5 -1z" />
    <glyph glyph-name="uniE012" unicode="&#xe012;" horiz-adv-x="887" 
d="M868 604q279 133 470.5 311.5t191.5 270.5q0 20 -10 29.5t-31 9.5q-33 0 -99.5 -47t-152.5 -131q-72 -72 -162 -180t-207 -263zM422 596q70 17 173 77.5t220 153.5q133 105 213 206.5t80 158.5q0 24 -11 35.5t-34 11.5q-87 0 -253 -166.5t-388 -476.5zM-41 -33l-303 -401
q-2 -3 -5 -7q-48 -65 -143 -65q-10 0 -13 3.5t-3 15.5q0 13 51 77q28 35 45 58l252 331q-9 2 -14.5 6.5t-5.5 10.5q0 12 11.5 27.5t21.5 15.5q1 0 10.5 -2.5t17.5 -3.5l361 481q266 356 487 556t344 200q34 0 52 -19t18 -53q0 -69 -80.5 -175t-216.5 -212t-251.5 -172
t-205.5 -90l-399 -545q5 0 15 -1t15 -1q125 0 255.5 92t332.5 330q43 50 126 151q267 326 425 465q135 118 215.5 169t130.5 51q28 0 43 -16.5t15 -45.5q0 -125 -202.5 -311t-518.5 -332q-145 -184 -227.5 -314.5t-82.5 -174.5q0 -23 12 -34.5t36 -11.5q48 0 138 63.5
t202 176.5q37 37 77 83t47 46t10 -3t3 -9q0 -16 -51 -74t-134 -135q-109 -101 -180.5 -142.5t-132.5 -41.5q-51 0 -77.5 24.5t-26.5 71.5q0 37 16 84.5t53 118.5q-151 -172 -274 -243t-262 -71q-6 0 -15 -1t-14 -1z" />
    <glyph glyph-name="uniE013" unicode="&#xe013;" horiz-adv-x="332" 
d="M111 395q0 21 16.5 38.5t38.5 17.5q23 0 39 -16.5t16 -39.5t-16 -39t-39 -16q-24 0 -39.5 16.5t-15.5 38.5z" />
    <glyph glyph-name="uniE014" unicode="&#xe014;" horiz-adv-x="1618" 
d="M836 1216q-1 6 -1.5 14t-0.5 23q0 124 95 229.5t236 131.5q1 -10 1.5 -23t0.5 -39q0 -131 -103.5 -234.5t-203.5 -103.5h-8q-3 0 -7.5 1t-8.5 1zM1505 403q-114 -247 -205 -342.5t-204 -95.5q-50 0 -131.5 33t-122.5 33q-45 0 -131 -33t-127 -33q-64 0 -128.5 44
t-129.5 132q-102 140 -157.5 295.5t-55.5 300.5q0 219 125 356.5t323 137.5q68 0 155 -34t124 -34q34 0 121.5 35t152.5 35q110 0 198 -40t161 -124q-102 -65 -151.5 -145.5t-49.5 -182.5q0 -113 60 -200t173 -138z" />
    <glyph glyph-name="uniE015" unicode="&#xe015;" horiz-adv-x="365" 
d="M98 160q-23 -30 -36 -56.5t-13 -42.5q0 -15 8 -21.5t27 -6.5q36 0 103 45t161 133q58 54 113.5 116t62.5 62q6 0 9.5 -3t3.5 -9q0 -14 -41 -61t-121 -126q-100 -96 -177 -146t-126 -50q-44 0 -67 23t-23 67q0 92 212 369l2 3q8 10 21 27q52 70 109 70q20 0 31.5 -4
t11.5 -12q0 -7 -6.5 -20t-16.5 -25z" />
    <glyph glyph-name="uniE016" unicode="&#xe016;" horiz-adv-x="1024" 
d="M766 774q92 0 201 75t114 75q8 -1 12 -7t5 -18q0 -12 -11 -28t-38 -44q-90 -91 -159 -130.5t-136 -39.5q-90 0 -152.5 73.5t-62.5 162.5q0 17 6 25t18 8q20 0 35 -36q4 -9 6 -13q25 -53 64.5 -78t97.5 -25z" />
    <glyph glyph-name="uniE017" unicode="&#xe017;" horiz-adv-x="1024" 
d="M719 745q0 43 25.5 71t64.5 28q30 0 49 -19t19 -49q0 -44 -24.5 -71t-64.5 -27q-31 0 -50 18.5t-19 48.5z" />
    <glyph glyph-name="uniE018" unicode="&#xe018;" horiz-adv-x="1024" 
d="M705 786q0 -52 34 -87t86 -35t87.5 35.5t35.5 86.5t-36 86t-87 35q-52 0 -86 -34t-34 -87zM651 786q0 74 50.5 124.5t123.5 50.5t124.5 -51t51.5 -124t-51.5 -124.5t-124.5 -51.5q-72 0 -123 51.5t-51 124.5z" />
    <glyph glyph-name="uniE019" unicode="&#xe019;" horiz-adv-x="1024" 
d="M618 618q-8 1 -12 4.5t-4 10.5q0 8 56 53t94 105q14 23 40.5 99.5t67.5 76.5q24 0 38.5 -17t14.5 -45q0 -48 -37 -99t-114 -108q-56 -40 -91.5 -60t-52.5 -20zM827 618q-8 1 -12 4.5t-4 10.5q0 8 56 53t94 105q14 23 40.5 99.5t67.5 76.5q24 0 38.5 -17t14.5 -45
q0 -47 -38 -98t-115 -109q-59 -42 -92.5 -61t-49.5 -19z" />
    <glyph glyph-name="uniE01A" unicode="&#xe01a;" horiz-adv-x="1024" 
d="M420 31q-69 -81 -105 -149.5t-36 -117.5q0 -37 19 -60t50 -23q50 0 98 52q14 15 19 15q6 0 10 -4.5t4 -9.5q0 -30 -55.5 -73.5t-118.5 -43.5q-53 0 -85 32t-32 85q0 58 49.5 132t149.5 165h33z" />
    <glyph glyph-name="uniE01B" unicode="&#xe01b;" horiz-adv-x="1024" 
d="M778 738l240 126q49 26 78 38.5t41 12.5q14 0 19 -3.5t5 -14.5q0 -19 -81 -69q-34 -20 -54 -33q-91 -59 -182 -126t-99 -67q-8 1 -14.5 7.5t-9.5 17.5l-70 244q-2 9 -3 15t-1 11q0 10 3.5 15t11.5 6q27 0 92 -132z" />
    <glyph glyph-name="uniE01C" unicode="&#xe01c;" horiz-adv-x="1872" 
d="M747 55q-9 3 -27 8q-323 93 -421 93q-58 0 -89.5 -14t-31.5 -40q0 -42 72.5 -65t208.5 -23q69 0 140.5 10.5t147.5 30.5zM813 37q-88 -26 -176.5 -38.5t-181.5 -12.5q-158 0 -237 29.5t-79 88.5q0 43 44.5 67t123.5 24q67 0 180 -20t363 -79q104 49 206 158t290 395
l-301 -106q-20 -7 -27.5 -9t-9.5 -2q-9 0 -13 2t-4 7q0 8 14.5 18t38.5 19l330 118q225 352 445 525.5t442 173.5q108 0 173 -64t65 -174q0 -114 -91.5 -218.5t-158.5 -104.5q-2 0 -3 1.5t-1 4.5q0 10 26 30q21 15 33 27q74 71 112 144t38 145q0 79 -51.5 127.5t-133.5 48.5
q-187 0 -369.5 -151.5t-377.5 -469.5l255 92q12 5 22.5 8t15.5 3q8 0 12 -2t4 -6q0 -9 -15 -20t-38 -19l-285 -103q-128 -226 -270 -375.5t-314 -238.5q105 -25 209 -37t203 -12q159 0 312 60.5t274 172.5q38 35 77.5 80t47.5 45q6 0 9 -3t3 -9q0 -18 -47.5 -70t-118.5 -110
q-127 -106 -288.5 -163t-334.5 -57q-130 0 -417 55q-16 3 -25 5z" />
    <glyph glyph-name="uniE01D" unicode="&#xe01d;" horiz-adv-x="457" 
d="M281 563l-212 -76q-19 -6 -26.5 -8t-11.5 -2q-9 0 -13 2t-4 6q0 9 15.5 20t40.5 19l252 90l436 560q22 28 35.5 36.5t31.5 8.5h47q11 -1 17 -5.5t6 -11.5q0 -14 -14 -30q-5 -6 -8 -10l-394 -507l213 76q21 7 27 8.5t10 1.5q8 0 12 -2.5t4 -7.5q0 -8 -14 -18t-39 -19
l-252 -92l-180 -237q-85 -114 -127.5 -187t-42.5 -108q0 -24 12 -35.5t37 -11.5q53 0 142 61.5t200 175.5q37 37 77.5 83t47.5 46q6 0 9 -3t3 -9q0 -16 -51 -74.5t-135 -134.5q-108 -101 -179.5 -142.5t-133.5 -41.5q-49 0 -78 28t-29 76q0 54 51 150.5t148 228.5z" />
    <glyph glyph-name="uniE01E" unicode="&#xe01e;" horiz-adv-x="1319" 
d="M459 377h6q95 0 196.5 54t194.5 155q110 117 181 247t71 201q0 43 -24 67.5t-64 24.5q-79 0 -195 -86t-209 -219q-72 -104 -111.5 -215.5t-45.5 -228.5zM707 66q-26 12 -49.5 18t-47.5 6q-45 0 -75.5 -15.5t-30.5 -37.5q0 -13 14.5 -22t36.5 -9q31 0 71 15.5t81 44.5z
M737 -94q-329 -132 -502.5 -244t-173.5 -192q0 -32 21.5 -51t54.5 -19q112 0 296.5 148.5t303.5 357.5zM782 -78q-17 -77 -61 -155.5t-113 -153.5q-100 -111 -226.5 -177.5t-229.5 -66.5q-56 0 -89.5 27.5t-33.5 71.5q0 97 178.5 215.5t540.5 261.5q0 6 1 13t1 13
q0 22 -5 38t-16 28q-56 -31 -100 -45.5t-86 -14.5q-33 0 -53.5 16t-20.5 40q0 36 41 62t102 26q40 0 72.5 -9t58.5 -28q79 42 172 125t179 188q151 186 245.5 405t94.5 365q0 144 -81 217.5t-239 73.5q-154 0 -330 -82.5t-342 -232.5q-131 -121 -197.5 -240.5t-66.5 -234.5
q0 -126 65.5 -202.5t179.5 -86.5q10 114 45 218.5t95 201.5q98 155 229.5 255.5t227.5 100.5q64 0 95.5 -37.5t31.5 -116.5q0 -134 -87.5 -283.5t-228.5 -248.5q-89 -63 -182.5 -95t-189.5 -32v-31v-10q0 -26 1 -58t1 -38q0 -12 -4.5 -20.5t-10.5 -8.5q-12 0 -17 31.5
t-5 136.5q-128 12 -203.5 98.5t-75.5 221.5q0 121 65 243.5t193 243.5q180 169 362.5 253.5t367.5 84.5q179 0 284 -104t105 -283q0 -267 -201.5 -548t-552.5 -497q10 -20 14 -43t4 -53q146 46 266 106.5t222 139.5q79 60 150.5 136.5t84.5 76.5q3 0 5 -1.5t2 -4.5
q0 -68 -221.5 -234t-512.5 -258zM1310 1678l240 126q49 26 78 38.5t41 12.5q14 0 19 -3.5t5 -14.5q0 -19 -81 -69q-34 -20 -54 -33q-91 -59 -182 -126t-99 -67q-8 1 -14.5 7.5t-9.5 17.5l-70 244q-2 9 -3 15t-1 11q0 10 3.5 15t11.5 6q27 0 92 -132z" />
    <glyph glyph-name="uniE01F" unicode="&#xe01f;" horiz-adv-x="639" 
d="M43 -78q-248 -100 -407.5 -235t-159.5 -230q0 -24 11.5 -37.5t33.5 -13.5q80 0 242 153t280 363zM20 33q-15 15 -28.5 22.5t-26.5 7.5q-17 0 -31 -9.5t-14 -18.5q0 -12 7.5 -18.5t21.5 -6.5q12 0 28.5 5.5t42.5 17.5zM119 -47q0 -89 -50 -177t-155 -184
q-111 -100 -217.5 -159.5t-169.5 -59.5q-41 0 -62.5 21t-21.5 61q0 111 165.5 251t440.5 255q0 16 -3 26t-9 17l-15 -5q-57 -19 -83 -19q-22 0 -37 13.5t-15 33.5q0 28 24 45.5t62 17.5q21 0 40.5 -8t45.5 -27q169 93 280.5 218.5t111.5 205.5q0 21 -13.5 32t-38.5 11
q-71 0 -168 -95t-102 -95q-3 0 -5.5 3t-2.5 7q0 11 19.5 35t58.5 61q63 62 117 91.5t104 29.5q52 0 80 -32t28 -91q0 -108 -114 -217t-319 -194q5 -9 9.5 -19t8.5 -22q172 59 278 108t187 105q80 54 147 123t70 69q5 0 8.5 -3t3.5 -7q0 -63 -201 -197.5t-487 -228.5z
M586 738l240 126q49 26 78 38.5t41 12.5q14 0 19 -3.5t5 -14.5q0 -19 -81 -69q-34 -20 -54 -33q-91 -59 -182 -126t-99 -67q-8 1 -14.5 7.5t-9.5 17.5l-70 244q-2 9 -3 15t-1 11q0 10 3.5 15t11.5 6q27 0 92 -132z" />
    <glyph glyph-name="uniE020" unicode="&#xe020;" horiz-adv-x="1706" 
d="M254 651h1198v-82h-1198v82z" />
    <glyph glyph-name="uniE021" unicode="&#xe021;" horiz-adv-x="1901" 
d="M1446 627q-167 -311 -389.5 -478t-466.5 -167q-199 0 -329 112t-130 279q0 97 42 184t124 160q82 71 180 108t203 37q130 0 209.5 -66.5t79.5 -174.5q0 -86 -43.5 -169.5t-124.5 -154.5q-61 -53 -124.5 -81t-125.5 -28q-73 0 -117.5 43.5t-44.5 116.5q0 115 115.5 219.5
t210.5 104.5q9 0 13.5 -2t4.5 -6q0 -10 -31 -20t-53 -19q-101 -44 -164 -123t-63 -158q0 -50 29 -81.5t75 -31.5q56 0 116.5 35.5t121.5 104.5q69 77 106 151.5t37 132.5q0 83 -62 131t-169 48q-202 0 -357 -140t-155 -317q0 -155 119 -259t297 -104q214 0 382 132.5
t324 426.5q-210 -87 -313 -255q-16 -25 -21 -25q-6 0 -8 3.5t-2 12.5q0 63 105.5 157.5t263.5 158.5q171 284 344.5 481t230.5 197q3 0 4.5 -2t1.5 -5q0 -7 -40 -53q-216 -247 -382 -575q41 10 60.5 15t34.5 9q43 73 89.5 109.5t96.5 36.5q26 0 41.5 -15.5t15.5 -40.5
q0 -34 -39.5 -59.5t-130.5 -48.5q-44 -82 -75 -114t-64 -32q-9 0 -13.5 3.5t-4.5 11.5q0 10 14.5 38t40.5 68q-35 -7 -54 -12t-36 -10zM1419 1368q-186 -82 -293.5 -196t-107.5 -226q0 -53 29 -87t75 -34q115 0 225.5 127t110.5 273q0 42 -9.5 77.5t-29.5 65.5zM1454 1380
q19 -37 28 -75t9 -78q0 -87 -38 -170.5t-110 -153.5q-55 -54 -113.5 -84.5t-107.5 -30.5q-62 0 -100.5 43t-38.5 113q0 122 112 242.5t306 204.5q-47 37 -102.5 56t-118.5 19q-128 0 -247.5 -55.5t-215.5 -159.5q-23 -24 -52 -63t-40 -39q-3 0 -4.5 3t-2.5 11q0 17 26.5 52
t76.5 85q91 93 209.5 145t236.5 52q79 0 147 -23t120 -67q110 41 214.5 60.5t215.5 19.5q143 0 324.5 -31t213.5 -31q8 0 21.5 1t19.5 1q12 0 18.5 -2.5t6.5 -5.5q0 -21 -51.5 -33t-143.5 -12q-70 0 -240 25.5t-268 25.5q-108 0 -183.5 -11t-127.5 -34zM1653 713
q65 18 90.5 33.5t25.5 35.5q0 9 -5 12.5t-17 4.5q-19 0 -44.5 -23.5t-49.5 -62.5zM1790 516q24 0 69 11.5t62 11.5q15 0 19.5 -3t4.5 -12q0 -12 -69 -85q-46 -48 -76 -81q-97 -107 -151 -185t-54 -112q0 -11 9 -18.5t24 -7.5q32 0 100.5 46.5t155.5 129.5q55 53 111.5 115.5
t64.5 62.5q5 0 7.5 -2.5t2.5 -9.5q0 -16 -50 -73.5t-134 -135.5q-94 -88 -166 -133t-119 -45q-45 0 -67.5 23t-22.5 69q0 55 38 123t105 133q41 39 92.5 78.5t51.5 46.5t-11 10.5t-34 3.5q-65 0 -128 -74.5t-77 -74.5q-5 0 -6.5 3t-1.5 11q0 14 55 71t78 99q9 16 23 55
q33 90 69 90q15 0 25 -13t10 -34q0 -30 -21.5 -54t-21.5 -26q0 -7 8 -10.5t25 -3.5z" />
    <glyph glyph-name="uniE022" unicode="&#xe022;" horiz-adv-x="1282" 
d="M1870 1270q-19 6 -37 9t-37 3q-75 0 -153.5 -32t-161.5 -97q-76 -58 -116 -119.5t-40 -120.5q0 -36 24 -61t60 -25q120 0 269.5 137.5t191.5 305.5zM836 717q83 37 179.5 101t201.5 153q32 27 94 81q299 259 481 259q14 0 31 -2.5t53 -9.5v26q0 65 -41 100t-117 35
q-108 0 -254.5 -86.5t-318.5 -253.5q-97 -92 -172.5 -190t-136.5 -213zM1260 559q-107 -73 -199.5 -111t-161.5 -38q-85 0 -136.5 51.5t-51.5 136.5v20v4q2 10 2 17q-30 -6 -56.5 -9t-52.5 -3q-120 0 -196 75t-76 193q0 79 39 158t110 145q76 70 168 110t176 40q23 0 75 -8
q3 0 5 -1q-222 -58 -370 -195t-148 -276q0 -93 59 -151t154 -58q26 0 54.5 4t64.5 13q22 100 89.5 205.5t178.5 214.5q187 181 384.5 287t342.5 106q98 0 148.5 -42.5t50.5 -125.5q0 -3 -1 -14t-1 -19q51 -18 76.5 -55.5t25.5 -93.5q0 -70 -39 -136.5t-112 -123.5
q-37 -29 -72.5 -48.5t-44.5 -19.5q-4 0 -8 3.5t-4 6.5q0 11 35 33q24 16 38 27q84 61 127 126t43 130q0 42 -16 68t-55 48q-52 -179 -209.5 -319.5t-280.5 -140.5q-59 0 -93 30.5t-34 83.5q0 22 6 46.5t21 58.5q-126 -116 -250.5 -201.5t-253.5 -144.5q-15 -30 -22 -55.5
t-7 -49.5q0 -56 32.5 -87.5t90.5 -31.5q63 0 158.5 45.5t263.5 157.5l6 4q114 80 144 80q1 0 2.5 -1t1.5 -3q0 -5 -58 -64.5t-102 -132.5q-12 -20 -36 -61q-117 -202 -195 -283q-96 -97 -230 -152t-276 -55q-181 0 -291.5 85t-110.5 221q0 112 80.5 188t198.5 76
q87 0 146 -47.5t59 -118.5q0 -84 -70.5 -147.5t-163.5 -63.5q-19 0 -39 3.5t-40 10.5q110 23 181.5 85.5t71.5 131.5q0 53 -39.5 84t-105.5 31q-99 0 -171.5 -69.5t-72.5 -165.5q0 -115 96 -191t244 -76q177 0 342.5 128t360.5 417zM1856 1714q92 0 201 75t114 75
q8 -1 12 -7t5 -18q0 -12 -11 -28t-38 -44q-90 -91 -159 -130.5t-136 -39.5q-90 0 -152.5 73.5t-62.5 162.5q0 17 6 25t18 8q20 0 35 -36q4 -9 6 -13q25 -53 64.5 -78t97.5 -25z" />
    <glyph glyph-name="uniE023" unicode="&#xe023;" horiz-adv-x="750" 
d="M137 23q36 0 96 41.5t127 113.5q109 118 167.5 196.5t58.5 106.5q0 23 -13.5 34t-40.5 11q-51 0 -118 -40t-140 -113q-90 -92 -139 -170.5t-49 -128.5q0 -25 13.5 -38t37.5 -13zM193 -86q-245 -97 -406.5 -230.5t-161.5 -220.5q0 -29 17 -44t49 -15q100 0 385 362
q74 95 117 148zM334 -41q-318 -386 -436.5 -485t-212.5 -99q-43 0 -68 24.5t-25 65.5q0 98 178.5 246t444.5 244l111 147q-62 -56 -114 -84t-95 -28q-53 0 -83 33.5t-30 91.5q0 68 48.5 151t131.5 154q78 66 168 102.5t174 36.5q41 0 64 -18t25 -49q33 45 49.5 54t52.5 9
q19 0 30 -5t11 -13q0 -7 -6 -20.5t-15 -25.5l-372 -485q293 111 502 344q35 39 42 39q6 0 9.5 -3t3.5 -9q0 -51 -178.5 -193t-409.5 -225zM630 774q92 0 201 75t114 75q8 -1 12 -7t5 -18q0 -12 -11 -28t-38 -44q-90 -91 -159 -130.5t-136 -39.5q-90 0 -152.5 73.5
t-62.5 162.5q0 17 6 25t18 8q20 0 35 -36q4 -9 6 -13q25 -53 64.5 -78t97.5 -25z" />
    <glyph glyph-name="uniE024" unicode="&#xe024;" horiz-adv-x="1343" 
d="M1624 1161q64 75 145.5 143.5t182.5 133.5q-130 -19 -239 -68t-197 -129q29 -14 55.5 -34t52.5 -46zM1257 637q90 148 174.5 271t167.5 225q-24 25 -52 45.5t-62 38.5q-142 -109 -222.5 -232.5t-80.5 -226.5q0 -44 19 -74t56 -47zM1360 610q140 6 229.5 101.5t89.5 234.5
q0 33 -6.5 61.5t-19.5 55.5q-47 -62 -124.5 -181.5t-168.5 -271.5zM1335 569q-170 -303 -361 -446t-427 -143q-181 0 -287 92t-106 247q0 187 153.5 329.5t356.5 142.5q129 0 207.5 -65.5t78.5 -172.5q0 -134 -107 -242t-235 -108q-70 0 -112.5 39t-42.5 104q0 52 29 102
t83 91q42 31 86 51t66 20q10 0 15 -2t5 -6q0 -11 -35 -24q-31 -12 -51 -23q-79 -43 -122.5 -98.5t-43.5 -114.5q0 -46 27.5 -73t75.5 -27q42 0 87.5 24.5t92.5 73.5q63 64 95 126.5t32 121.5q0 71 -62 119.5t-155 48.5q-199 0 -344.5 -129t-145.5 -301q0 -137 92.5 -223.5
t237.5 -86.5q216 0 369 119.5t350 466.5q-61 35 -90 85.5t-29 121.5q0 112 69.5 230t188.5 204q-10 1 -21.5 1.5t-31.5 0.5q-112 0 -211 -64t-156 -173q-26 -51 -39 -114t-26 -63q-8 1 -11 6.5t-3 18.5q0 161 136.5 292.5t323.5 131.5q13 0 40.5 -2.5t39.5 -3.5
q139 93 298 146t300 53q17 0 26 -5.5t9 -15.5q0 -4 -31 -24q-197 -125 -342 -328q19 -39 28 -79.5t9 -82.5q0 -153 -107 -258t-272 -111zM1839 1685q0 43 25.5 71t64.5 28q30 0 49 -19t19 -49q0 -44 -24.5 -71t-64.5 -27q-31 0 -50 18.5t-19 48.5z" />
    <glyph glyph-name="uniE025" unicode="&#xe025;" horiz-adv-x="1565" 
d="M805 682q-125 -16 -204 -87t-79 -163q0 -42 29 -72t70 -30q76 0 140 77t64 173q0 25 -5 50t-15 52zM1630 1137q-56 39 -118 58t-130 19q-120 0 -194 -46.5t-74 -118.5q0 -60 51 -97t135 -37q120 0 207 58.5t123 163.5zM1798 821q276 121 461.5 292.5t185.5 283.5
q0 29 -12.5 43t-38.5 14q-98 0 -261.5 -171t-334.5 -462zM1767 770q-220 -405 -476.5 -596.5t-577.5 -191.5q-238 0 -400.5 137t-162.5 332q0 163 123 277t300 114q84 0 150 -32.5t104 -92.5h35q113 0 186.5 -63t73.5 -162q0 -80 -43 -150.5t-127 -128.5q-43 -30 -89.5 -50
t-63.5 -20q-7 1 -11.5 4t-5.5 7q0 10 36 25q34 14 56 26q104 57 158.5 132t54.5 159q0 88 -65.5 138t-181.5 50q9 -27 13.5 -51t4.5 -49q0 -114 -74.5 -200.5t-162.5 -86.5q-60 0 -98 39.5t-38 101.5q0 98 85.5 176t217.5 97q-30 45 -74.5 68.5t-99.5 23.5
q-153 0 -272 -124.5t-119 -281.5q0 -168 141 -276.5t365 -108.5q247 0 456 167t429 544q-58 -16 -118 -24.5t-122 -8.5q-250 0 -401.5 118.5t-151.5 309.5q0 164 134 269.5t341 105.5q175 0 282.5 -76t107.5 -200q-1 -19 -3.5 -34.5t-8.5 -34.5q30 -29 48.5 -52.5
t18.5 -32.5q0 -4 -1.5 -7t-4.5 -3q-6 0 -38 26q-20 18 -34 29q-47 -108 -142 -167.5t-218 -59.5q-104 0 -166 46t-62 122q0 87 80.5 142.5t210.5 55.5q76 0 145 -18t129 -53q4 14 5.5 27t1.5 26q0 95 -88.5 160t-221.5 65q-186 0 -320 -117t-134 -272q0 -146 133.5 -244
t341.5 -98q69 0 140 13t144 40q213 335 414 524t340 189q48 0 70 -21t22 -67q0 -128 -206 -315.5t-515 -315.5zM493 -119q27 15 56.5 22t66.5 7q75 0 113.5 -32t38.5 -95q0 -74 -56.5 -119t-150.5 -45q-103 0 -188 32.5t-85 55.5q0 7 5 12t12 5q9 0 86 -23t141 -23
q62 0 100.5 27.5t38.5 69.5q0 40 -24.5 57.5t-81.5 17.5q-10 0 -24 -2t-29 -6z" />
    <glyph glyph-name="uniE026" unicode="&#xe026;" horiz-adv-x="561" 
d="M188 20q92 18 192 74.5t200 149.5q41 39 85.5 92t55.5 53q6 0 8 -2t2 -8q0 -20 -64.5 -92t-150.5 -140q-109 -84 -215 -127t-207 -43q-70 0 -106.5 24t-36.5 69q0 40 27.5 72t60.5 32q17 0 29 -10t12 -25q0 -16 -46 -34t-46 -46q0 -17 12.5 -28.5t32.5 -12.5q28 0 63 19
t74 55q82 74 133 167.5t51 166.5q0 35 -7 66.5t-21 56.5q-89 -114 -139.5 -169.5t-63.5 -55.5q-4 0 -6 2.5t-2 9.5q0 13 65.5 84t110.5 135q19 27 30 79t44 52q13 0 21.5 -10.5t8.5 -26.5q0 -26 -15 -51t-15 -27l36.5 -66t36.5 -136q0 -101 -66.5 -194t-183.5 -155zM-7 -119
q27 15 56.5 22t66.5 7q75 0 113.5 -32t38.5 -95q0 -74 -56.5 -119t-150.5 -45q-103 0 -188 32.5t-85 55.5q0 7 5 12t12 5q9 0 86 -23t141 -23q62 0 100.5 27.5t38.5 69.5q0 40 -24.5 57.5t-81.5 17.5q-10 0 -24 -2t-29 -6z" />
    <glyph glyph-name="uniE027" unicode="&#xe027;" horiz-adv-x="1284" 
d="M1186 872q48 41 76 80.5t28 65.5q0 20 -13 33.5t-34 13.5q-37 0 -68.5 -37t-31.5 -80q0 -23 10.5 -41.5t32.5 -34.5zM596 653q161 15 302.5 65t254.5 132q-25 19 -36 40t-11 50q0 62 46.5 111t100.5 49q35 0 56.5 -21.5t21.5 -56.5t-27.5 -76.5t-82.5 -91.5
q14 -5 29 -7.5t34 -2.5q77 0 162.5 34t159.5 95q94 75 150 167.5t56 168.5q0 72 -45 112.5t-127 40.5q-186 0 -480 -222.5t-564 -586.5zM455 629q-103 23 -157 95.5t-54 186.5q0 195 168 356t407 189q-230 -114 -375 -282t-145 -310q0 -83 46 -137.5t126 -64.5
q86 132 187 246.5t221 215.5q207 175 407.5 271t353.5 96q95 0 151 -47.5t56 -126.5q0 -85 -49 -176t-139 -170q-85 -75 -187.5 -117.5t-195.5 -42.5q-23 0 -46 4.5t-44 13.5q-145 -96 -301 -149.5t-314 -61.5q-73 -115 -110 -211.5t-37 -168.5q0 -103 64 -162.5t174 -59.5
q112 0 233 58t233 166q81 77 124.5 153t43.5 137q0 49 -24 75t-70 26q-113 0 -253 -141.5t-232 -360.5v25q0 203 145 357.5t328 154.5q65 0 103 -35t38 -94q0 -71 -46 -154t-132 -166q-119 -114 -245 -174.5t-244 -60.5q-148 0 -229 83t-81 236q0 80 25 161.5t76 166.5z
M1656 1567q-9 0 -13.5 3.5t-4.5 10.5q0 9 64 52.5t106 103.5q17 25 40 82q36 96 83 96q28 0 44.5 -16.5t16.5 -45.5q0 -50 -48 -105.5t-140 -111.5q-67 -40 -98 -54.5t-50 -14.5z" />
    <glyph glyph-name="uniE028" unicode="&#xe028;" horiz-adv-x="498" 
d="M522 432q-15 0 -27 11t-12 26q0 8 6.5 19.5t6.5 15.5q0 10 -5 14t-18 4q-33 0 -74.5 -29.5t-115.5 -109.5q-76 -80 -116 -149.5t-40 -118.5q0 -43 19.5 -64.5t58.5 -21.5q56 0 139.5 56.5t181.5 162.5q35 38 80 92q40 49 49 49q7 0 10 -3t3 -9q0 -14 -43 -65.5
t-117 -127.5q-94 -95 -177.5 -145.5t-146.5 -50.5q-62 0 -100.5 44t-38.5 115q0 73 35.5 143t105.5 136q73 68 152 105.5t147 37.5q49 0 73 -17t24 -52q0 -26 -19 -47t-41 -21zM437 627q-9 0 -13.5 3.5t-4.5 10.5q0 9 64 52.5t106 103.5q17 25 40 82q36 96 83 96
q28 0 44.5 -16.5t16.5 -45.5q0 -50 -48 -105.5t-140 -111.5q-67 -40 -98 -54.5t-50 -14.5z" />
    <glyph glyph-name="uniE029" unicode="&#xe029;" horiz-adv-x="1284" 
d="M1186 872q48 41 76 80.5t28 65.5q0 20 -13 33.5t-34 13.5q-37 0 -68.5 -37t-31.5 -80q0 -23 10.5 -41.5t32.5 -34.5zM596 653q161 15 302.5 65t254.5 132q-25 19 -36 40t-11 50q0 62 46.5 111t100.5 49q35 0 56.5 -21.5t21.5 -56.5t-27.5 -76.5t-82.5 -91.5
q14 -5 29 -7.5t34 -2.5q77 0 162.5 34t159.5 95q94 75 150 167.5t56 168.5q0 72 -45 112.5t-127 40.5q-186 0 -480 -222.5t-564 -586.5zM455 629q-103 23 -157 95.5t-54 186.5q0 195 168 356t407 189q-230 -114 -375 -282t-145 -310q0 -83 46 -137.5t126 -64.5
q86 132 187 246.5t221 215.5q207 175 407.5 271t353.5 96q95 0 151 -47.5t56 -126.5q0 -85 -49 -176t-139 -170q-85 -75 -187.5 -117.5t-195.5 -42.5q-23 0 -46 4.5t-44 13.5q-145 -96 -301 -149.5t-314 -61.5q-73 -115 -110 -211.5t-37 -168.5q0 -103 64 -162.5t174 -59.5
q112 0 233 58t233 166q81 77 124.5 153t43.5 137q0 49 -24 75t-70 26q-113 0 -253 -141.5t-232 -360.5v25q0 203 145 357.5t328 154.5q65 0 103 -35t38 -94q0 -71 -46 -154t-132 -166q-119 -114 -245 -174.5t-244 -60.5q-148 0 -229 83t-81 236q0 80 25 161.5t76 166.5z
M1736 1678l240 126q49 26 78 38.5t41 12.5q14 0 19 -3.5t5 -14.5q0 -19 -81 -69q-34 -20 -54 -33q-91 -59 -182 -126t-99 -67q-8 1 -14.5 7.5t-9.5 17.5l-70 244q-2 9 -3 15t-1 11q0 10 3.5 15t11.5 6q27 0 92 -132z" />
    <glyph glyph-name="uniE02A" unicode="&#xe02a;" horiz-adv-x="498" 
d="M522 432q-15 0 -27 11t-12 26q0 8 6.5 19.5t6.5 15.5q0 10 -5 14t-18 4q-33 0 -74.5 -29.5t-115.5 -109.5q-76 -80 -116 -149.5t-40 -118.5q0 -43 19.5 -64.5t58.5 -21.5q56 0 139.5 56.5t181.5 162.5q35 38 80 92q40 49 49 49q7 0 10 -3t3 -9q0 -14 -43 -65.5
t-117 -127.5q-94 -95 -177.5 -145.5t-146.5 -50.5q-62 0 -100.5 44t-38.5 115q0 73 35.5 143t105.5 136q73 68 152 105.5t147 37.5q49 0 73 -17t24 -52q0 -26 -19 -47t-41 -21zM517 738l240 126q49 26 78 38.5t41 12.5q14 0 19 -3.5t5 -14.5q0 -19 -81 -69q-34 -20 -54 -33
q-91 -59 -182 -126t-99 -67q-8 1 -14.5 7.5t-9.5 17.5l-70 244q-2 9 -3 15t-1 11q0 10 3.5 15t11.5 6q27 0 92 -132z" />
    <glyph glyph-name="uniE02B" unicode="&#xe02b;" horiz-adv-x="752" 
d="M354 147q-80 -79 -146 -118t-118 -39q-50 0 -77 29t-27 83q0 62 45 138t129 155q81 77 170 118.5t172 41.5q48 0 74 -21t26 -59l262 346h-188q-18 0 -22.5 2t-4.5 6q0 14 12 19.5t44 5.5h184l112 150q21 27 35 36t33 9h49q11 -1 16 -4.5t5 -10.5q0 -15 -16 -34
q-4 -5 -7 -9l-104 -137h131q18 0 22 -1.5t4 -6.5q0 -14 -11.5 -19.5t-43.5 -5.5h-129l-502 -653q-32 -42 -43.5 -64t-11.5 -38q0 -18 7.5 -25.5t25.5 -7.5q42 0 115.5 51.5t179.5 155.5q45 44 91.5 96.5t53.5 52.5q6 0 9 -3t3 -9q0 -15 -37.5 -58t-121.5 -126
q-104 -103 -178 -151t-127 -48q-49 0 -76 26.5t-27 73.5q0 8 1.5 19t6.5 34zM125 35q39 0 104.5 47.5t153.5 140.5q97 102 138.5 161.5t41.5 94.5q0 19 -16.5 31t-42.5 12q-38 0 -96.5 -39t-139.5 -118q-92 -92 -143 -165t-51 -114q0 -26 12.5 -38.5t38.5 -12.5z" />
    <glyph glyph-name=".null" horiz-adv-x="0" 
 />
  </font>
</defs>
</svg>
